<?xml version="1.0" encoding="UTF-8"?><svg id="Calque_2" xmlns="http://www.w3.org/2000/svg" viewBox="0 0 52.15 40.35"><defs><style>.cls-1{fill:#111515;}</style></defs><g id="icon"><path class="cls-1" d="M44.54,6.5c-7.32-.04-14.64.02-21.96.12-.02,0-.04,0-.06,0-3.69.05-7.37.1-11.06.16-.07,0-.12.02-.18.04-.6-1.47-1.24-2.91-1.95-4.3C7.66-.72,4.01.17.72,0-.24-.05-.24,1.45.72,1.5c1.46.08,4.3-.32,5.61.29,2.07.97,2.89,4.53,3.67,6.48,1.24,3.12,2.48,6.25,3.72,9.37,1.24,3.12,2.48,6.25,3.72,9.37.58,1.45.8,2.41,2.29,2.76,2.06.49,4.87-.04,7.01-.09,2.06-.05,4.12-.09,6.18-.12,3.19-.04,6.75.35,9.91-.11,1.68-.25,2.15-.68,2.96-2.2,1.53-2.89,2.53-6.26,3.57-9.36.45-1.34.88-2.7,1.28-4.06.43-1.45,1.64-3.97,1.48-5.47-.34-3.24-5.07-1.86-7.59-1.87ZM46.49,8.01c1.43,0,3.29-.58,3.86,1.34.25.85-.76,3-1.08,3.93-3.45.06-6.91.13-10.36.19.42-1.83.84-3.65,1.26-5.48,2.11,0,4.22,0,6.33.02ZM46.92,20.34c-3.21.03-6.41.06-9.62.09.42-1.82.84-3.64,1.25-5.46,3.41-.06,6.82-.13,10.23-.19-.58,1.87-1.2,3.72-1.86,5.55ZM35.76,20.45c-1.18.01-2.36.02-3.54.03-2.14.02-4.24.21-6.32.35-.47-1.86-.9-3.73-1.3-5.61,4.14-.08,8.28-.15,12.42-.23l-1.25,5.45ZM38.6,7.98s.01,0,.02,0c-.42,1.84-.84,3.68-1.27,5.51-4.36.08-8.72.16-13.07.24-.37-1.87-.71-3.75-1-5.64,5.11-.07,10.22-.12,15.32-.12ZM21.77,8.12c.29,1.89.62,3.77.99,5.64-2.94.05-5.87.11-8.81.16-.68-1.88-1.37-3.78-2.1-5.65,3.31-.06,6.61-.11,9.92-.15ZM14.5,15.41c2.86-.05,5.72-.1,8.58-.16.39,1.9.83,3.79,1.3,5.68-2.47.14-4.94.15-7.47-.31-.19-.03-.35,0-.48.08-.24-.77-.48-1.5-.72-2.12-.41-1.04-.81-2.1-1.2-3.17ZM18.89,26.61c-.87-1.1-1.48-2.8-2.02-4.49,2.71.45,5.27.38,7.85.22.51,1.96,1.06,3.92,1.66,5.86-.12,0-.24,0-.35,0-2.54.05-5.29.74-7.13-1.59ZM27.91,28.17s0-.08-.01-.12c-.6-1.93-1.14-3.87-1.66-5.82,1.5-.11,3.03-.21,4.61-.24,1.52-.02,3.04-.04,4.57-.05-.47,2.04-.94,4.09-1.41,6.13-2.03.03-4.07.06-6.1.1ZM44.95,25.46c-1.75,2.11-3.89,2.52-6.38,2.55-1,.01-2,.03-3.01.05.47-2.04.94-4.08,1.41-6.13,3.14-.03,6.29-.06,9.43-.09-.39,1.17-.73,2.76-1.44,3.62Z"/><path class="cls-1" d="M22.27,32.85h0c-2.04-.04-4.08,1.44-4.23,3.58-.14,2.12,1.85,3.84,3.87,3.91,2.31.09,3.65-1.62,3.69-3.8.04-1.86-1.29-3.97-3.33-3.69ZM21.47,38.78c-1.08-.26-2.11-1.3-1.9-2.47.23-1.27,1.5-1.98,2.7-1.96.05,0,.1-.02.14-.03.02,0,.04,0,.06,0,2.08-.43,2.53,5.3-1,4.46Z"/><path class="cls-1" d="M41.61,32.96c-.1-.02-.21-.02-.34.01-2.09.54-3.53,2.43-2.84,4.6.63,1.96,2.37,2.92,4.38,2.6,4.54-.73,2.82-7.41-1.2-7.21ZM42.28,38.72c-1.15.08-2.02-.44-2.39-1.55-.46-1.38.49-2.42,1.79-2.75,1.33-.19,2.27,1.29,2.37,2.41.11,1.19-.61,1.81-1.77,1.89Z"/></g></svg>