<svg width="138" height="128" viewBox="0 0 138 128" fill="none" xmlns="http://www.w3.org/2000/svg">
<circle cx="64.5" cy="64" r="64" fill="white" fill-opacity="0.3"/>
<path d="M136.995 68.9484C136.995 64.22 136.694 62.751 134.471 58.6883C131.53 53.2943 128.797 46.3624 124.536 41.8636C122.198 39.3846 120.669 39.4535 117.196 39.201C110.295 38.6961 103.302 38.5813 96.3545 38.696C92.8347 38.7649 88.1569 38.1911 85.6791 41.2209C85.5402 41.3816 85.4244 41.5652 85.3086 41.7259C85.1697 39.7978 85.0308 37.8468 84.8455 35.9187C84.4982 32.338 84.6139 28.3212 81.4646 25.98C77.2732 22.8583 69.1914 24.3503 64.5137 24.3962C56.0846 24.488 47.6323 24.5568 39.2032 24.6487C31.654 24.8323 24.1281 24.5339 16.5789 24.5569C13.499 24.5569 8.82132 23.8683 6.20459 26.0718C2.84683 28.8721 3.35634 35.276 3.14793 39.0174C2.70795 46.9592 2.63843 54.924 2.52265 62.8658C2.43002 68.9025 2.61529 74.7785 3.19422 80.7922C3.51841 84.1434 2.80055 89.1472 4.28259 92.2459C6.87617 97.6628 15.3285 95.9414 20.5156 95.8725C21.0019 95.8725 21.3724 95.6659 21.6503 95.4134C21.7197 95.3445 21.7892 95.2527 21.8355 95.1609C22.0439 94.9084 22.206 94.5871 22.206 94.1739C22.4839 85.4747 26.8143 80.1266 35.6371 80.1036C44.043 80.0807 49.7396 85.0156 50.0407 93.6001C50.0407 93.9444 50.1796 94.2199 50.3417 94.4723C50.5964 94.9544 51.0596 95.3216 51.7774 95.3216C58.5624 95.2527 65.3474 95.2068 72.1092 94.6101C76.0227 94.2658 81.4645 94.2428 83.9887 90.7998C84.3823 90.2719 84.6371 89.6751 84.8686 89.0095C85.0307 89.6063 85.216 90.1801 85.4475 90.708C87.1148 94.3805 92.3946 95.2298 96.0303 95.597C96.9102 95.6888 97.4197 95.1839 97.6049 94.5412C97.6976 94.3346 97.767 94.128 97.767 93.8755C98.0449 85.1992 102.375 79.8282 111.198 79.8052C119.604 79.7823 125.301 84.7172 125.602 93.3017C125.602 93.4853 125.671 93.6231 125.717 93.7837C125.602 94.7248 126.111 95.7348 127.338 95.62C131.345 95.2528 135.721 94.4264 136.763 90.2489C138.292 84.1434 136.972 75.3294 136.949 68.9943L136.995 68.9484ZM81.8814 82.7433C80.1215 91.1671 74.6101 91.0982 67.2462 91.4654C62.638 91.695 58.0298 91.7639 53.4216 91.8098C52.3563 82.4219 45.5019 76.5918 35.6834 76.6148C25.4712 76.6377 19.7746 82.881 18.8946 92.4295C16.741 92.4754 14.5874 92.4984 12.457 92.3836C7.22352 92.0623 7.43189 90.6851 7.06138 85.8649C6.4593 78.1526 5.90358 70.624 6.01936 62.8658C6.08883 57.5636 6.15831 52.2843 6.32041 46.9822C6.48251 42.0472 5.34782 32.7053 9.2845 29.6525C12.9896 26.7833 19.1724 28.0228 23.7807 28.0916C28.9447 28.1605 34.0855 28.2523 39.2264 28.0916C50.6427 27.9539 62.2212 27.3113 73.6144 27.7244C81.9277 28.0228 81.1636 32.843 81.6499 39.4305C82.0435 44.5032 82.414 49.5988 82.5761 54.6944C82.854 63.5314 83.6645 74.0669 81.8583 82.7203L81.8814 82.7433ZM133.475 79.2314C133.429 81.6874 133.382 84.1434 133.382 86.5994C133.382 90.203 132.086 91.4196 129.029 91.9245C128.103 82.3071 121.202 76.3163 111.244 76.3393C101.102 76.3622 95.4282 82.4908 94.4787 91.9245C93.0662 91.695 91.5842 91.3048 90.4032 90.6621C87.8327 89.262 88.1106 86.278 87.7864 83.5466C87.2075 78.5658 86.9064 73.5849 87.0454 68.5811C87.0454 68.5811 87.0454 68.5582 87.0454 68.5352C87.0454 68.4204 87.0454 68.3057 87.0454 68.1909C87.0454 68.0761 87.0454 67.9614 87.0454 67.8696C87.0454 67.8466 87.0454 67.8236 87.0454 67.8007C86.9064 61.259 85.1929 50.1956 88.5275 44.6868C90.7968 40.9455 97.0955 42.1161 101.403 42.139C106.219 42.162 111.059 42.2997 115.853 42.5751C120.252 42.8276 120.901 42.5522 123.24 46.1099C125.856 50.0579 128.103 54.3042 130.395 58.4588C131.553 60.5475 133.359 63.9905 133.498 64.7479C134.332 69.2238 133.568 74.7096 133.498 79.2544L133.475 79.2314Z" fill="#111515"/>
<path d="M33.8303 82.1459C33.8303 82.1459 33.7608 82.1459 33.7145 82.1459C33.6681 82.1459 33.6218 82.1688 33.5755 82.1688C33.4597 82.1688 33.3671 82.1688 33.2514 82.1918C33.1124 82.2147 33.0197 82.2836 32.904 82.3295C26.9063 83.5919 23.2707 89.5598 23.456 95.5735C23.6644 102.597 30.1251 105.696 36.5164 104.87C42.6993 104.066 49.0675 98.6033 47.7939 91.901C46.4508 84.8314 40.6153 81.2048 33.8303 82.1229V82.1459ZM36.8869 101.358C32.1398 102.299 26.8137 100.554 26.9063 94.9767C26.9758 91.0517 29.3378 86.1397 33.6913 85.5659C33.7607 85.5659 33.8303 85.52 33.8998 85.4971C33.9924 85.4971 34.0618 85.4971 34.1544 85.4971C38.9479 84.6707 42.7457 86.9202 44.1582 91.6715C45.5477 96.3539 41.2173 100.508 36.8869 101.335V101.358Z" fill="#111515"/>
<path d="M109.808 81.8712C109.808 81.8712 109.739 81.8712 109.692 81.8712C109.646 81.8712 109.6 81.8942 109.553 81.8942C109.438 81.8942 109.345 81.8942 109.229 81.9171C109.09 81.9401 108.998 82.0089 108.882 82.0548C103.185 83.2714 98.9938 89.0785 99.5496 94.9316C100.198 101.886 105.871 105.444 112.517 104.595C118.7 103.792 125.068 98.3287 123.795 91.6263C122.452 84.5567 116.616 80.9301 109.831 81.8483L109.808 81.8712ZM112.865 101.083C108.303 101.978 103.996 100.394 103.116 95.4366C102.398 91.3279 105.2 85.888 109.669 85.2913C109.739 85.2913 109.808 85.2454 109.878 85.2224C109.97 85.2224 110.04 85.2224 110.132 85.2224C114.926 84.3961 118.724 86.6455 120.136 91.3968C121.526 96.0792 117.195 100.234 112.865 101.06V101.083Z" fill="#111515"/>
<path d="M116.315 46.7527C110.179 46.4543 103.973 46.3855 97.836 46.5002C94.6403 46.5691 92.2321 46.0871 91.2826 49.3694C90.0322 53.5928 90.2405 61.4428 91.6068 65.6662C91.7226 66.0564 91.9773 66.3088 92.232 66.5154C92.3015 66.5843 92.3246 66.6531 92.3941 66.6991C95.0108 68.696 101.75 67.709 104.737 67.7319C111.012 67.8238 117.357 67.8697 123.633 67.4106C126.157 67.227 128.797 67.4794 129.005 64.4955C129.283 60.4558 123.841 54.0059 121.919 50.7925C120.067 47.6938 119.835 46.9363 116.315 46.7527ZM118.191 64.1972C113.282 64.3349 108.349 64.3578 103.417 64.266C101.611 64.2431 96.8403 64.8169 94.733 64.0135C93.8299 60.5246 94.0614 55.5208 94.5014 52.1697C94.8488 49.5071 93.8993 50.6318 96.3076 50.0121C98.2065 49.53 100.823 49.9662 102.768 49.9662C107.052 49.9891 111.614 50.6089 115.852 50.1957C116.778 50.1039 117.404 50.2875 117.728 50.3564C118.284 51.2057 118.724 52.2385 119.187 53.0189C121.248 56.4849 122.869 60.5017 125.069 63.8758C124.721 63.9217 124.374 63.9676 124.05 63.9447C122.151 63.8299 120.113 64.1513 118.191 64.1972Z" fill="#111515"/>
<path d="M21.3026 33.2562C16.8796 33.6465 12.1555 34.9318 10.0251 39.2241C7.73257 43.8836 9.3536 50.9302 9.56201 55.8422C9.65464 58.0457 13.1282 58.0687 13.0355 55.8422C12.8734 52.1927 12.4798 48.4742 12.5493 44.8247C12.6187 39.3848 16.046 37.1583 21.3026 36.6992C23.5025 36.4926 23.5256 33.0497 21.3026 33.2562Z" fill="#111515"/>
<path d="M28.1336 33.0032C25.8874 33.0032 25.8874 36.4462 28.1336 36.4462C30.3799 36.4462 30.3799 33.0032 28.1336 33.0032Z" fill="#111515"/>
</svg>
