<svg width="248" height="278" viewBox="0 0 248 278" fill="none" xmlns="http://www.w3.org/2000/svg">
<path d="M169.632 144.248C169.575 142.104 169.284 139.965 168.758 137.84C168.548 137.429 168.037 137.075 167.339 136.884C156.91 134.029 133.601 134.091 115.255 134.167C96.9094 134.091 73.5999 134.029 63.1706 136.884C62.4731 137.075 61.9667 137.429 61.7517 137.84C61.2262 139.965 60.9347 142.104 60.8774 144.248C60.7962 147.4 61.2214 150.552 61.766 153.694C63.0559 161.129 65.0147 168.526 67.6328 175.856C70.3273 183.406 74.6844 191.648 86.5708 195.688C91.5251 197.374 97.5782 198.133 103.292 198.764C107.315 199.203 123.716 199.203 127.739 198.764C133.452 198.138 138.98 197.374 143.939 195.688C155.825 191.643 160.183 183.406 162.877 175.856C165.495 168.531 167.454 161.129 168.744 153.694C169.288 150.552 169.718 147.405 169.632 144.248Z" fill="#FF8B5A"/>
<path d="M44.8538 48.2918C47.1708 47.714 49.8606 48.4207 52.1108 49.2707C51.0263 49.2994 49.8558 49.3615 49.0962 50.3022C48.6614 50.8418 48.5372 51.6298 48.9099 52.2219C49.3589 52.9334 50.1568 52.8809 50.8591 52.7997C53.1379 52.5371 55.412 52.2696 57.6909 52.007C58.2355 53.0958 56.5777 54.0652 55.5123 53.9315C54.9151 53.8551 54.2988 53.9076 53.7781 54.2419C52.6219 54.9821 53.0137 56.1568 53.6921 56.7537C55.1588 58.0478 57.2991 57.1596 59.1098 56.5818C60.9205 56.004 63.5385 56.343 63.7965 58.3773C61.9667 58.6209 60.1417 58.8644 58.3119 59.108C57.7482 59.1844 57.0889 59.3277 56.9456 60.001C56.8644 60.3878 56.9981 60.7936 57.2418 61.0849C60.3376 64.7524 66.1423 60.1586 69.8353 62.7373C70.1076 62.9283 70.3847 63.21 70.3703 63.5586C70.3512 64.0457 69.8162 64.2844 69.3767 64.38C66.9353 64.9148 64.2599 64.8384 62.1865 66.3378C61.6514 66.7246 61.1402 67.2643 61.3552 68.1286C61.5129 68.7733 62.0098 69.2413 62.5926 69.4514C66.9401 71.0081 71.9469 66.0752 75.6829 69.098C75.9648 69.3272 76.1464 69.7045 76.0747 70.0818C75.9935 70.5163 75.6448 70.6357 75.3199 70.7216C72.3531 71.4762 68.7126 70.7789 66.6917 73.2573C66.5149 73.4722 66.3477 73.7397 66.3764 74.0262C66.4003 74.2889 66.577 74.499 66.7586 74.6709C68.6887 76.5237 71.6603 75.965 74.1255 75.158C76.7961 74.2841 79.8346 73.2717 82.166 75.1818C82.5243 75.4731 82.7441 75.9459 82.7011 76.4282C82.6199 77.3594 81.7886 77.5791 81.0815 77.7032C78.4443 78.1664 75.8024 78.6344 73.1652 79.0976C72.5728 79.2027 71.9422 79.3221 71.6316 80.0432C71.2781 80.8597 71.5887 81.8196 72.2623 82.3496C73.3659 83.2235 74.7752 82.937 76.0508 82.6314C77.9905 82.1682 79.9302 81.7098 81.8698 81.2466C83.1836 80.9362 84.6265 80.6305 85.7683 81.6286C86.3416 82.13 86.6091 82.9848 86.3224 83.7249C85.9593 84.6561 85.0564 84.7851 84.2442 84.8615C81.9128 85.0859 79.5766 85.3056 77.2452 85.53C76.6958 85.5826 76.1034 85.6542 75.8358 86.3609C75.5683 87.0677 75.8502 87.889 76.4378 88.3045C78.8982 90.038 81.7599 88.6722 84.5022 88.4907C86.7907 88.3379 89.1173 89.0591 90.9805 90.506C91.3914 90.8259 91.6828 91.3226 91.6876 91.8717C91.7019 93.2041 90.3164 93.5001 89.2654 93.3855C86.0454 93.0226 83.0546 91.0742 79.8155 91.1124C79.4954 91.1124 79.1371 91.1602 78.9317 91.4228C78.6211 91.8192 78.8505 92.4304 79.1371 92.8459C80.7997 95.2431 83.8334 95.7827 86.5231 96.4847C89.6619 97.3061 92.7004 98.5907 95.5287 100.291C96.7326 101.017 97.97 101.9 98.3235 103.428C98.5289 104.312 98.2948 105.281 97.6069 105.811C96.7517 106.47 95.7485 106.069 94.9029 105.606C91.1095 103.528 87.9277 100.052 83.7426 99.0634C83.389 98.9822 83.0164 98.9679 82.6676 99.073C81.2535 99.4884 81.2917 101.231 81.8364 102.416C82.9208 104.794 85.3144 106.05 87.5407 107.143C89.8865 108.294 92.237 109.44 94.5827 110.591C97.11 111.828 100 113.595 100.225 116.594C100.268 117.157 100.196 117.768 99.408 118.05C98.9112 118.227 98.3713 118.136 97.9031 117.883C93.5508 115.553 90.1158 110.653 85.2571 110.357C84.765 110.328 84.2251 110.357 83.9814 111.102C83.8572 111.479 83.8907 111.89 83.9958 112.267C84.8175 115.171 87.1251 117.281 89.6141 118.628C92.5475 120.213 95.8154 120.935 98.787 122.448C99.7807 122.955 100.579 123.833 101.042 124.917C101.171 125.223 101.295 125.61 101.157 125.93C101.042 126.202 100.765 126.35 100.507 126.445C96.2644 128.007 91.9265 121.722 87.77 123.528C87.4356 125.218 88.4867 126.947 89.8626 127.816C91.2385 128.685 92.8772 128.89 94.4585 129.081L101.262 129.888C101.916 129.965 102.552 130.208 103.063 130.652C104.706 132.071 103.827 133.885 103.569 135.585C103.369 136.894 104.186 139.129 105.399 139.005C105.638 136.096 105.872 133.188 106.111 130.28C106.144 129.888 106.183 129.468 106.407 129.158C106.632 128.838 107.004 128.69 107.358 128.561C111.476 127.052 116.311 125.357 117.744 120.906C117.873 120.5 117.959 119.999 117.696 119.674C117.386 119.282 116.812 119.392 116.363 119.554C113.874 120.438 111.552 121.871 109.579 123.733C108.514 124.736 106.632 125.753 106.001 124.382C110.454 119.144 113.712 112.711 115.384 105.821C115.561 105.085 115.365 104.278 114.83 103.791C114.046 103.075 113.196 103.567 112.565 104.13C109.087 107.239 108.428 112.988 104.993 116.145C104.568 116.532 104.042 116.899 103.459 116.551C103.134 116.355 102.934 115.982 102.886 115.581C102.776 114.693 103.244 113.953 103.674 113.251C107.386 107.215 109.847 100.276 110.807 93.0942C110.979 91.7953 110.382 90.4678 109.259 89.9664C107.367 89.1211 105.934 91.4849 105.222 93.4285C103.65 97.7216 102.083 102.015 100.512 106.308C99.0975 102.043 101.486 97.54 103.278 93.4428C104.835 89.8708 105.982 86.084 106.679 82.2064C106.956 80.6544 107.162 79.0069 106.426 77.5552C105.982 76.6765 105.165 76.0414 104.238 76.0414C102.375 76.0366 101.458 78.41 101.004 80.3536C99.9096 85.0525 98.8204 89.7467 97.7263 94.4457C95.4092 91.6282 96.4316 87.273 97.2152 83.5912C98.2901 78.5198 98.6293 73.2669 98.2136 68.0856C98.1085 66.7438 97.9222 65.3303 97.0384 64.3226C96.5893 63.8117 95.9635 63.487 95.3137 63.5109C94.2053 63.5491 93.6655 64.4993 93.331 65.4401C91.5395 70.4637 94.0476 76.1942 93.0109 81.4614C92.8819 82.1061 92.6813 82.789 91.9217 82.98C91.5156 83.0803 91.0761 82.98 90.7273 82.7269C89.9295 82.1491 89.6571 81.1271 89.4851 80.1482C88.0805 71.9632 91.764 62.6656 87.0821 55.7413C86.633 55.0776 85.9354 54.6287 85.1758 54.6C83.7235 54.5427 83.0976 55.9992 82.8492 57.3077C81.9558 62.0448 83.8668 66.8249 84.7459 71.5334C84.851 72.0874 84.6169 72.6891 84.1439 72.9326C83.284 73.3767 82.6342 72.2593 82.4145 71.3472C80.943 65.2825 82.4575 58.4442 79.7964 52.8761C79.376 51.9975 78.7501 51.0854 77.6895 51.2812C77.1258 51.3862 76.6528 51.7921 76.3374 52.3078C74.0442 56.0613 77.5605 60.8176 76.5429 65.0056C73.8484 63.7019 73.0314 59.9866 72.9932 56.7823C72.9502 53.4444 73.3133 49.8199 71.474 47.0788C70.9676 46.3243 70.2127 45.7799 69.3527 45.7131C68.2396 45.6319 67.7427 46.396 67.4991 47.1982C66.5722 50.2497 68.8941 53.3346 69.2429 56.472C69.305 57.045 68.9849 57.6228 68.4689 57.7661C67.8622 57.938 67.4991 57.4127 67.2459 56.9256C65.2824 53.1531 65.3397 48.287 62.6595 45.0159C62.4445 44.7533 62.1531 44.5574 61.833 44.5049C60.414 44.2566 60.2038 46.6252 60.715 48.0482C61.2215 49.457 61.4556 51.6632 60.0797 51.9163C59.6497 49.9249 59.2244 47.9336 58.7945 45.9423C58.5652 44.8678 58.3024 43.7265 57.4186 43.0675C56.8405 42.6377 56.0522 42.6043 55.541 43.1248C54.2702 44.4189 56.3723 47.0884 55.2113 48.4828C53.8593 48.2488 53.224 46.5201 53.1045 45.035C52.9851 43.5498 53.0806 41.9119 52.2302 40.7467C51.3798 39.5815 49.1201 39.8299 49.1583 41.3198C49.1726 41.9644 49.4784 42.8908 48.9051 43.0532C47.9687 42.3321 47.9544 40.8708 47.7155 39.6531C47.4766 38.4354 46.4064 37.0792 45.3888 37.6618L44.9493 39.3571C43.5304 39.1183 42.7038 37.552 41.8248 36.3199C41.5907 35.9904 41.2993 35.6753 40.9792 35.4031C39.9425 34.534 38.5761 35.9857 39.3596 37.127C40.769 39.1708 42.7087 40.7849 44.9111 41.6922C44.7869 42.695 43.3058 42.6808 42.5701 42.2748C42.1019 42.017 41.5525 41.9262 41.07 42.1555C39.7944 42.7524 40.5492 44.3617 41.5477 44.6625C42.3838 44.9156 43.2676 44.6195 44.1324 44.524C45.599 44.3664 47.1135 44.8249 48.2888 45.7895C47.8301 46.2957 47.0944 46.31 46.4399 46.2765C45.7853 46.2431 45.0591 46.2193 44.5671 46.6873C44.075 47.1553 44.204 48.287 44.8538 48.3204V48.2918Z" fill="#51603C"/>
<path d="M93.0444 127.692C94.3391 129.869 96.4794 131.45 98.8538 131.971C99.4701 132.104 100.149 132.195 100.602 132.658C100.937 133.002 101.095 133.494 101.228 133.971C102.447 138.274 102.862 142.839 104.401 147.023C105.939 151.206 108.996 155.155 113.158 155.847C112.064 147.237 103.856 140.776 104.176 132.009C104.186 131.694 104.281 131.374 104.482 131.14C105.227 130.247 106.445 131.283 107.009 132.248C110.764 138.642 113.483 146.593 120.224 149.348C120.84 149.601 121.547 149.592 122.12 149.234C123.2 148.56 123.023 147.309 122.679 146.306C120.353 139.53 112.207 136.493 110.234 129.588C112.881 129.115 115.002 131.66 116.946 133.618C119.263 135.948 122.063 137.725 125.097 138.78C125.794 139.024 126.544 139.11 127.261 138.933C129.511 138.374 129.506 136.054 128.575 134.65C127.939 133.695 126.969 133.074 126.019 132.491C122.722 130.476 119.345 128.609 115.895 126.909C115.121 126.527 114.543 125.763 114.457 124.855C114.271 122.85 116.473 122.205 118.164 121.976C122.832 121.35 127.428 120.042 131.776 118.093C133.046 117.525 134.36 116.847 135.034 115.515C135.378 114.841 135.473 114.034 135.234 113.318C134.838 112.124 133.811 111.871 132.851 111.795C127.729 111.379 123.085 114.784 118.676 117.659C118.231 117.95 117.692 118.251 117.214 117.941C116.827 117.688 116.698 117.148 116.836 116.685C117.07 115.892 117.773 115.496 118.437 115.152C124.972 111.78 132.449 109.154 136.233 102.392C136.582 101.771 136.653 100.993 136.338 100.358C135.621 98.9203 133.897 99.5363 132.745 100.31C127.7 103.696 123.305 108.743 117.462 109.885C117.07 108.915 117.916 107.898 118.7 107.239C124.184 102.664 131.054 99.8181 135.234 93.8203C135.492 93.4526 135.598 92.9703 135.478 92.5309C135.273 91.786 134.685 91.743 134.16 91.7525C131.288 91.8003 128.431 92.8652 126.138 94.7371C123.812 96.633 121.848 99.4361 119.101 100.214C118.709 100.324 118.346 99.9566 118.403 99.522C118.814 96.5135 121.643 94.3312 124.017 92.4068C127.165 89.8567 129.989 86.8387 132.378 83.4768C132.702 83.0184 132.965 82.5027 133.109 81.9487C133.878 78.9689 131.188 78.0043 129.382 78.797C128.083 79.3653 127.137 80.5782 126.248 81.7481C123.845 84.9046 121.447 88.0612 119.044 91.2177C118.833 91.4947 118.551 91.7191 118.227 91.8051C117.548 91.9913 117.276 91.5663 117.109 91.1413C116.736 90.2149 116.712 89.1499 117.047 88.1996C117.907 85.7499 119.899 84.4462 121.662 82.9324C123.893 81.0175 125.818 78.7015 127.333 76.1085C127.949 75.0531 128.517 73.7446 127.801 72.6272C127.347 71.9252 126.535 71.6148 125.737 71.6865C124.299 71.8106 123.224 72.8708 122.221 73.8927C119.612 76.5382 117.004 79.1838 114.395 81.8341C113.764 77.8897 116.196 74.1362 118.762 71.1898C121.332 68.2434 124.304 65.34 125.173 61.429C125.388 60.4739 125.455 59.3947 124.562 58.6832C123.859 58.1244 122.899 58.1101 122.106 58.5399C120.486 59.4138 119.903 61.2619 119.173 62.9094C117.992 65.5645 116.254 67.9426 114.118 69.8049C113.731 70.144 113.172 70.23 112.742 69.9626C112.111 69.571 112.25 68.7735 112.455 68.1383C113.688 64.3276 116.397 61.2952 118.389 57.8665C119.86 55.3308 120.926 52.203 120.606 49.3569C120.472 48.1439 118.991 47.7906 118.389 48.8412C116.206 52.6519 113.846 56.3528 111.323 59.92C111.099 60.2351 110.821 60.5073 110.482 60.6649C109.584 61.0851 109.063 60.4787 108.772 59.8435C107.487 57.0643 109.431 53.8934 110.979 51.2431C112.532 48.5832 113.764 45.7085 114.624 42.7143C114.921 41.6924 114.887 40.6036 114.51 39.6199C114.19 38.7842 113.855 37.9581 112.747 38.4786C111.973 38.8415 111.443 39.6151 111.261 40.4986C110.439 44.5194 109.226 48.4495 107.654 52.2125C107.377 52.8763 107.066 53.5688 106.417 53.903C106.097 54.0654 105.714 54.0893 105.404 53.9126C104.811 53.5688 104.811 52.7903 104.912 52.1361C105.743 46.5824 110.444 42.1652 110.702 36.5541C110.731 35.8999 110.626 35.1215 110.076 34.8398C109.718 34.6583 109.288 34.7634 108.92 34.9257C106.684 35.9047 105.499 38.7174 104.845 40.9522C104.482 42.1843 103.98 43.359 103.345 44.4621C103.134 44.8298 102.881 45.231 102.404 45.231C101.974 45.231 101.615 44.8967 101.467 44.4717C101.243 43.8175 101.467 43.1155 101.739 42.4899C103.244 38.9514 106.082 36.005 106.56 32.1178C106.612 31.688 106.574 31.2392 106.378 30.8619C105.905 29.9641 105.069 30.1074 104.415 30.4369C101.811 31.7358 101.018 35.2695 99.451 37.7623C99.1261 38.278 98.4669 38.4022 98.0608 37.9629C97.6547 37.5235 97.9461 36.8884 98.2232 36.4013C99.4032 34.3145 100.297 32.0509 100.87 29.6967C101.056 28.9374 101.209 28.1208 100.87 27.3902C100.708 27.0464 100.43 26.7646 100.082 26.6643C99.4367 26.4733 98.9685 26.9413 98.572 27.3854C97.8744 28.1781 97.2295 29.0186 96.6418 29.9021C96.4125 30.2459 95.9156 30.1456 95.8058 29.7397C95.5287 28.7321 95.7294 27.5621 96.1498 26.5784C96.6992 25.2938 97.5783 24.2051 98.2376 22.9826C98.5338 22.4286 98.7965 21.7839 98.4095 21.1536C98.1945 20.805 97.8267 20.5901 97.4349 20.5376C96.6036 20.4325 95.8774 20.9674 95.3471 21.6168C94.9984 22.0418 94.6353 22.5766 94.0429 22.4334C93.6559 22.3379 93.3884 21.975 93.3024 21.5595C92.8151 19.2196 95.2038 17.5959 95.7771 15.4231C95.9013 14.9504 95.7915 14.4251 95.4332 14.1242C94.363 13.2169 93.0253 15.4375 91.9169 14.7212C91.4248 14.406 91.3197 13.6897 91.6016 13.1501C92.1319 12.1281 93.183 11.9276 94.0668 11.4501C94.7691 11.068 95.4379 10.3183 95.2755 9.50173L93.89 9.21994C93.6177 9.16264 93.4983 8.81406 93.6798 8.58962C94.3582 7.73006 94.9458 6.78931 95.4188 5.78649C95.6147 5.38058 95.2946 4.89345 94.8742 4.96986C94.4012 5.05104 93.9378 5.23251 93.5269 5.50948C93.4171 4.00046 94.6735 2.64908 94.2866 1.07321C94.1814 0.638649 93.8996 0.261373 93.5126 0.094235C92.2943 -0.426279 91.4344 1.32149 91.6637 2.59174C91.8835 3.79991 92.6383 2.90213 92.6049 4.13417C91.9073 3.98136 91.2624 4.72635 91.1764 5.48086C91.0904 6.23536 91.3961 6.96602 91.6971 7.65367L89.8721 7.15701C89.318 7.0042 88.8354 7.59634 89.0504 8.16461L90.3737 11.6315C89.3896 11.6315 88.4198 11.259 87.6554 10.6096C87.0391 10.0891 86.1314 10.6764 86.289 11.5026C86.4658 12.4385 87.0438 13.3984 87.6888 14.0861C88.8306 15.299 90.2878 16.5979 90.1444 18.3218C89.0838 18.0592 88.0567 17.6437 87.0964 17.0897C86.4084 16.6886 85.5628 17.3667 85.7587 18.1785C86.0358 19.3389 87.0773 20.4803 88.1283 21.1202C89.7288 22.0943 91.7402 23.1735 91.7975 25.1458C90.3499 24.2575 88.6778 23.7944 87.0056 23.7991C86.1361 23.7991 85.644 24.8975 86.2126 25.5899C88.2048 28.0397 92.9202 28.3501 94.2436 31.5734C92.0125 32.9487 89.4039 30.0357 86.8575 30.3987C86.2603 30.4846 85.6345 30.7855 85.5915 31.6355C85.5676 32.1322 85.7683 32.6144 86.0931 32.9678C88.6395 35.7471 93.3167 34.6631 95.7532 37.4376C96.1498 37.8913 96.489 38.5455 95.9635 39.1471C95.5908 39.5769 94.9888 39.6485 94.492 39.4145C92.3182 38.3831 89.982 37.7432 87.6028 37.5283C86.8623 37.4614 85.9737 37.4997 85.6775 38.3783C85.4721 38.9896 85.6822 39.6676 86.1409 40.0879C87.8799 41.6924 90.0489 42.7573 92.3278 43.1346C94.8551 43.5548 97.97 43.4211 99.279 45.7562C99.5752 46.2815 99.7329 47.0074 99.0832 47.4372C98.6437 47.7285 98.0704 47.6759 97.6547 47.356C95.2039 45.4745 92.0507 44.6818 89.0552 45.1689C87.9994 45.3408 86.7524 45.89 86.8145 47.165C86.8384 47.6569 87.0677 48.1057 87.3878 48.4495C89.9677 51.2288 93.9378 51.2431 97.4493 52.0931C100.789 52.9002 104.439 55.5123 104.047 59.1559C101.157 56.8303 97.9366 54.9679 94.5302 53.6404C93.0587 53.0673 90.8133 53.0196 90.5696 54.7387C90.5123 55.1542 90.6127 55.5744 90.7751 55.9516C91.9504 58.621 94.5971 60.0919 97.2104 60.9753C99.7233 61.8253 102.384 62.2933 104.697 63.6352C107.009 64.9771 108.977 67.5128 108.748 70.3303C106.34 69.2558 103.932 68.1814 101.524 67.1069C100.626 66.7058 99.5896 66.3046 98.7439 67.0735C98.2375 67.5367 98.0417 68.2768 98.1563 68.974C98.3809 70.3732 99.4702 71.2328 100.579 71.844C103.244 73.3244 106.331 73.8402 108.925 75.459C111.519 77.0779 113.588 80.5066 112.341 83.453C107.788 83.3813 105.117 76.4188 100.583 76.9632C99.7854 77.0587 98.9637 77.4264 98.806 78.5916C98.6675 79.6135 99.0736 80.6355 99.7902 81.3183C103.345 84.7041 107.214 87.7078 111.323 90.2865C112.355 90.9311 113.468 91.6284 113.803 92.932C113.989 93.6627 113.798 94.4841 113.21 94.9234C112.508 95.4487 111.753 95.1192 111.132 94.718C107.726 92.5261 105.824 87.9132 101.997 86.7384C100.516 86.2848 98.4908 86.6907 98.3666 88.639C98.314 89.4508 98.6436 90.2339 99.1644 90.8261C103.593 95.8784 109.675 99.1543 113.526 104.718C114.452 106.055 115.269 107.659 114.811 109.359C114.572 110.238 113.922 110.964 113.086 111.16C112.03 111.403 111.314 110.701 110.745 109.966C108.012 106.442 106.933 101.136 103.703 98.5049C103.005 97.9366 102.012 98.5383 102.103 99.4743C102.752 106.227 107.616 111.885 110.922 117.864C111.443 118.805 111.939 119.813 111.973 120.911C112.025 122.515 110.788 124.344 108.815 123.251C108.332 122.983 107.941 122.568 107.621 122.1C103.751 116.432 104.042 108.285 99.6947 103.07C99.3985 102.717 99.045 102.354 98.4908 102.602C98.0274 102.807 97.7455 103.338 97.7741 103.877C98.1516 111.699 102.423 118.447 105.275 125.581C105.743 126.751 106.14 128.241 105.179 129.148C104.573 129.726 103.674 129.745 102.963 129.339C101.716 128.633 101.243 127.205 100.822 125.853C98.5289 118.518 96.2406 111.183 93.9474 103.849C93.6034 102.745 93.2164 101.575 92.237 100.955C91.7401 100.639 91.1143 100.563 90.584 100.826C89.8148 101.208 89.7001 102.02 89.6667 102.769C89.2749 111.518 96.5033 118.366 98.7249 126.765C98.8348 127.19 98.7965 127.658 98.5767 128.031C98.1993 128.68 97.6499 128.585 97.1626 128.451C95.8918 128.093 94.6926 127.448 93.6655 126.57L93.0587 127.706L93.0444 127.692Z" fill="#69814F"/>
<path d="M36.5885 224.67C35.141 222.621 34.6154 219.67 34.3909 217.101C34.8639 218.156 35.4037 219.288 36.5073 219.651C37.1379 219.856 37.8546 219.651 38.1938 219.04C38.6046 218.304 38.2272 217.535 37.8642 216.876C36.6937 214.737 35.5279 212.602 34.3574 210.463C35.0406 209.47 36.5455 210.707 36.8752 211.815C37.0615 212.435 37.3625 213.023 37.8546 213.395C38.9534 214.231 39.7751 213.352 39.9949 212.435C40.4679 210.449 38.834 208.706 37.5966 207.159C36.3592 205.611 35.5566 202.885 37.1475 201.786C38.1126 203.491 39.0776 205.191 40.0427 206.896C40.3389 207.421 40.7354 208.013 41.3565 207.875C41.7148 207.794 41.9967 207.493 42.14 207.13C43.922 202.55 37.6635 198.725 38.2846 194.012C38.3324 193.663 38.4518 193.272 38.7528 193.143C39.1684 192.961 39.5888 193.386 39.8516 193.783C41.3182 195.97 42.3646 198.644 44.481 200.067C45.0256 200.435 45.6897 200.717 46.3251 200.144C46.7981 199.719 46.9844 199.031 46.9175 198.367C46.4111 193.429 40.2003 190.536 41.1749 185.588C41.2466 185.216 41.4902 184.881 41.8342 184.791C42.2308 184.69 42.4792 184.987 42.6846 185.273C44.5526 187.89 45.4842 191.772 48.3985 192.737C48.6517 192.823 48.9431 192.875 49.1772 192.727C49.3875 192.594 49.4926 192.331 49.5595 192.083C50.3095 189.409 48.6039 186.706 46.9032 184.609C45.059 182.336 42.9474 179.758 43.5732 176.658C43.6688 176.186 43.9745 175.77 44.395 175.613C45.2071 175.307 45.7375 176.038 46.1388 176.682C47.6246 179.094 49.1151 181.505 50.6009 183.917C50.9354 184.456 51.2985 185.03 52.0295 185.039C52.8607 185.049 53.5344 184.342 53.6968 183.458C53.9691 182.002 53.1426 180.732 52.3591 179.6C51.1647 177.876 49.9703 176.152 48.776 174.428C47.9686 173.263 47.1134 171.964 47.4765 170.422C47.658 169.643 48.2647 169.027 49.0005 169.003C49.9321 168.975 50.4146 169.815 50.816 170.579C51.9721 172.79 53.1283 175.001 54.2844 177.212C54.5567 177.733 54.8625 178.287 55.5695 178.258C56.2718 178.229 56.8451 177.609 56.9455 176.854C57.3707 173.707 55.0345 171.444 53.7446 168.817C52.6649 166.621 52.297 164.023 52.7365 161.583C52.8321 161.043 53.1283 160.551 53.5821 160.317C54.6953 159.749 55.517 160.99 55.8562 162.079C56.8929 165.412 56.5059 169.175 57.8866 172.356C58.0252 172.671 58.2067 173.005 58.5173 173.101C58.9807 173.239 59.3963 172.762 59.6256 172.303C60.9442 169.662 60.1321 166.444 59.6018 163.497C58.9807 160.054 58.7944 156.521 59.0428 153.025C59.1479 151.535 59.3773 149.945 60.5047 148.961C61.1593 148.393 62.0717 148.221 62.7979 148.675C63.7056 149.243 63.7868 150.399 63.7486 151.43C63.5862 156.038 62.0001 160.627 62.9173 165.174C62.9938 165.556 63.1419 165.928 63.3712 166.234C64.3029 167.456 65.7504 166.692 66.5148 165.665C68.0532 163.602 68.1105 160.718 68.0961 158.063C68.0818 155.265 68.0675 152.471 68.0532 149.673C68.0388 146.664 68.3159 143.073 70.7333 141.607C71.1872 141.33 71.7271 141.144 72.2908 141.813C72.6443 142.228 72.7924 142.801 72.7781 143.364C72.6348 148.632 69.9642 154.061 71.7367 158.985C71.9182 159.481 72.1666 160.002 72.888 159.93C73.2511 159.897 73.5855 159.691 73.8578 159.429C75.9504 157.409 76.7578 154.252 76.8486 151.234C76.9537 147.677 76.1988 144.152 76.2322 140.59C76.2418 139.396 76.6479 138.241 77.3597 137.338C77.5604 137.085 77.8327 136.798 78.1576 136.803C78.4347 136.803 78.6688 137.013 78.8599 137.233C81.9318 140.771 78.4729 147.672 81.7168 151.024C83.2743 150.652 84.2823 148.894 84.4352 147.17C84.5881 145.447 84.0817 143.747 83.58 142.104L81.4254 135.051C81.2199 134.372 81.1578 133.647 81.3155 132.954C81.8171 130.738 83.7042 130.853 85.2378 130.404C86.4179 130.056 87.9514 128.322 87.3399 127.171C84.8079 128.145 82.271 129.124 79.739 130.099C79.395 130.232 79.0271 130.366 78.6735 130.275C78.3104 130.184 78.0334 129.879 77.7801 129.588C74.8038 126.149 71.3735 122.081 67.0451 122.52C66.6486 122.558 66.1995 122.687 66.0323 123.079C65.8316 123.547 66.1613 124.067 66.4861 124.445C68.2634 126.531 70.4276 128.231 72.8116 129.406C74.0967 130.036 75.7258 131.474 74.8468 132.668C68.6073 130.447 61.8663 129.912 55.3976 131.125C54.7096 131.254 54.1124 131.784 53.9261 132.515C53.649 133.589 54.4134 134.22 55.1491 134.607C59.2004 136.746 64.2885 135.003 68.3637 137.085C68.8653 137.343 69.3909 137.71 69.3431 138.432C69.3145 138.833 69.0851 139.186 68.7698 139.401C68.0723 139.878 67.2601 139.726 66.4909 139.592C59.8932 138.441 53.0566 138.895 46.6404 140.934C45.4795 141.302 44.6148 142.448 44.6625 143.761C44.7437 145.981 47.3188 146.411 49.2441 146.306C53.4913 146.072 57.7433 145.833 61.9905 145.599C59.0094 148.775 54.2414 148.283 50.0659 148.226C46.4254 148.173 42.7802 148.617 39.2401 149.544C37.8259 149.916 36.3592 150.399 35.4467 151.726C34.8925 152.533 34.7062 153.603 35.0884 154.515C35.8576 156.358 38.2272 156.277 40.0474 155.914C44.438 155.04 48.8237 154.162 53.2143 153.288C51.8192 156.75 47.744 157.547 44.3376 158.311C39.6461 159.362 35.1028 161.21 30.9368 163.779C29.8571 164.443 28.7487 165.212 28.2757 166.506C28.0368 167.165 28.0225 167.915 28.3139 168.55C28.806 169.629 29.8284 169.767 30.7552 169.705C35.7047 169.385 39.4646 164.524 44.3042 163.354C44.8966 163.211 45.5559 163.13 46.0289 163.798C46.2821 164.156 46.3776 164.634 46.3155 165.083C46.1674 166.11 45.4222 166.807 44.6721 167.38C38.404 172.174 29.0831 172.408 25.2324 179.91C24.8645 180.631 24.7786 181.505 25.07 182.269C25.6242 183.726 27.1052 183.74 28.3092 183.439C32.6471 182.351 35.8576 178.473 39.4311 175.646C39.8516 175.312 40.4488 175.293 40.8501 175.655C41.5811 176.319 40.917 177.422 40.2433 178.024C35.7764 182.002 29.4175 183.353 25.8631 188.296C25.3041 189.074 24.7977 190.072 25.4044 191.042C25.7245 191.557 26.2644 191.854 26.8281 191.949C30.9272 192.651 33.445 187.202 37.3768 186.462C37.4055 189.666 34.6345 192.016 31.9687 193.391C29.1882 194.824 26.0064 195.975 24.4776 198.931C24.0572 199.747 23.9138 200.717 24.2196 201.59C24.6161 202.727 25.4569 202.894 26.2357 202.803C29.1738 202.45 30.7935 198.873 33.2778 197.221C33.7316 196.92 34.3479 196.997 34.6823 197.445C35.0789 197.976 34.7874 198.549 34.4864 199.002C32.1455 202.512 28.0464 204.48 26.422 208.486C26.293 208.806 26.2501 209.174 26.336 209.513C26.7182 211.017 28.7869 210.239 29.7663 209.14C30.7361 208.056 32.4847 206.905 33.2682 208.157L28.8012 211.91C27.9986 212.583 27.153 213.319 26.9666 214.47C26.8472 215.219 27.1482 216.012 27.7979 216.299C29.4127 217.015 30.7696 213.83 32.4226 214.393C32.7904 215.826 31.6056 217.172 30.4113 217.903C29.2169 218.634 27.8075 219.226 27.1865 220.549C26.5654 221.876 27.7119 224.001 28.9445 223.347C29.4796 223.065 30.1294 222.373 30.502 222.879C30.287 224.102 29.0687 224.722 28.1515 225.467C27.2342 226.212 26.5415 227.831 27.4492 228.59L29.0496 228.323C29.4414 229.827 28.4716 231.288 27.8075 232.673C27.6307 233.041 27.4826 233.461 27.3919 233.891C27.0956 235.276 28.8777 236.021 29.5083 234.774C30.6358 232.535 31.1756 229.942 31.0227 227.392C31.9114 227.096 32.5181 228.567 32.4847 229.459C32.4608 230.033 32.6184 230.61 33.0102 230.992C34.0421 232.005 35.0741 230.586 34.9116 229.479C34.7779 228.547 34.1568 227.798 33.722 226.981C32.9768 225.601 32.7331 223.911 33.0532 222.349C33.6695 222.593 33.9848 223.314 34.2285 223.973C34.4721 224.632 34.754 225.362 35.3512 225.653C35.9484 225.945 36.8418 225.348 36.5981 224.689L36.5885 224.67Z" fill="#51603C"/>
<path d="M229.17 73.7636C227.053 71.9298 224.005 71.2661 221.344 70.9796C222.438 71.5813 223.609 72.2641 223.976 73.6633C224.187 74.4608 223.977 75.3681 223.341 75.7979C222.577 76.3136 221.784 75.8409 221.105 75.3824C218.893 73.9021 216.686 72.4217 214.474 70.9413C213.447 71.8104 214.727 73.7111 215.869 74.1313C216.509 74.3653 217.116 74.7473 217.503 75.3729C218.368 76.7673 217.46 77.8036 216.509 78.0805C214.46 78.6774 212.654 76.6097 211.053 75.0434C209.453 73.4771 206.634 72.4599 205.502 74.4751C207.26 75.6976 209.023 76.9153 210.781 78.1378C211.321 78.5151 211.932 79.0117 211.789 79.7996C211.708 80.2533 211.397 80.6114 211.02 80.7929C206.285 83.0516 202.334 75.1246 197.461 75.9125C197.103 75.9698 196.697 76.1226 196.563 76.5046C196.372 77.0347 196.816 77.5648 197.222 77.8991C199.482 79.7519 202.244 81.0794 203.715 83.7632C204.093 84.4556 204.384 85.2961 203.796 86.0983C203.357 86.6952 202.65 86.934 201.962 86.8481C196.859 86.2082 193.864 78.3432 188.757 79.5752C188.37 79.6707 188.026 79.9763 187.935 80.4109C187.83 80.9123 188.136 81.2275 188.432 81.4854C191.136 83.8492 195.149 85.0286 196.143 88.72C196.229 89.0447 196.286 89.4124 196.133 89.7037C195.995 89.9664 195.727 90.1001 195.464 90.1908C192.698 91.1364 189.903 88.9826 187.739 86.8242C185.393 84.489 182.723 81.8149 179.522 82.6123C179.035 82.7317 178.605 83.1185 178.442 83.6533C178.127 84.6848 178.882 85.3534 179.551 85.8595C182.044 87.741 184.533 89.6273 187.027 91.5088C187.586 91.9338 188.179 92.3922 188.188 93.3187C188.198 94.3692 187.467 95.2241 186.554 95.4342C185.049 95.778 183.736 94.7322 182.565 93.7389C180.783 92.2251 179.001 90.7161 177.224 89.2023C176.015 88.1804 174.673 87.1012 173.082 87.5548C172.279 87.784 171.639 88.5529 171.615 89.4841C171.586 90.6636 172.456 91.2748 173.244 91.781C175.528 93.247 177.812 94.7083 180.1 96.1744C180.635 96.5182 181.213 96.905 181.18 97.7979C181.146 98.6862 180.511 99.412 179.727 99.541C176.474 100.081 174.138 97.1246 171.419 95.4867C169.15 94.1209 166.465 93.6577 163.938 94.2116C163.383 94.3358 162.872 94.7035 162.629 95.2861C162.041 96.6948 163.326 97.7359 164.454 98.1657C167.898 99.4789 171.787 98.987 175.074 100.735C175.399 100.907 175.748 101.141 175.843 101.532C175.986 102.12 175.494 102.645 175.021 102.936C172.293 104.603 168.964 103.576 165.92 102.908C162.361 102.124 158.711 101.881 155.095 102.196C153.556 102.33 151.908 102.616 150.895 104.049C150.307 104.88 150.131 106.031 150.599 106.952C151.186 108.103 152.381 108.203 153.446 108.161C158.209 107.955 162.953 105.945 167.65 107.105C168.046 107.205 168.428 107.387 168.744 107.678C170.01 108.862 169.217 110.691 168.156 111.661C166.025 113.609 163.044 113.681 160.302 113.667C157.412 113.647 154.521 113.628 151.631 113.614C148.521 113.595 144.813 113.948 143.294 117.009C143.007 117.587 142.816 118.27 143.504 118.981C143.934 119.43 144.527 119.617 145.11 119.597C150.551 119.416 156.165 116.035 161.253 118.279C161.769 118.509 162.304 118.824 162.232 119.741C162.194 120.204 161.988 120.624 161.716 120.968C159.628 123.614 156.365 124.636 153.246 124.75C149.572 124.884 145.926 123.929 142.243 123.967C141.01 123.981 139.816 124.492 138.88 125.395C138.617 125.648 138.325 125.996 138.325 126.402C138.325 126.751 138.545 127.052 138.77 127.291C142.425 131.183 149.557 126.804 153.021 130.91C152.634 132.883 150.819 134.158 149.041 134.353C147.264 134.549 145.501 133.904 143.805 133.269L136.515 130.538C135.817 130.275 135.062 130.199 134.346 130.399C132.057 131.039 132.172 133.422 131.709 135.366C131.35 136.856 129.554 138.799 128.369 138.03C129.377 134.821 130.385 131.612 131.393 128.408C131.532 127.974 131.67 127.51 131.575 127.061C131.479 126.603 131.164 126.254 130.863 125.93C127.309 122.162 123.104 117.816 123.558 112.339C123.601 111.838 123.73 111.264 124.136 111.054C124.619 110.801 125.159 111.222 125.55 111.627C127.71 113.877 129.463 116.613 130.677 119.631C131.331 121.255 132.817 123.322 134.05 122.21C131.756 114.311 131.202 105.778 132.459 97.5831C132.592 96.7092 133.142 95.9594 133.897 95.7207C135.005 95.3721 135.66 96.3415 136.061 97.2727C138.268 102.401 136.472 108.843 138.622 114.006C138.884 114.641 139.267 115.309 140.012 115.242C140.428 115.209 140.791 114.913 141.01 114.516C141.503 113.633 141.345 112.602 141.206 111.632C140.017 103.275 140.49 94.6224 142.597 86.4995C142.979 85.0287 144.164 83.9351 145.52 83.9972C147.814 84.0975 148.263 87.3638 148.153 89.7944C147.909 95.1715 147.665 100.553 147.422 105.93C150.704 102.153 150.198 96.1218 150.135 90.8355C150.083 86.2273 150.542 81.6095 151.497 77.1255C151.879 75.3299 152.381 73.4771 153.757 72.3262C154.588 71.629 155.696 71.3855 156.642 71.8726C158.549 72.8467 158.463 75.8504 158.09 78.1521C157.187 83.7106 156.279 89.2644 155.376 94.8229C158.955 93.056 159.781 87.8987 160.565 83.5817C161.649 77.6412 163.56 71.8917 166.212 66.6149C166.9 65.2443 167.693 63.8451 169.03 63.2482C169.709 62.9426 170.488 62.9283 171.142 63.296C172.255 63.9215 172.399 65.2109 172.336 66.3857C172.002 72.6557 166.981 77.4119 165.772 83.5435C165.624 84.298 165.538 85.129 166.231 85.7259C166.603 86.0506 167.091 86.17 167.559 86.0888C168.62 85.8978 169.341 84.957 169.933 84.0067C174.888 76.0701 175.127 64.2702 182.885 59.3945C183.63 58.9265 184.533 58.8215 185.322 59.1892C186.827 59.8911 186.841 61.7679 186.53 63.2865C185.403 68.7781 181.399 72.842 178.476 77.369C178.132 77.9038 178.108 78.6584 178.485 79.1645C179.173 80.091 180.315 79.2457 180.931 78.3957C185.04 72.7416 186.44 64.6904 191.547 60.192C192.354 59.4805 193.386 58.8453 194.385 59.6094C194.915 60.0153 195.221 60.6982 195.321 61.4145C196.047 66.6053 190.415 69.7905 189.65 74.7712C192.961 74.8094 195.393 71.2995 196.812 67.9233C198.293 64.4039 199.482 60.3735 202.535 58.4347C203.376 57.8998 204.384 57.7231 205.287 58.1052C206.462 58.6066 206.634 59.6715 206.539 60.6552C206.176 64.3752 202.478 66.4238 200.767 69.5708C200.457 70.1438 200.538 70.927 201.002 71.352C201.546 71.8534 202.143 71.4858 202.612 71.1037C206.238 68.143 208.273 62.9474 212.415 60.894C212.749 60.7269 213.127 60.6743 213.48 60.7841C215.033 61.2712 214.23 63.8882 213.098 65.1297C211.975 66.357 210.791 68.5727 212.08 69.566C213.375 67.6798 214.665 65.7935 215.96 63.9072C216.657 62.8901 217.417 61.8204 218.602 61.5816C219.376 61.4288 220.198 61.8108 220.494 62.6322C221.234 64.676 217.943 66.3952 218.525 68.4916C220.006 68.9595 221.397 67.4601 222.156 65.9463C222.916 64.4373 223.523 62.6465 224.894 61.8586C226.265 61.0706 228.463 62.5271 227.784 64.0839C227.493 64.7572 226.781 65.5834 227.297 66.0514C228.563 65.7792 229.203 64.2415 229.972 63.0715C230.741 61.9064 232.414 61.0325 233.202 62.1833L232.925 64.2129C234.477 64.7095 235.992 63.4822 237.42 62.637C237.803 62.4125 238.237 62.2263 238.682 62.1117C240.115 61.7344 240.884 63.9979 239.594 64.7907C237.277 66.2185 234.602 66.9061 231.964 66.7056C231.659 67.8326 233.178 68.6014 234.1 68.5584C234.692 68.5298 235.29 68.7256 235.686 69.2222C236.732 70.5259 235.27 71.8343 234.119 71.629C233.154 71.4571 232.385 70.6739 231.539 70.12C230.111 69.1792 228.367 68.8688 226.752 69.2699C227.001 70.0483 227.746 70.4495 228.429 70.7599C229.112 71.0703 229.862 71.4284 230.163 72.1829C230.464 72.9374 229.848 74.074 229.17 73.7588V73.7636Z" fill="#51603C"/>
<path d="M146.041 129.253C147.737 129 148.822 127.152 148.946 125.342C149.075 123.533 148.483 121.737 147.995 119.965C146.93 116.093 146.347 112.091 146.261 108.103C146.242 107.134 146.686 106.208 147.503 105.802C149.495 104.799 150.981 107.841 151.316 110.09C151.65 112.334 151.985 114.579 152.319 116.823C152.601 118.714 152.911 120.696 154.225 122.162C154.803 122.807 155.549 123.265 156.37 123.37C158.539 123.647 159.6 121.57 159.6 119.66C159.6 118.175 159.108 116.723 158.793 115.257C157.913 111.222 158.386 106.929 160.135 103.347C160.503 102.597 161.004 101.805 162.06 102.072C162.514 102.187 162.916 102.483 163.216 102.87C166.36 106.876 165.978 112.692 164.793 117.277C164.406 118.767 164.745 120.429 165.792 121.584C167.937 123.958 170.631 121.895 171.243 119.507C171.74 117.568 171.343 115.472 171.343 113.442C171.343 110.94 171.964 108.466 173.13 106.341C173.765 105.186 174.811 103.992 176.235 104.646C176.632 104.827 176.971 105.143 177.224 105.515C180.836 110.787 173.259 117.353 175.863 122.907C178.552 120.806 179.713 117.229 181.075 113.987C182.498 110.596 184.653 107.067 188.236 106.523C188.642 106.461 189.068 106.494 189.44 106.685C191.012 107.478 190.448 109.66 189.655 111.064C187.911 114.144 185.814 116.99 183.43 119.536C182.527 120.5 181.524 121.532 181.567 122.988C181.591 123.867 182.135 124.693 182.957 124.874C183.688 125.037 184.151 124.574 184.581 124.134C188.542 120.104 192.856 116.46 197.452 113.256C198.216 112.726 199.201 112.578 200.08 112.946C201.408 113.495 201.522 114.751 201.322 115.816C200.319 121.135 193.224 122.616 191.528 127.706C197.643 126.498 200.706 117.826 207.193 118.213C207.724 118.246 208.254 118.437 208.655 118.819C209.711 119.813 209.243 121.226 208.636 122.277C207.27 124.655 205.239 126.579 202.846 127.759C201.847 128.251 200.763 128.633 199.955 129.416C199.148 130.199 198.694 131.55 199.282 132.587C202.459 130.519 205.712 128.58 209.037 126.78C209.835 126.35 210.71 125.911 211.651 126.436C212.606 126.971 213.046 128.165 212.821 129.249C212.401 131.288 210.648 132.243 209.071 133.203C207.743 134.01 206.367 135.046 206.032 136.636C206.821 138.078 208.87 137.009 209.835 135.772C210.8 134.535 212.506 133.136 213.633 134.311C215.349 136.097 211.527 139.587 213.409 141.173C214.613 139.845 215.817 138.518 217.021 137.19C217.331 136.846 217.67 136.488 218.119 136.407C218.248 136.383 218.392 136.407 218.511 136.474C221.813 138.365 217.723 141.201 218.874 143.637C219.644 144.745 221.22 143.642 221.856 142.505C222.491 141.369 223.671 139.979 224.746 140.753C226.432 141.961 223.814 145.652 225.673 146.497C227.818 147.471 227.928 141.33 230.441 142.739C231.219 143.174 231.525 144.143 231.296 145.012C231 146.125 231.745 148.398 232.978 147.997C234.654 147.629 233.283 143.957 234.922 143.451C235.997 143.121 236.742 144.644 237.043 145.81C237.344 146.975 238.314 148.441 239.293 147.887L240.082 145.37C240.378 144.434 241.491 144.186 242.098 144.926C242.681 145.638 243.259 146.335 244.085 146.607C244.955 146.894 245.882 146.488 246.431 145.776C246.856 145.232 247.692 145.518 247.707 146.235C247.74 147.596 247.081 148.976 245.891 149.482C246.784 149.511 247.53 150.59 247.281 151.478C247.028 152.366 245.862 152.763 245.117 152.213C244.176 151.516 243.756 149.663 242.671 149.945C243.106 151.01 243.488 152.194 242.982 153.274C242.69 153.899 242.055 154.3 241.391 154.143C240.364 153.899 240.101 152.653 239.666 151.702C239.255 150.809 238.003 150.055 237.507 150.852C237.779 152.562 237.172 155.126 235.61 154.549C233.952 153.937 233.943 150.189 232.323 150.766C232.681 151.917 232.538 153.197 231.998 154.224C231.64 154.907 230.713 154.849 230.431 154.124L228.969 150.361C228.831 150.007 228.573 149.706 228.233 149.582C227.182 149.2 226.743 150.814 226.647 151.946C226.547 153.073 225.252 154.357 224.684 153.364C224.779 151.521 224.048 149.616 222.754 148.307C222.792 150.265 221.903 152.147 220.499 153.355C219.768 153.98 218.702 153.345 218.831 152.342C219.161 149.716 218.855 146.927 216.681 145.853C216.605 148.594 215.525 151.234 213.739 153.145C213.098 153.827 211.99 153.488 211.828 152.529C211.675 151.616 211.914 150.504 212.267 149.635C212.869 148.159 213.471 146.173 212.257 145.098L209.592 150.915C209.434 151.258 209.209 151.569 208.899 151.76C207.485 152.648 206.3 150.451 206.74 149.014C207.146 147.682 208.24 146.726 208.722 145.428C209.205 144.129 208.512 142.104 207.184 142.252C206.443 144.492 205.703 146.731 204.962 148.971C204.723 149.692 204.456 150.461 203.553 150.604C202.607 150.757 201.68 150.041 201.413 149.052C200.815 146.851 202.234 145.241 202.898 143.389C203.438 141.88 203.161 139.668 201.661 139.181C200.6 142.515 199.535 145.853 198.474 149.186C198.312 149.702 198.011 150.318 197.485 150.279C197.228 150.26 197.003 150.069 196.817 149.873C195.197 148.14 195.34 145.342 196.076 143.126C196.683 141.306 197.61 139.587 198.03 137.72C198.183 137.042 197.548 136.45 196.969 136.76C195.842 137.367 195.087 138.838 194.796 140.232C194.342 142.414 194.437 144.874 192.741 146.43C191.862 147.233 190.539 147.376 189.574 146.607C188.681 145.891 188.685 144.883 188.848 143.981C189.22 141.87 190.348 140.027 190.921 137.978C191.327 136.522 191.365 134.788 190.759 133.427C190.415 132.653 189.369 132.711 189.068 133.504C188.083 136.063 187.252 138.694 186.588 141.378C186.483 141.808 186.301 142.219 186.029 142.558C184.333 144.654 181.839 141.956 181.992 139.726C182.131 137.754 183.368 136.13 183.979 134.287C184.591 132.443 184.19 129.788 182.365 129.22C179.637 132.973 180.21 138.322 179.551 143.064C179.493 143.474 179.412 143.909 179.13 144.186C178.868 144.439 178.485 144.506 178.122 144.496C175.447 144.439 173.746 141.106 173.737 138.284C173.727 135.366 174.816 132.558 174.563 129.631C174.525 129.196 174.429 128.757 174.2 128.384C173.402 127.085 171.978 127.735 171.534 128.766C171.185 129.573 171.271 130.519 171.362 131.417C171.673 134.487 171.983 137.558 172.294 140.628C172.528 142.944 169.948 144.229 168.304 142.615C165.261 139.63 163.771 134.716 165.323 130.758C165.634 129.965 166.054 129.105 165.543 128.26C164.984 127.339 163.823 127.219 163.054 127.883C161.678 129.067 161.96 130.987 162.271 132.677L164.22 143.155C164.44 144.344 163.995 145.58 163.016 146.153C161.864 146.827 160.809 146.048 160.078 145.165C158.066 142.725 157.636 139.22 158.21 136.14C158.558 134.268 159.237 132.334 158.262 130.495C157.751 129.526 156.695 128.938 155.716 129.234C154.789 129.511 154.526 130.376 154.402 131.207C153.695 135.796 155.926 141.555 152.706 144.635C152.338 144.988 151.889 145.284 151.378 145.299C150.604 145.318 149.93 144.687 149.462 144.014C146.457 139.754 148.349 133.929 150.341 129.263C148.75 129.039 147.107 129.669 146.07 130.901C145.879 129.994 145.463 129.922 146.032 129.249L146.041 129.253Z" fill="#839735"/>
<path d="M97.7262 138.905C95.4712 137.353 91.8021 127.606 92.6191 125.247C93.436 122.888 95.1894 120.858 96.6083 118.709C99.1404 114.87 100.612 110.539 100.913 106.15C101.013 104.656 98.7868 103.935 97.6976 105.119C94.4298 108.672 93.3548 113.92 90.2016 117.788C89.4086 118.762 88.3814 119.708 86.9147 119.822C86.2411 119.875 85.5484 119.684 85.0802 119.268C84.3014 118.571 84.5642 117.764 84.8413 117.029C87.8798 108.953 92.6334 100.482 89.4468 92.3973C89.3369 92.1251 89.165 91.8624 88.9165 91.6666C87.7174 90.7307 86.0644 91.9197 85.2856 93.0371C81.8363 97.9987 80.8569 104.02 81.6356 109.713C81.7742 110.73 81.3967 111.771 80.5224 112.478C78.6305 114.006 76.4329 112.621 75.9122 111.031C75.5156 109.823 75.8166 108.543 76.0507 107.306C77.4362 100.086 76.5476 92.5644 73.49 85.7213C73.2224 85.1292 72.6873 84.6278 71.985 84.4033C69.988 83.7586 68.7602 85.6067 68.4258 87.1396C66.9591 93.8108 70.9913 100.659 69.773 107.363C62.5925 100.721 64.5703 89.8711 58.6032 82.3738C58.2402 81.9154 57.729 81.5428 57.1032 81.3805C55.8992 81.0653 55.2065 81.7291 54.7526 82.412C52.9706 85.0671 53.6538 88.4146 54.9628 91.2559C56.4247 94.4172 58.6128 97.3923 58.9281 100.826C58.9998 101.614 58.5889 102.406 57.7672 102.793C55.8275 103.705 54.2127 101.49 53.649 99.7608C52.3686 95.8403 50.8733 91.9675 49.1772 88.1615C48.2695 86.1272 47.2185 84.0117 44.9348 82.8561C44.3185 82.5457 43.5398 82.4932 42.9092 82.7845C41.5189 83.4244 41.9776 84.9095 42.527 86.0078L49.5595 100.1C50.0802 101.146 49.6072 102.406 48.3937 102.889C46.9748 103.457 45.7566 102.421 45.0304 101.427C41.624 96.7715 41.4282 90.3009 36.2446 87.0106C35.2365 86.3707 33.8797 85.8789 32.7522 86.6573C32.2362 87.0154 31.9591 87.5598 31.9161 88.1233C31.8206 89.4174 32.7092 90.4728 33.5405 91.4756C36.7605 95.3723 39.6318 99.4744 42.1209 103.739C41.4902 104.512 40.1 103.734 39.4407 102.975C37.0854 100.258 34.7349 97.5403 32.3796 94.8231C30.1389 92.2397 27.024 89.341 23.3071 89.9809C22.9201 92.5835 24.2339 95.1861 26.0876 97.2872C27.9413 99.3932 30.3253 101.112 32.4847 102.994C33.1249 103.552 33.7794 104.178 33.746 104.999C33.7268 105.41 33.4736 105.811 33.0389 105.997C32.4035 106.265 31.8349 105.964 31.3524 105.658C28.7296 103.997 26.7183 101.728 24.1384 100.014C21.5586 98.2996 18.0041 97.1726 15.0038 98.2853C15.7586 103.137 21.9264 105.873 26.7278 108.38C27.4492 108.758 27.6594 109.56 27.11 110.104C26.6848 110.525 26.1354 110.41 25.6481 110.276C21.4486 109.125 17.512 106.79 13.0498 107.234C12.5004 107.292 11.9844 107.559 11.7599 107.984C11.435 108.61 11.9414 109.106 12.4383 109.488C14.8127 111.336 17.9372 112.487 21.162 112.693C21.6302 112.721 22.0936 112.85 22.4328 113.122C23.5316 113.987 22.3325 115.123 21.1715 115.166C20.1969 115.2 19.3083 114.755 18.4293 114.402C14.741 112.917 10.2454 112.922 6.58106 114.469C5.84533 114.779 5.38191 115.457 5.53001 116.14C5.69722 116.904 6.58107 117.162 7.36458 117.334C10.919 118.127 14.5691 118.614 18.2382 118.791C17.4021 120.801 14.3971 121.369 11.8745 121.479C9.21825 121.599 6.09854 121.747 4.76084 123.786C4.57929 124.063 4.4694 124.373 4.48373 124.688C4.53151 125.796 5.78322 126.145 6.8486 126.116C9.99698 126.04 13.1406 123.69 15.9641 124.874C12.6628 127.386 6.63361 126.933 4.56973 130.256C4.1923 130.868 3.99167 131.608 4.71307 132.238C5.30548 132.754 6.21798 132.897 7.03971 132.701C8.80739 132.281 9.77245 130.906 11.2248 130.084C12.4431 129.397 14.4305 129.306 15.0898 130.414C12.1516 133.919 5.01883 134.32 4.04899 138.795C3.92 139.396 4.2162 140.036 4.85161 140.332C5.51091 140.643 6.07465 140.356 6.58585 140.089C8.91249 138.862 11.2391 137.639 13.5658 136.412C13.7425 138.054 11.7742 139.21 10.1164 140.084C8.45863 140.963 6.66227 142.453 7.35023 144L14.0387 141.469C14.5929 144.41 8.36786 145.017 7.55091 147.968C7.47925 148.236 7.5079 148.527 7.68467 148.756C8.28663 149.534 9.66732 148.88 10.6037 148.388C11.5401 147.901 13.3938 148.345 12.8157 149.138C10.8378 148.861 8.76438 149.821 7.8041 151.282C7.33113 152.003 8.18632 152.844 9.1036 152.557C10.0591 152.261 11.1197 151.803 11.7742 152.39C12.2711 152.839 12.0943 153.555 11.4923 153.904C9.96355 154.792 8.22453 153.742 6.64796 154.515C6.13676 154.763 5.84533 155.274 6.01254 155.752C6.42818 156.936 8.8074 156.349 9.16571 157.801C9.36159 158.598 8.79783 159.372 7.93311 159.725C5.60646 160.675 2.99796 159.176 0.776418 160.661C-0.255522 161.353 -0.284209 162.442 0.843281 163.02C2.4533 163.841 4.16842 161.564 5.8931 162.027C6.81994 163.03 5.1096 164.902 6.34697 165.623C7.41235 166.239 8.53983 164.835 8.57327 163.746C8.60672 162.657 8.65927 161.201 9.91575 160.952C10.4747 161.96 11.091 163.025 12.4048 163.459C13.2075 163.722 14.1534 163.56 14.6598 162.972C15.5867 161.893 14.249 160.484 13.1979 159.472C12.1421 158.455 11.6452 156.42 13.2122 156.11C13.9098 157.275 14.6837 158.512 16.2794 158.918C17.2779 159.171 18.3863 158.842 18.8115 158.039C19.466 156.803 17.9276 155.556 16.6807 154.673C15.4194 153.78 14.3302 151.989 15.6679 151.177C17.1441 151.54 17.3973 153.503 19.165 153.56C20.4119 153.598 21.377 152.677 21.3387 151.621C21.2623 149.449 19.0599 148.412 17.5216 147.008C16.2794 145.877 15.5102 143.962 16.8097 142.878C18.5487 142.185 19.4277 145.485 21.5251 145.055C22.2321 144.912 22.7052 144.353 22.7577 143.742C22.8676 142.481 21.8022 141.598 20.8037 140.81C19.6284 139.883 18.4579 138.957 17.2827 138.031C16.7428 137.606 16.1647 137.119 16.3702 136.397C16.5851 135.652 17.5216 135.223 18.4149 135.376C21.0282 135.829 21.3579 138.46 23.6797 139.272C24.4394 139.535 25.3375 139.458 25.9061 138.957C27.0097 137.992 25.9777 136.474 24.9601 135.476L18.5439 129.191C17.9849 128.647 17.7604 127.893 18.028 127.21C18.7111 125.481 21.4247 126.197 22.4137 127.515C23.5364 129.01 23.6224 131.016 25.6433 132.018C26.5223 132.458 27.6929 132.334 28.3139 131.646C28.9111 130.992 28.6101 130.304 28.2566 129.707C26.4268 126.632 22.8532 124.483 21.2576 121.274C20.9518 120.663 21.2002 119.913 21.9121 119.626C22.6526 119.33 23.3071 119.793 23.7896 120.242C25.6242 121.947 26.9141 124.067 27.4683 126.326C27.7167 127.343 28.8251 128.088 30.0434 127.978C31.8111 127.821 31.9352 126.044 31.4288 124.812C30.4972 122.568 28.462 120.782 27.2103 118.652C25.9586 116.522 25.7436 113.557 27.9795 112.11C30.0195 112.955 30.2154 115.324 29.9622 117.229C29.7758 118.628 30.3539 120.3 31.3381 121.603C31.9305 122.387 33.3303 122.277 33.7602 121.417C34.6632 119.631 34.2237 117.277 33.8558 115.238C33.3733 112.587 33.7889 109.125 36.8131 108.304C38.705 111.847 35.7143 116.097 37.2526 119.813C37.4198 120.214 37.7351 120.572 38.1794 120.772C39.7608 121.484 41.1033 119.765 41.3613 118.361C42.1066 114.35 40.616 109.741 43.7118 106.561C43.9507 106.317 44.2421 106.103 44.5956 105.993C46.3251 105.458 47.3379 107.535 47.1851 109.025C46.7646 113.17 44.0319 117.005 44.1131 121.197C44.1227 121.551 44.2708 121.904 44.5574 122.162C45.3266 122.854 46.3538 122.415 47.0417 121.899C52.2874 117.969 50.386 109.369 56.549 106.547C57.2369 106.231 58.0491 106.012 58.8183 106.571C59.5014 107.067 59.769 107.865 59.6113 108.614C57.9966 116.384 52.6362 117.157 49.741 124.593C49.6216 124.903 49.5834 125.242 49.6789 125.557C50.1137 126.985 52.2396 126.67 53.5248 125.982C60.8343 122.047 58.5889 117.549 65.3252 112.821C66.1231 112.263 67.1454 111.938 68.1774 112.034C70.4658 112.248 70.8671 114.192 70.1553 115.553C69.6345 116.546 68.6456 117.306 67.6901 118.036C65.4733 119.727 58.2402 125.18 57.0888 128.537C56.2384 131.011 58.4074 131.407 60.0126 130.968C64.8284 129.655 72.8545 123.136 75.9886 121.47C76.4329 121.231 76.9441 121.083 77.4744 121.083C79.5478 121.092 79.7198 122.964 78.8121 123.986C78.1098 124.779 76.9776 125.194 75.917 125.619C71.3688 127.439 67.2171 129.96 63.7391 133.031C62.989 133.695 62.731 134.683 63.1992 135.509C63.8872 136.722 65.5546 136.593 66.8923 136.316C70.8241 135.495 74.5649 134.015 77.8232 131.98C80.0543 130.591 82.2232 128.881 84.9655 128.523C87.7078 128.16 93.3644 136.622 92.6621 138.89H97.7119L97.7262 138.905Z" fill="#839735"/>
<path d="M131.04 123.514C128.331 122.745 125.804 121.207 123.009 120.878C122.593 120.83 122.158 120.935 121.81 121.231C120.835 122.048 121.241 123.576 121.905 124.478C124.528 128.108 129.611 126.627 132.989 129.173C133.309 129.416 133.558 129.798 133.615 130.271C133.71 131.073 133.218 131.512 132.76 131.837C127.786 135.337 120.935 132.31 118.967 125.959C117.897 125.858 117.859 127.921 118.274 129.134C119.067 131.489 121.604 135.299 122.378 137.692H118.666C116.946 134.072 115.738 129.459 116.841 125.462C111.892 124.999 106.976 124.225 102.112 123.146C101.09 122.917 100 122.64 99.3125 121.637C98.8778 121.011 98.7105 120.147 99.0211 119.44C99.3937 118.595 100.206 118.476 100.937 118.495C103.98 118.557 106.851 120.2 109.871 120.696C112.895 121.183 116.617 119.899 117.558 116.37C111.858 115.577 106.24 114.073 100.813 111.924C100.34 111.738 99.924 111.341 99.7377 110.802C99.2743 109.479 100.54 108.543 101.63 108.271C104.659 107.497 107.807 108.514 110.879 109.197C113.951 109.875 117.386 110.119 119.999 108.018C117.266 105.601 113.726 104.828 110.406 103.682C106.909 102.483 103.249 100.544 101.749 96.7574C101.582 96.3419 101.572 95.8548 101.787 95.4776C102.203 94.7517 102.982 94.9762 103.607 95.2197C107.711 96.8242 111.806 98.4383 115.895 100.067C118.074 100.941 120.348 101.824 122.665 101.504C123.095 101.442 123.563 101.318 123.683 100.64C123.797 99.9807 123.429 99.36 122.88 99.1546C117.305 97.063 112.135 93.6582 107.788 89.2887C107.449 88.9544 107.214 88.496 107.186 87.9994C107.128 87.0061 107.816 86.6766 108.466 86.562C110.506 86.1991 112.46 87.4741 114.185 88.7013L123.315 95.4059C124.361 96.1938 125.823 96.0458 126.688 94.9475C128.106 93.1376 126.434 91.0938 125.02 89.771C120.869 85.9603 117.558 81.0989 115.47 75.7696C115.265 75.2587 115.269 74.6665 115.527 74.1747C116.034 73.2292 116.994 73.382 117.773 73.6494C123.539 75.6742 126.21 82.3883 130.371 87.0538C130.591 87.3069 130.834 87.56 131.145 87.646C131.618 87.7701 132.12 87.4502 132.464 87.049C133.438 85.9029 133.51 84.1361 133.056 82.7178C132.597 81.3091 131.709 80.1439 130.93 78.9309C129.277 76.4048 128.049 73.5682 127.337 70.6027C127.113 69.6906 127.323 68.6783 127.982 67.9906C128.928 66.9973 129.974 67.3603 130.753 67.9285C133.782 70.1729 133.567 74.9769 135.364 78.4248C135.822 79.3178 136.467 80.1725 137.623 80.1009C138.813 80.0293 139.835 79.0551 140.232 77.8183C140.953 75.5595 139.983 73.487 139.281 71.467C138.201 68.4299 137.709 65.1588 137.848 61.9068C137.881 61.1189 138.345 60.3548 139.085 60.0635C139.907 59.7436 140.495 60.2689 140.901 60.8371C142.793 63.5161 142.114 67.4223 143.184 70.6266C143.452 71.448 143.887 72.2884 144.833 72.3839C145.769 72.4794 146.672 71.7966 147.068 70.851C147.828 69.0555 147.116 67.3602 146.667 65.6984C145.888 62.9048 145.85 59.8629 146.552 56.9738C146.724 56.2671 147.584 55.9901 148.057 56.4772C149.648 58.1247 150.537 60.479 150.432 62.9192C150.384 63.9841 150.164 65.0919 150.652 66.0518C150.843 66.4338 151.163 66.7395 151.559 66.8541C152.424 67.1072 153.045 66.4577 153.456 65.7796C155.806 61.8638 152.844 57.3033 152.897 53.0246C152.902 52.4468 153.203 51.8594 153.723 51.5586C154.894 50.8852 155.84 52.2701 156.217 53.4258L158.057 59.1848C158.167 59.5382 158.401 59.8438 158.74 59.9632C159.805 60.35 160.512 58.5401 160.302 57.3845C159.762 54.5049 157.698 51.7114 159.022 48.9608C159.17 48.6552 159.375 48.3447 159.681 48.1967C160.121 47.9818 160.617 48.1728 160.961 48.4546C162.719 49.9111 161.969 53.2204 164.014 54.5861C164.688 55.0398 165.624 55.0398 166.307 54.4429C167.158 53.7027 167.038 52.6139 166.885 51.6827C166.508 49.4192 166.116 47.17 165.72 44.9352C165.615 44.3526 165.519 43.6888 166.059 43.1921C166.565 42.7241 167.301 42.7337 167.793 43.1014C168.825 43.875 168.744 45.2694 169.274 46.3439C169.274 46.3534 169.284 46.363 169.289 46.3678C169.805 47.3801 171.438 46.449 171.037 45.3745L169.484 41.3297C169.25 40.728 169.886 40.0547 170.516 40.2314C171.849 40.6087 173.053 41.3154 173.99 42.2848C175.012 41.7929 175.084 40.3126 174.577 39.4339C173.999 38.4359 172.953 37.753 172.762 36.5401C172.652 35.8668 172.939 35.1122 173.574 34.7206C175.022 33.8277 175.963 36.3109 177.038 35.4513C177.429 35.1361 177.539 34.6013 177.353 34.2002L175.91 31.1821C175.576 30.4992 176.364 29.6588 177.109 29.9023L178.81 30.4563C177.907 29.5776 177.09 28.613 176.378 27.5815C175.963 26.9846 176.608 26.0964 177.386 26.1919L179.063 26.3972C177.926 25.2225 177.334 23.5607 177.448 21.8511C179.078 22.0994 180.291 23.403 180.468 24.9693C180.826 23.914 182.355 22.4289 183.492 22.8157C183.717 22.8921 183.908 23.0354 184.018 23.2312C184.567 24.2197 183.42 25.4851 182.589 26.4927C181.758 27.5003 181.462 29.377 182.685 29.4152C183.826 29.4487 184.768 27.5958 185.843 27.8632C186.478 29.2624 185.169 31.0436 183.836 32.204C182.756 33.1495 181.5 34.1237 180.922 35.3367C180.669 35.8668 181.127 36.3729 181.681 36.201C183.22 35.7187 184.925 33.5889 186.148 34.3243C186.994 34.8353 186.903 35.9288 186.072 36.7168C184.252 38.4407 181.958 37.3662 180.033 38.603C179.737 38.794 179.469 39.0424 179.278 39.3384C178.318 40.7949 179.493 41.9935 180.759 42.0795C181.753 42.1464 182.78 41.707 183.755 41.2772C184.639 42.1272 183.435 43.9371 182.135 44.3048C180.368 44.8062 178.619 43.8702 176.808 44.8731C176.073 45.279 175.566 46.0908 175.686 46.8692C175.872 48.1012 177.334 48.2158 178.495 48.3113C179.694 48.4116 181.146 49.1804 180.487 50.5319C180.019 51.4869 178.915 51.8833 178.046 51.5395C176.426 50.8996 174.463 51.0762 172.771 51.9597C172.442 52.1316 172.131 52.3608 171.931 52.6808C171.104 53.994 172.724 55.1831 174.033 55.6415C175.337 56.1047 176.761 57.6663 175.676 58.7933C175.409 59.0702 175.055 59.223 174.706 59.266C172.102 59.5716 170.488 56.6825 167.698 57.2603C166.742 57.4561 165.911 58.2775 165.811 59.2756C165.677 60.5983 166.871 61.2669 167.975 61.5248C169.107 61.7874 170.397 61.8829 171.023 62.9717C171.4 63.6355 171.266 64.5857 170.607 65.0872C170.12 65.4596 169.666 65.3116 169.236 65.1636C167.97 64.729 166.699 64.2993 165.433 63.8695C164.167 63.4397 162.839 63.0099 161.43 63.5209C160.742 63.7692 160.116 64.2801 159.796 64.9821C158.955 66.8206 160.517 68.4013 162.051 69.1032C163.489 69.767 165.209 70.2685 165.83 71.8205C166.035 72.341 166.064 73.0429 165.672 73.4966C165.457 73.7449 165.151 73.8738 164.86 73.955C163.016 74.4612 161.267 73.4918 159.734 72.5081C157.952 71.3763 155.988 70.1443 153.762 71.0182C152.577 71.4814 151.688 72.68 151.712 73.9884C151.736 75.2778 152.601 75.8365 153.461 76.2615C155.539 77.2978 158.09 78.0762 158.864 80.4591C159.022 80.9557 159.089 81.5478 158.534 82.0349C158.09 82.4217 157.507 82.5077 157.01 82.3263C154.746 81.5001 152.577 80.4256 150.532 79.1267C149.395 78.4104 148.258 77.6082 146.839 77.6559C146.118 77.6798 145.387 77.9806 144.88 78.5728C143.509 80.1725 144.641 82.5315 146.17 83.5296C147.871 84.647 150.059 84.924 151.258 86.8246C151.683 87.5075 151.76 88.4387 151.344 89.2075C150.79 90.2294 149.806 90.2438 148.994 90.005C146.858 89.3842 145.368 87.3929 143.519 86.1083C141.665 84.8333 138.77 84.4847 137.427 86.5429C137.222 86.8628 137.064 87.2257 137.031 87.6078C136.916 88.9735 138.263 89.7567 139.377 90.2581C141.933 91.4138 144.355 92.9084 146.572 94.7135C146.872 94.9618 147.092 95.3343 147.126 95.7688C147.221 96.9054 146.204 97.3686 145.377 97.5023C142.606 97.9416 139.893 96.9675 137.451 95.6352C136.042 94.8711 134.604 93.959 132.922 94.4556C132.077 94.7039 131.35 95.425 131.15 96.3801C130.815 97.9655 132.034 99.1068 133.175 99.8231C136.3 101.8 139.926 102.77 143.581 102.579C144.555 102.526 145.592 102.402 146.39 103.075C146.786 103.414 147.035 103.968 146.987 104.57C146.92 105.42 146.376 105.792 145.845 106.065C141.125 108.505 136.075 105.802 131.441 103.868C130.4 103.433 129.263 103.032 128.169 103.61C127.638 103.887 127.213 104.417 127.098 105.071C126.907 106.155 127.576 106.829 128.235 107.335C132.067 110.324 137.002 110.635 141.646 111.165C141.985 111.203 142.315 111.337 142.573 111.594C143.222 112.253 142.96 112.994 142.621 113.581C140.719 116.871 136.73 116.728 133.787 115.448C130.677 114.101 127.557 111.914 124.213 112.955C123.831 113.075 123.487 113.366 123.329 113.796C123.023 114.627 123.568 115.219 124.084 115.615C128.035 118.657 133.295 117.755 137.967 118.6C138.455 118.686 138.899 118.996 139.152 119.493C139.673 120.505 139.133 121.374 138.545 121.976C136.472 124.115 133.539 124.211 131.026 123.499L131.04 123.514Z" fill="#839735"/>
<path d="M192.326 246.933C193.959 244.435 194.552 240.844 194.805 237.712C194.27 239.001 193.663 240.376 192.416 240.816C191.704 241.064 190.897 240.816 190.515 240.066C190.051 239.168 190.477 238.232 190.883 237.43C192.201 234.827 193.52 232.225 194.838 229.617C194.065 228.409 192.369 229.914 191.996 231.26C191.786 232.015 191.446 232.731 190.892 233.185C189.65 234.202 188.728 233.132 188.48 232.015C187.949 229.598 189.789 227.473 191.184 225.587C192.579 223.701 193.486 220.382 191.69 219.045C190.601 221.117 189.516 223.195 188.427 225.267C188.093 225.907 187.648 226.623 186.946 226.456C186.545 226.361 186.225 225.993 186.062 225.549C184.051 219.971 191.112 215.31 190.41 209.57C190.357 209.145 190.223 208.673 189.884 208.51C189.416 208.286 188.943 208.806 188.642 209.289C186.989 211.953 185.809 215.205 183.42 216.944C182.804 217.393 182.054 217.732 181.342 217.039C180.807 216.519 180.597 215.688 180.673 214.881C181.242 208.864 188.25 205.34 187.152 199.318C187.07 198.864 186.793 198.453 186.406 198.348C185.962 198.224 185.68 198.587 185.446 198.936C183.339 202.121 182.293 206.849 179.001 208.023C178.714 208.128 178.385 208.19 178.127 208.014C177.893 207.851 177.773 207.531 177.697 207.226C176.851 203.969 178.772 200.674 180.692 198.119C182.771 195.354 185.154 192.207 184.447 188.44C184.338 187.862 183.994 187.36 183.521 187.164C182.603 186.792 182.006 187.68 181.557 188.468C179.88 191.405 178.203 194.342 176.526 197.279C176.149 197.938 175.743 198.635 174.912 198.644C173.975 198.659 173.216 197.794 173.029 196.72C172.723 194.948 173.655 193.401 174.539 192.021C175.886 189.92 177.233 187.823 178.576 185.722C179.488 184.299 180.449 182.719 180.043 180.842C179.837 179.896 179.154 179.142 178.323 179.113C177.276 179.075 176.727 180.102 176.278 181.033C174.974 183.726 173.669 186.42 172.365 189.108C172.059 189.738 171.715 190.421 170.918 190.383C170.125 190.345 169.48 189.59 169.365 188.674C168.882 184.839 171.519 182.088 172.972 178.884C174.185 176.21 174.601 173.049 174.109 170.069C173.999 169.415 173.669 168.813 173.153 168.526C171.902 167.834 170.97 169.348 170.588 170.675C169.417 174.729 169.857 179.319 168.3 183.191C168.147 183.573 167.936 183.984 167.588 184.099C167.067 184.266 166.594 183.683 166.341 183.129C164.855 179.916 165.772 175.995 166.369 172.404C167.067 168.211 167.282 163.908 167 159.649C166.881 157.834 166.627 155.895 165.352 154.702C164.611 154.009 163.589 153.799 162.767 154.353C161.745 155.045 161.654 156.454 161.692 157.705C161.874 163.321 163.665 168.908 162.633 174.443C162.547 174.911 162.38 175.365 162.122 175.732C161.071 177.222 159.437 176.291 158.577 175.04C156.843 172.528 156.776 169.013 156.79 165.785C156.805 162.38 156.824 158.976 156.838 155.571C156.857 151.908 156.542 147.534 153.814 145.748C153.298 145.409 152.691 145.184 152.056 145.996C151.659 146.502 151.492 147.199 151.507 147.887C151.664 154.3 154.679 160.914 152.682 166.907C152.481 167.514 152.195 168.149 151.382 168.063C150.971 168.02 150.599 167.777 150.288 167.452C147.928 164.992 147.021 161.148 146.92 157.471C146.801 153.14 147.651 148.847 147.618 144.506C147.603 143.055 147.149 141.646 146.347 140.547C146.122 140.237 145.812 139.893 145.449 139.893C145.138 139.893 144.871 140.151 144.656 140.414C141.192 144.721 145.09 153.126 141.431 157.209C139.677 156.755 138.54 154.616 138.364 152.519C138.187 150.423 138.76 148.35 139.329 146.349L141.76 137.763C141.995 136.942 142.061 136.049 141.885 135.209C141.316 132.511 139.19 132.649 137.465 132.1C136.137 131.68 134.408 129.564 135.096 128.165C137.953 129.354 140.81 130.543 143.667 131.727C144.054 131.89 144.465 132.052 144.866 131.942C145.272 131.832 145.587 131.46 145.874 131.102C149.232 126.914 153.097 121.962 157.98 122.492C158.424 122.54 158.936 122.692 159.122 123.17C159.346 123.738 158.974 124.373 158.611 124.836C156.609 127.382 154.168 129.449 151.483 130.877C150.035 131.646 148.196 133.399 149.19 134.85C156.227 132.148 163.828 131.493 171.123 132.974C171.902 133.131 172.571 133.776 172.781 134.669C173.091 135.977 172.227 136.746 171.4 137.219C166.833 139.822 161.095 137.706 156.499 140.237C155.935 140.547 155.338 140.996 155.395 141.88C155.429 142.367 155.687 142.797 156.04 143.059C156.829 143.642 157.746 143.456 158.611 143.293C166.049 141.889 173.76 142.448 180.993 144.931C182.302 145.38 183.277 146.774 183.22 148.374C183.129 151.077 180.224 151.602 178.055 151.473C173.263 151.187 168.471 150.896 163.684 150.609C167.048 154.472 172.422 153.88 177.128 153.804C181.232 153.742 185.346 154.281 189.34 155.408C190.935 155.857 192.588 156.449 193.615 158.068C194.237 159.047 194.452 160.356 194.022 161.468C193.152 163.713 190.481 163.612 188.432 163.173C183.482 162.108 178.533 161.039 173.588 159.974C175.16 164.19 179.756 165.164 183.597 166.091C188.89 167.366 194.007 169.625 198.708 172.748C199.927 173.56 201.173 174.491 201.709 176.067C201.981 176.869 201.995 177.781 201.666 178.554C201.111 179.868 199.96 180.035 198.914 179.963C193.329 179.572 189.096 173.65 183.635 172.227C182.966 172.05 182.226 171.955 181.691 172.767C181.404 173.206 181.294 173.784 181.371 174.328C181.538 175.579 182.379 176.429 183.224 177.127C190.295 182.962 200.801 183.249 205.144 192.389C205.559 193.267 205.655 194.332 205.33 195.259C204.704 197.035 203.037 197.05 201.68 196.682C196.788 195.354 193.171 190.636 189.139 187.193C188.661 186.787 187.988 186.763 187.538 187.208C186.712 188.019 187.467 189.361 188.222 190.092C193.257 194.934 200.428 196.582 204.436 202.598C205.067 203.549 205.636 204.762 204.957 205.941C204.594 206.567 203.987 206.93 203.352 207.049C198.732 207.909 195.894 201.266 191.456 200.368C191.423 204.27 194.547 207.135 197.557 208.806C200.691 210.549 204.279 211.953 206.008 215.554C206.486 216.547 206.644 217.732 206.3 218.796C205.855 220.181 204.905 220.387 204.026 220.272C200.71 219.842 198.885 215.487 196.085 213.472C195.574 213.104 194.877 213.2 194.499 213.744C194.055 214.389 194.38 215.091 194.719 215.64C197.356 219.914 201.981 222.311 203.815 227.192C203.964 227.583 204.011 228.032 203.911 228.443C203.476 230.272 201.145 229.326 200.041 227.989C198.947 226.666 196.974 225.272 196.09 226.79C197.772 228.314 199.449 229.837 201.13 231.36C202.038 232.182 202.989 233.075 203.199 234.474C203.338 235.386 202.994 236.355 202.263 236.704C200.443 237.573 198.914 233.696 197.046 234.388C196.63 236.136 197.968 237.774 199.31 238.667C200.657 239.56 202.248 240.276 202.951 241.89C203.653 243.504 202.358 246.092 200.968 245.295C200.366 244.951 199.635 244.111 199.215 244.722C199.458 246.212 200.829 246.971 201.866 247.874C202.908 248.776 203.682 250.753 202.659 251.68L200.853 251.35C200.414 253.179 201.503 254.965 202.253 256.646C202.454 257.095 202.616 257.606 202.721 258.131C203.056 259.817 201.044 260.729 200.337 259.206C199.067 256.474 198.455 253.322 198.632 250.218C197.629 249.855 196.945 251.646 196.984 252.735C197.007 253.432 196.835 254.134 196.391 254.602C195.23 255.834 194.065 254.11 194.246 252.754C194.399 251.618 195.097 250.71 195.589 249.717C196.425 248.036 196.702 245.978 196.343 244.077C195.651 244.373 195.292 245.252 195.015 246.054C194.743 246.857 194.423 247.745 193.749 248.098C193.076 248.451 192.068 247.726 192.345 246.923L192.326 246.933Z" fill="#51603C"/>
<path d="M109.555 132.768C110.196 130.452 111.724 128.442 113.693 127.319C114.209 127.028 114.782 126.761 115.078 126.216C115.293 125.815 115.317 125.328 115.327 124.865C115.413 120.658 114.729 116.446 115.126 112.258C115.523 108.07 117.309 103.677 120.821 101.91C121.834 109.951 116.081 118.022 118.379 125.82C118.461 126.102 118.618 126.36 118.848 126.517C119.712 127.114 120.548 125.849 120.826 124.827C122.665 118.041 123.238 110.147 128.551 105.806C129.038 105.41 129.659 105.224 130.247 105.386C131.355 105.697 131.484 106.867 131.412 107.86C130.92 114.593 124.428 119.569 124.28 126.326C126.726 126.02 128.011 123.146 129.272 120.849C130.777 118.112 132.841 115.744 135.278 113.958C135.836 113.547 136.477 113.261 137.15 113.223C139.267 113.103 139.792 115.19 139.295 116.709C138.956 117.74 138.24 118.571 137.537 119.359C135.096 122.081 132.545 124.688 129.893 127.171C129.301 127.73 128.962 128.575 129.1 129.416C129.396 131.273 131.489 131.24 133.032 130.977C137.294 130.251 141.646 130.156 145.931 130.705C147.183 130.867 148.497 131.111 149.4 132.123C149.858 132.634 150.131 133.332 150.083 134.043C150.007 135.227 149.161 135.734 148.33 136.068C143.906 137.859 139.028 136.082 134.48 134.712C134.016 134.573 133.476 134.454 133.123 134.864C132.836 135.199 132.851 135.719 133.08 136.097C133.472 136.746 134.179 136.908 134.843 137.032C141.383 138.26 148.583 138.551 153.475 143.584C153.924 144.047 154.168 144.726 154.034 145.38C153.733 146.87 152.07 146.793 150.876 146.416C145.645 144.764 140.609 141.445 135.192 142.032C135.072 143.011 136.047 143.694 136.892 144.067C142.783 146.664 149.495 147.323 154.564 151.559C154.875 151.822 155.08 152.223 155.075 152.653C155.066 153.379 154.555 153.579 154.091 153.718C151.545 154.467 148.783 154.3 146.328 153.254C143.839 152.189 141.46 150.217 138.861 150.275C138.488 150.284 138.254 150.719 138.402 151.086C139.458 153.679 142.453 154.859 144.99 155.929C148.354 157.352 151.535 159.281 154.416 161.645C154.808 161.969 155.161 162.356 155.415 162.819C156.776 165.284 154.626 166.893 152.854 166.683C151.574 166.53 150.46 165.699 149.409 164.897C146.567 162.724 143.724 160.551 140.877 158.374C140.624 158.183 140.327 158.058 140.017 158.068C139.377 158.092 139.233 158.546 139.181 158.971C139.066 159.906 139.291 160.866 139.802 161.63C141.125 163.598 143.179 164.214 145.086 165.088C147.494 166.191 149.725 167.743 151.66 169.653C152.448 170.431 153.25 171.448 152.873 172.652C152.634 173.406 151.989 173.913 151.268 174.07C149.968 174.357 148.779 173.698 147.656 173.058C144.746 171.401 141.837 169.744 138.927 168.082C139.276 171.802 142.286 174.505 145.229 176.444C148.172 178.382 151.464 180.173 153.131 183.444C153.537 184.246 153.848 185.197 153.227 186.08C152.734 186.777 151.889 187.054 151.096 186.887C149.467 186.548 148.53 185.049 147.503 183.774C145.85 181.711 143.772 180.058 141.46 178.974C141.039 178.779 140.528 178.855 140.213 179.213C139.749 179.739 140.05 180.421 140.38 180.932C142.343 184.017 145.43 185.994 147.976 188.525C149.858 190.397 151.516 192.914 151.889 195.564C152.047 196.691 150.823 197.417 150.054 196.639C147.25 193.816 144.321 191.142 141.278 188.63C141.01 188.411 140.7 188.239 140.366 188.191C139.477 188.062 139.157 188.75 139.042 189.404C138.545 192.255 140.991 194.571 142.969 196.524C144.952 198.487 146.696 200.731 148.148 203.181C148.64 204.016 148.865 205.005 148.76 205.993C148.669 206.834 148.564 207.665 147.465 207.507C146.7 207.397 146.051 206.843 145.692 206.103C144.039 202.718 142.066 199.518 139.816 196.572C139.42 196.051 138.985 195.516 138.335 195.397C138.015 195.34 137.671 195.426 137.442 195.669C136.997 196.142 137.179 196.844 137.413 197.403C139.42 202.164 144.589 204.838 146.103 209.809C146.28 210.387 146.366 211.117 145.946 211.523C145.673 211.786 145.267 211.81 144.904 211.767C142.706 211.504 141.015 209.303 139.926 207.474C139.324 206.466 138.607 205.549 137.795 204.738C137.523 204.465 137.208 204.174 136.787 204.308C136.41 204.427 136.166 204.823 136.137 205.248C136.09 205.898 136.453 206.466 136.83 206.953C138.971 209.718 142.152 211.585 143.471 214.947C143.614 215.32 143.686 215.73 143.6 216.127C143.39 217.063 142.621 217.163 141.966 217.053C139.372 216.604 137.857 213.648 135.899 211.839C135.492 211.466 134.881 211.538 134.623 212.044C134.365 212.55 134.771 213.042 135.125 213.4C136.644 214.947 137.953 216.738 138.999 218.696C139.338 219.331 139.658 220.019 139.529 220.768C139.467 221.122 139.286 221.451 138.999 221.642C138.474 221.991 137.953 221.704 137.504 221.408C136.706 220.888 135.946 220.31 135.22 219.68C134.938 219.431 134.523 219.661 134.518 220.057C134.508 221.036 134.948 222.039 135.55 222.803C136.333 223.801 137.356 224.541 138.22 225.458C138.612 225.873 138.99 226.379 138.794 227.053C138.684 227.425 138.407 227.721 138.077 227.874C137.37 228.194 136.606 227.917 135.989 227.483C135.583 227.196 135.139 226.819 134.652 227.11C134.332 227.301 134.179 227.702 134.198 228.099C134.303 230.333 136.787 231.136 137.79 232.927C138.01 233.313 138.029 233.819 137.79 234.192C137.055 235.305 135.364 233.676 134.551 234.627C134.193 235.047 134.26 235.715 134.633 236.126C135.34 236.9 136.309 236.785 137.198 236.971C137.905 237.119 138.67 237.611 138.713 238.39L137.552 239.025C137.322 239.149 137.298 239.497 137.509 239.65C138.306 240.233 139.037 240.92 139.687 241.689C139.955 242.004 139.783 242.525 139.396 242.578C138.956 242.635 138.507 242.597 138.087 242.468C138.335 243.857 139.759 244.722 139.778 246.245C139.783 246.665 139.625 247.081 139.319 247.339C138.364 248.141 137.203 246.813 137.117 245.605C137.031 244.459 137.905 245.056 137.59 243.958C137.012 244.287 136.271 243.8 136.023 243.141C135.774 242.487 135.875 241.742 135.985 241.045L134.489 241.995C134.035 242.286 133.472 241.885 133.534 241.317L133.902 237.836C133.032 238.103 132.268 238.709 131.737 239.502C131.312 240.142 130.376 239.86 130.323 239.077C130.266 238.189 130.553 237.162 130.963 236.37C131.69 234.966 132.679 233.394 132.158 231.885C131.279 232.416 130.471 233.075 129.755 233.834C129.239 234.383 128.336 234.006 128.321 233.223C128.302 232.105 128.957 230.787 129.736 229.923C130.92 228.605 132.449 227.081 132.048 225.291C130.978 226.489 129.607 227.368 128.13 227.826C127.366 228.065 126.678 227.215 127.017 226.432C128.212 223.681 132.301 222.101 132.722 218.834C130.438 218.214 128.804 221.552 126.477 221.929C125.933 222.02 125.312 221.915 125.078 221.165C124.939 220.725 125.006 220.238 125.211 219.828C126.817 216.628 131.193 216.308 132.707 213.142C132.956 212.626 133.104 211.944 132.502 211.547C132.072 211.265 131.522 211.366 131.14 211.714C129.459 213.242 127.543 214.465 125.498 215.31C124.863 215.573 124.069 215.788 123.606 215.081C123.286 214.589 123.315 213.921 123.62 213.414C124.786 211.49 126.453 209.938 128.379 208.969C130.51 207.894 133.29 207.154 133.911 204.69C134.05 204.136 134.026 203.439 133.352 203.233C132.898 203.095 132.406 203.295 132.11 203.701C130.381 206.07 127.782 207.65 125.025 208.042C124.055 208.181 122.827 208.033 122.588 206.863C122.498 206.414 122.598 205.946 122.799 205.549C124.437 202.336 127.934 201.232 130.834 199.494C133.591 197.847 136.214 194.49 135.029 191.324C133.013 194.213 130.605 196.777 127.901 198.907C126.735 199.828 124.762 200.492 124.155 199.017C124.007 198.659 123.998 198.257 124.06 197.871C124.48 195.144 126.482 193.09 128.579 191.581C130.6 190.125 132.841 188.969 134.57 187.121C136.3 185.273 137.456 182.451 136.606 179.987C134.728 181.62 132.851 183.248 130.973 184.882C130.275 185.488 129.449 186.138 128.527 185.679C127.978 185.402 127.634 184.791 127.571 184.137C127.447 182.819 128.212 181.744 129.048 180.889C131.059 178.822 133.663 177.508 135.578 175.336C137.494 173.163 138.531 169.51 136.754 167.208C132.755 168.531 132 175.527 127.877 176.291C127.151 176.424 126.344 176.319 125.933 175.317C125.574 174.438 125.699 173.406 126.176 172.595C128.532 168.574 131.255 164.801 134.289 161.349C135.048 160.484 135.875 159.548 135.865 158.288C135.865 157.576 135.502 156.893 134.886 156.664C134.145 156.387 133.558 156.888 133.099 157.423C130.6 160.331 129.984 165.007 126.879 167.117C125.679 167.934 123.797 168.13 123.238 166.41C123.004 165.694 123.114 164.901 123.439 164.228C126.181 158.464 130.796 153.837 132.913 147.777C133.424 146.316 133.773 144.649 132.98 143.25C132.569 142.524 131.828 142.051 131.045 142.109C130.056 142.18 129.587 143.011 129.253 143.828C127.653 147.748 127.92 152.815 125.679 156.072C125.192 156.779 124.179 156.506 124.046 155.642C123.066 149.396 126.057 142.963 127.595 136.674C127.839 135.686 128.044 134.64 127.825 133.647C127.5 132.19 125.99 130.891 124.504 132.415C124.141 132.787 123.893 133.27 123.716 133.78C121.604 139.945 123.735 147.185 121.103 153.073C120.926 153.469 120.697 153.894 120.147 153.823C119.689 153.765 119.321 153.364 119.22 152.877C117.754 145.743 119.97 138.499 120.849 131.297C120.993 130.118 121.002 128.671 119.942 128.117C119.273 127.768 118.48 127.997 117.945 128.556C117.004 129.535 116.918 130.949 116.855 132.281C116.521 139.506 116.187 146.731 115.852 153.956C115.8 155.045 115.733 156.201 115.011 157.027C114.643 157.447 114.113 157.691 113.583 157.6C112.814 157.466 112.527 156.769 112.326 156.105C109.966 148.35 114.772 140.199 114.796 132.037C114.796 131.627 114.653 131.216 114.376 130.939C113.893 130.462 113.43 130.696 113.029 130.953C111.987 131.627 111.079 132.539 110.377 133.609L109.579 132.759L109.555 132.768Z" fill="#69814F"/>
<path d="M90.7032 129.903C89.7 131.703 87.6934 131.913 86.1598 131.044C84.631 130.18 83.4414 128.494 82.2327 126.952C79.5812 123.571 76.6001 120.663 73.3943 118.337C72.6156 117.774 71.6553 117.769 70.9387 118.471C69.1901 120.195 70.9673 123.595 72.6442 125.238C74.3116 126.876 75.9837 128.513 77.6511 130.147C79.0652 131.536 80.5415 133.007 81.11 135.357C81.3585 136.374 81.3727 137.496 81.067 138.484C80.2691 141.087 78.0954 141.135 76.5475 140.075C75.3388 139.244 74.3881 137.868 73.3466 136.689C70.4753 133.427 66.7631 131.57 63.0271 131.57C62.2675 131.57 61.4123 131.694 61.1114 132.959C60.9585 133.599 61.0254 134.301 61.2213 134.922C63.032 140.7 67.9145 143.499 72.1761 144.692C73.5711 145.084 74.7655 146.402 75.2145 148.24C76.1414 152.027 73.1984 153.952 70.9721 153.321C69.1615 152.806 67.6422 151.182 65.9892 150.046C63.954 148.646 61.6513 147.978 59.3724 148.121C58.135 148.202 56.6731 148.732 56.5393 150.728C56.5011 151.287 56.6014 151.851 56.783 152.347C59.3772 159.429 68.2728 154.429 71.5741 160.513C68.6073 162.419 65.1484 161.745 61.871 161.487C58.4456 161.22 54.5662 161.712 52.445 165.513C52.2061 165.943 52.0341 166.449 52.0103 166.984C51.9195 169.228 53.9595 169.801 55.4739 169.677C58.7943 169.4 62.0956 168.593 65.2822 167.285C66.4909 166.788 67.7999 166.22 68.9656 167.079C69.6679 167.6 70.0835 168.684 69.8494 169.725C69.6392 170.651 69.042 170.923 68.4831 171.172C63.352 173.454 58.3643 176.353 53.6011 179.825C52.8081 180.403 52.23 181.444 52.1153 182.661C51.9386 184.49 52.9084 185.321 53.8735 185.689C58.6701 187.513 63.1992 180.221 68.1391 181.124C64.2884 187.451 55.7988 186.104 53.0756 193.745C52.8511 194.37 52.7651 195.087 52.8845 195.76C53.1998 197.527 54.5662 197.775 55.7032 197.67C58.2783 197.436 60.7961 196.185 62.8743 194.108C63.7438 193.239 64.5608 192.212 65.5784 191.725C66.596 191.238 67.905 191.477 68.4735 192.723C65.306 195.201 62.2054 197.842 59.1813 200.64C58.4599 201.309 57.6907 202.068 57.6764 203.439C57.662 204.829 58.4312 206.003 59.4154 206.357C61.2738 207.02 62.8743 205.54 64.3888 204.27C65.6644 203.2 67.1549 202.202 68.6073 202.713C69.4099 204.423 67.5801 206.17 66.123 206.581C64.6659 206.987 62.7262 208.166 63.1514 210.115C63.8011 213.08 68.4305 210.654 68.8414 213.696C67.1979 214.331 65.5545 214.967 63.9062 215.606C63.481 215.769 63.0319 215.96 62.7548 216.423C62.6736 216.557 62.6258 216.733 62.6258 216.905C62.6163 221.743 66.8396 218.648 68.2824 221.327C68.8222 222.827 67.1884 224.016 65.9653 224.107C64.7423 224.197 63.0606 224.77 63.1848 226.437C63.3807 229.044 67.6088 228.108 67.4273 230.716C67.217 233.715 62.1672 230.41 62.1337 234.073C62.1242 235.209 62.7692 236.098 63.5861 236.322C64.6276 236.604 66.1278 238.734 65.2248 239.913C64.1403 241.627 61.7946 238.003 60.6145 239.598C59.8406 240.644 60.7292 242.348 61.5366 243.347C62.344 244.345 63.0845 246.269 62.172 247.086L59.7068 246.57C58.8182 246.384 58.0681 247.291 58.3309 248.232C58.6701 249.435 59.0666 250.619 58.8851 251.856C58.7465 252.783 58.2305 253.499 57.5951 253.871C56.6253 254.44 56.8164 256.001 57.8913 256.288C58.7608 256.517 59.6877 256.302 60.3757 255.538C59.9839 256.574 60.5094 258.036 61.3502 258.246C62.1911 258.456 63.0606 257.343 62.9602 256.183C62.836 254.712 61.5222 253.198 62.258 252.114C62.922 253.208 63.7055 254.306 64.8187 254.33C65.4637 254.344 66.0895 253.843 66.2711 252.993C66.5577 251.68 65.6644 250.681 65.0958 249.65C64.5608 248.681 64.5368 246.828 65.4159 246.704C66.6819 247.969 69.0468 248.709 69.3096 246.599C69.5437 244.708 67.4129 242.912 67.4798 241.475C67.4989 241.107 67.9097 240.925 68.1582 241.179C68.7028 241.742 69.3573 242.095 70.0358 242.229C71.0868 242.434 71.8512 241.169 71.2493 240.209L69.0134 236.656C68.7936 236.303 68.6694 235.84 68.7267 235.381C68.9035 233.963 70.4275 234.364 71.3925 234.885C72.3528 235.4 74.0059 234.632 73.466 233.428C71.9229 232.506 70.7141 230.606 70.2603 228.39C71.8942 229.574 73.9294 229.565 75.6063 228.519C76.452 227.994 76.3851 226.618 75.4869 226.203C73.1555 225.124 70.9626 223.204 71.1059 220.067C73.7335 221.743 76.8915 221.795 79.5478 220.21C79.6433 218.185 77.7371 217.264 76.2513 217.13C74.7655 216.996 72.8736 216.571 72.5631 214.585L78.5445 214.79C78.898 214.804 79.2564 214.714 79.5573 214.47C80.9428 213.348 79.7102 210.764 78.3343 210.459C77.0635 210.177 75.7687 210.893 74.4884 210.726C73.208 210.554 71.8847 208.63 72.6252 207.192C74.7942 207.598 76.9631 207.999 79.1321 208.405C79.8296 208.534 80.5845 208.658 81.1243 207.703C81.6928 206.7 81.5448 205.249 80.8616 204.389C79.3519 202.479 77.3788 203.2 75.5586 202.923C74.0775 202.699 72.4102 201.147 72.7159 199.155C75.9264 199.805 79.1369 200.454 82.3522 201.104C82.849 201.204 83.4892 201.209 83.7042 200.583C83.8093 200.273 83.7615 199.915 83.685 199.59C83.0353 196.768 80.6896 195.364 78.5397 194.967C76.3899 194.571 74.1348 194.81 72.1235 193.702C72.8975 191.558 75.0904 191.286 76.7864 191.882C78.7738 192.584 80.7326 194.07 82.7917 192.995C83.857 192.441 84.5928 191.004 84.416 189.466C84.2536 188.038 83.4318 187.489 82.6197 187.164C80.7278 186.41 78.7021 186.673 76.7625 186.181C74.8276 185.689 72.7828 184.056 72.477 181.401C75.5299 181.663 78.5731 182.236 81.5639 183.12C81.9604 183.239 82.3856 183.263 82.7822 183.139C85.2856 182.37 84.2583 178.005 82.3712 176.936C80.7039 175.99 78.8025 176.501 77.0157 176.167C75.2289 175.832 73.2558 173.889 73.6476 171.482C77.9808 170.455 82.0607 174.104 86.2315 176.004C86.5898 176.167 86.9863 176.32 87.3398 176.148C87.6695 175.99 87.9036 175.589 88.066 175.169C89.2747 172.074 87.359 168.264 85.0658 166.678C82.6961 165.035 79.9013 164.711 77.6368 162.786C77.3023 162.5 76.9918 162.142 76.7959 161.674C76.1127 160.031 77.3071 158.765 78.3534 158.837C79.1704 158.89 79.9013 159.515 80.5892 160.122C82.9398 162.194 85.2951 164.267 87.6456 166.339C89.4181 167.901 91.6731 165.666 91.1332 162.882C90.1299 157.729 86.8335 153.274 82.8825 152.839C82.0894 152.753 81.196 152.753 80.7469 151.693C80.2596 150.537 80.7039 149.143 81.6068 148.632C83.2121 147.72 84.6454 149.114 85.8732 150.418L93.4837 158.507C94.3484 159.429 95.5619 159.611 96.4888 158.808C97.578 157.868 97.4395 156.22 97.062 154.893C96.0158 151.225 93.3691 148.775 90.5934 147.71C88.9069 147.066 87.015 146.76 85.9783 144.616C85.4289 143.484 85.448 141.956 86.1455 140.991C86.8048 140.084 87.6313 140.27 88.367 140.586C92.4327 142.343 96.0731 148.116 100.086 146.154C100.545 145.929 100.999 145.581 101.247 145.008C101.625 144.134 101.424 143.007 101.104 142.095C99.0448 136.273 93.4216 135.18 88.6919 134.855C89.2509 132.907 95.2227 131.98 96.7133 131.489C96.0636 130.763 97.4299 124.598 90.7032 129.913V129.903Z" fill="#69814F"/>
<path d="M110.067 137.696C107.496 136.531 104.692 136.268 102.26 134.602C101.897 134.353 101.601 133.933 101.458 133.384C101.066 131.861 102.141 130.605 103.12 130.165C107.019 128.375 110.42 133.523 114.405 133.37C114.782 133.355 115.174 133.145 115.451 132.706C115.919 131.961 115.737 131.164 115.522 130.505C113.196 123.389 106.159 121.536 101.462 126.551C100.545 125.887 101.52 123.767 102.446 122.84C104.243 121.025 110.649 115.93 112.446 114.068C111.954 113.332 109.116 113.318 108.624 112.587C105.461 115.018 100.55 120.696 99.494 125.533C95.2515 122.444 90.8849 119.698 86.4132 117.301C85.472 116.799 84.4544 116.298 83.4033 116.814C82.744 117.134 82.1851 117.888 82.0943 118.829C81.9796 119.951 82.5864 120.653 83.1836 121.164C85.6822 123.284 88.8162 123.685 91.5059 125.352C94.2005 127.028 96.5892 131.006 95.6289 135.251C90.6173 131.961 85.3286 129.449 79.868 127.73C79.3902 127.577 78.8647 127.682 78.4491 128.098C77.4267 129.105 78 130.963 78.75 132.023C80.833 134.984 83.8859 136.211 86.7046 137.725C89.5281 139.243 92.4376 141.464 93.5269 145.466C90.1253 145.948 86.8765 144.191 83.6278 142.968C80.2072 141.674 76.2897 141.006 73.2225 143.766C72.8833 144.067 72.6349 144.554 72.6301 145.093C72.6158 146.13 73.3515 146.459 73.9821 146.664C78.0955 147.982 82.2042 149.291 86.3176 150.58C88.5105 151.263 90.7894 151.998 92.5093 153.985C92.8294 154.353 93.1447 154.816 92.9106 155.589C92.6812 156.339 92.084 156.702 91.5346 156.516C85.9927 154.63 80.1308 154.367 74.4742 155.666C74.0347 155.761 73.619 156.057 73.3562 156.535C72.8259 157.5 73.2225 158.326 73.6907 158.908C75.1717 160.742 77.3741 160.857 79.3711 160.847L90.0536 160.613C91.2862 160.565 92.3994 161.769 92.5666 163.498C92.8341 166.348 90.4788 167.218 88.692 167.542C83.4607 168.416 78.4061 170.966 74.1063 174.863C73.6907 175.231 73.404 175.837 73.3753 176.515C73.3228 177.838 74.178 178.373 74.9424 178.659C80.6085 180.751 86.0548 175.87 91.7066 174.132C92.0076 174.037 92.3277 173.951 92.6239 174.089C93.0682 174.304 93.3214 174.987 93.4027 175.646C93.632 177.508 92.8293 179.347 91.7687 180.455C90.7081 181.553 89.4182 182.093 88.1952 182.761C85.6201 184.132 83.2409 186.128 81.2152 188.616C80.5894 189.38 80.2645 190.555 80.4604 191.725C80.7422 193.406 81.7694 193.792 82.6771 193.778C86.2268 193.683 88.4006 188.659 91.5394 186.462C92.3468 185.889 93.288 185.488 94.191 186.386C95.1226 187.312 95.4713 189.036 95.1894 190.574C94.6735 193.377 92.8724 194.781 91.3197 196.323C88.9596 198.62 86.9626 201.581 85.4911 204.972C85.1328 205.793 85.1375 206.901 85.5962 207.722C86.1026 208.634 86.8431 208.529 87.4498 208.247C90.2925 206.896 91.6493 202.455 94.081 199.972C94.7021 199.332 95.4618 198.797 96.2739 199.375C97.0813 199.953 97.4779 201.29 97.3393 202.536C97.0765 204.9 95.6719 206.108 94.4967 207.464C92.4997 209.733 90.9852 212.789 90.1444 216.218C89.9389 217.053 90.4979 217.951 91.1238 217.798C93.2163 217.273 95.0891 215.525 96.1927 212.98C96.6752 211.867 97.0383 210.587 97.8982 209.967C98.2374 209.718 98.6484 209.637 99.0258 209.809C99.8475 210.172 100.039 211.28 100.039 212.259C100.039 217.913 95.4044 220.401 93.3596 224.77C93.0825 225.358 93.0395 226.169 93.3166 226.847C93.9377 228.371 95.3805 227.645 96.2548 226.752L100.559 222.239C100.822 221.957 101.161 221.819 101.496 221.943C102.552 222.32 102.241 224.656 101.505 225.673C99.6659 228.199 96.6227 229.546 96.3551 233.285C96.3265 233.7 96.3408 234.159 96.5176 234.526C96.7708 235.056 97.2629 235.223 97.6833 235.185C99.8236 234.97 100.827 231.078 103.153 231.169C103.923 231.193 104.682 231.866 104.945 232.96C105.27 234.321 104.644 235.333 104.066 236.169C102.652 238.189 101.238 240.19 99.8284 242.162C99.4557 242.678 99.0592 243.284 99.2551 244.168C99.4366 245.003 100.043 245.524 100.621 245.505C101.84 245.462 102.451 243.991 103.407 243.284C103.416 243.279 103.421 243.275 103.431 243.27C104.343 242.616 105.217 244.731 104.367 245.533L101.133 248.513C100.65 248.953 100.836 250.094 101.434 250.366C102.7 250.939 104.023 251.092 105.256 250.782C105.843 252.009 105.179 253.561 104.338 254.091C103.383 254.688 102.203 254.626 101.453 255.714C101.037 256.316 100.899 257.286 101.223 258.136C101.964 260.079 103.937 258.241 104.391 259.883C104.558 260.485 104.386 261.106 104.037 261.378L101.391 263.393C100.789 263.847 101.018 265.26 101.739 265.552L103.392 266.211C102.231 266.449 101.099 266.841 100.019 267.376C99.3889 267.686 99.4796 269.047 100.158 269.511L101.62 270.509C100.12 270.881 98.8346 272.137 98.0894 273.956C99.5322 274.873 101.152 274.429 102.059 272.963C101.835 274.291 102.351 276.888 103.464 277.313C103.684 277.395 103.908 277.39 104.095 277.27C105.022 276.669 104.711 274.563 104.529 272.944C104.348 271.325 105.022 269.214 106.034 270.055C106.98 270.843 106.832 273.393 107.84 273.894C109.035 272.934 108.844 270.193 108.332 268.059C107.917 266.325 107.372 264.434 107.501 262.792C107.554 262.075 108.175 261.889 108.538 262.462C109.551 264.052 109.895 267.438 111.247 267.572C112.183 267.658 112.642 266.488 112.355 265.098C111.72 262.047 109.331 261.488 108.375 258.852C108.227 258.446 108.132 258.002 108.122 257.567C108.055 255.404 109.589 255.032 110.664 255.853C111.505 256.498 112.121 257.677 112.704 258.818C113.836 258.589 113.74 255.896 112.866 254.588C111.677 252.811 109.804 252.501 108.82 250.189C108.418 249.253 108.404 248.069 108.882 247.362C109.632 246.25 110.874 247.181 111.868 247.921C112.89 248.68 114.443 248.948 114.567 247.105C114.653 245.801 113.951 244.607 113.076 244.335C111.452 243.819 109.942 242.229 109.001 240.123C108.82 239.712 108.676 239.259 108.672 238.786C108.643 236.861 110.535 236.823 111.82 237.296C113.105 237.764 115.021 237.205 114.691 235.285C114.61 234.818 114.395 234.402 114.132 234.111C112.169 231.933 109.45 233.695 107.468 231.107C106.789 230.224 106.517 228.796 106.923 227.712C107.458 226.274 108.758 226.456 109.775 226.991C110.821 227.535 111.915 228.366 112.952 227.717C113.583 227.32 113.936 226.26 113.65 225.276C113.435 224.55 112.995 224.374 112.575 224.216C111.337 223.743 110.095 223.271 108.858 222.793C107.62 222.316 106.331 221.8 105.437 220.272C104.998 219.522 104.744 218.557 104.826 217.621C105.041 215.157 107.081 214.68 108.667 215.071C110.157 215.434 111.796 216.16 113.057 215.033C113.478 214.651 113.846 213.964 113.745 213.219C113.693 212.813 113.506 212.464 113.31 212.173C112.059 210.339 110.167 210.062 108.447 209.957C106.45 209.823 104.252 209.661 102.876 207.178C102.141 205.86 102.002 204.007 102.661 202.698C103.311 201.409 104.286 201.466 105.189 201.648C107.382 202.087 109.832 203.138 111.619 201.275C111.992 200.884 112.331 200.335 112.121 199.446C111.949 198.735 111.519 198.229 111.027 198.057C108.786 197.269 106.503 196.796 104.209 196.648C102.939 196.557 101.62 196.553 100.492 195.483C99.9192 194.943 99.4748 194.112 99.3506 193.152C99.021 190.545 101.09 188.974 102.814 189.065C104.74 189.151 106.651 190.445 108.552 189.38C109.23 188.993 109.746 188.105 109.785 187.03C109.837 185.598 109.039 184.877 108.27 184.533C106.235 183.63 104.052 184.576 101.926 184.547C99.7997 184.509 97.282 182.785 97.196 179.734C97.1816 179.261 97.2342 178.779 97.3966 178.368C97.9652 176.902 99.4462 177.074 100.598 177.37C103.239 178.034 105.929 178.258 108.609 178.029C108.973 177.995 109.336 177.771 109.574 177.36C110.205 176.276 109.608 175.078 109.001 174.347C106.966 171.916 104.291 170.947 101.658 170.546C100.144 170.307 98.5289 170.197 97.4062 168.488C96.8377 167.628 96.6036 166.377 96.9093 165.264C97.4157 163.421 98.9589 163.139 100.234 163.23C103.732 163.469 107.152 165.092 110.024 167.915C110.788 168.669 111.571 169.543 112.546 169.428C113.033 169.371 113.506 168.984 113.76 168.345C114.123 167.437 113.86 166.668 113.564 166.009C110.927 160.15 105.509 159.262 100.808 157.891C99.752 157.581 98.634 157.17 98.0225 155.804C97.7263 155.145 97.6403 154.3 97.8648 153.555C98.2375 152.318 99.1117 152.118 99.8905 152.075C104.458 151.798 108.614 155.031 112.642 157.824C112.938 158.03 113.267 158.13 113.602 158.054C114.448 157.853 114.6 156.917 114.61 156.077C114.672 151.382 111.371 148.66 108.351 147.844C105.17 146.975 101.572 146.951 99.3697 143.494C99.1165 143.102 98.9828 142.553 99.064 142.004C99.2216 140.939 99.9526 140.733 100.564 140.705C105.256 140.461 109.082 145.151 113.287 147.653C113.721 147.915 114.233 147.92 114.686 147.6C115.599 146.951 115.589 145.681 115.408 144.649C114.768 140.991 112.431 138.79 110.047 137.706L110.067 137.696Z" fill="#839735"/>
</svg>
