<?xml version="1.0" encoding="UTF-8"?><svg id="Calque_2" xmlns="http://www.w3.org/2000/svg" viewBox="0 0 31.33 58.43"><defs><style>.cls-1{fill:#111515;}</style></defs><g id="icon"><path class="cls-1" d="M21.78,1.27C13.37-2.35,4.65,2.1.97,10.35c-1.78,3.99-.88,9.24.86,13.14,1.53,3.44,4.98,5.52,8.37,6.91.67.27,1.34.46,2.02.61,0,1.59,0,3.18,0,4.78-.81.28-1.4.88-1.68,2.18-.74,3.51-.16,7.82-.15,11.38,0,1.75-.84,7,.6,8.4,1.01.98,3.74.62,4.98.62,1.09,0,3.47.35,4.26-.69.54-.71.33-2.55.36-3.32.08-1.99.13-3.99.16-5.98.04-3.27.88-8.16-.19-11.31-.33-.95-.98-1.36-1.78-1.52.06-1.59.08-3.17.05-4.76,4.76-1.32,9.02-4.94,11.07-9.37,3.83-8.28-.45-16.19-8.12-20.15ZM19.27,47.23c-.02,2.22-.07,4.43-.15,6.64-.1,2.59-.21,2.97-2.77,2.99-1.28.01-3.75.33-4.34-.81-.62-1.19-.11-4.77-.12-6.08-.02-2.49.04-4.99.06-7.48.03-2.97-.55-5.47,3.59-5.4,2.85-.09,3.61.06,3.68,2.99.06,2.38.06,4.76.04,7.14ZM17.29,35.49c-.58.03-1.18.09-1.73.11-.65-.01-1.27-.04-1.83-.03,0-1.44,0-2.88,0-4.32,1.21.12,2.42.08,3.62-.12.02,1.45,0,2.9-.05,4.36ZM29,19.74c-2.41,6.28-10.18,11.81-17.09,9.69-2.74-.84-6.7-3-8.21-5.49-1.5-2.47-2.45-7.01-2.19-9.88.37-4.16,3.67-8.02,6.96-10.37,3.9-2.79,8.2-3,12.57-1.12,6.48,3.35,10.8,9.81,7.97,17.17Z"/><path class="cls-1" d="M22.06,5.11c-5.93-3.65-12.51-1.52-16.67,3.83-2.16,2.78-2.3,6.1-1.82,9.5.53,3.74,2.75,6.05,5.91,8,5.57,3.45,13.13.64,16.57-4.55,4.04-6.1,1.54-12.69-3.99-16.79ZM25.08,20.65c-2.8,4.73-9.9,7.58-14.84,4.5-2.76-1.72-4.62-3.65-5.15-7.01-.46-2.92-.27-6.04,1.63-8.41,3.71-4.64,9.33-6.56,14.59-3.32,4.65,3.45,6.92,8.92,3.77,14.25Z"/><path class="cls-1" d="M12.12,8.21c-3.23,1.7-5.21,5-5.22,8.65,0,.97,1.5.97,1.5,0,.02-3.13,1.71-5.89,4.48-7.35.85-.45.1-1.75-.76-1.3Z"/><path class="cls-1" d="M14.63,7.08c-.97,0-.97,1.5,0,1.5s.97-1.5,0-1.5Z"/></g></svg>