<?xml version="1.0" encoding="UTF-8"?><svg id="Calque_1" xmlns="http://www.w3.org/2000/svg" viewBox="0 0 820.69 625.7"><defs><style>.cls-1{fill:none;stroke:#163132;stroke-width:79.37px;}.cls-1,.cls-2{stroke-miterlimit:10;}.cls-3{fill:#334020;}.cls-4{fill:#728758;}.cls-5{fill:#ff8b5a;}.cls-2{stroke:#008c5b;stroke-width:5.17px;}.cls-2,.cls-6{fill:#efecec;}.cls-7{fill:#718856;}.cls-8{fill:#51603c;}.cls-9{fill:#98b778;}</style></defs><circle class="cls-2" cx="382" cy="259.62" r="257.04"/><path class="cls-5" d="M480.61,291.03c-3.35-7.3-13.39-12.31-24.82-12.32l-77.14-.04-77.14.04c-11.43,0-21.47,5.02-24.82,12.32-9.1,19.82-9.87,41.3-5.72,61.95,5.03,25.01,16.92,49.14,28.76,73.11,3.22,6.52,6.72,13.33,14.27,17.98,5.82,3.59,35.03,5.56,64.64,6.47,29.61-.9,58.82-2.88,64.64-6.47,7.55-4.65,11.05-11.47,14.27-17.98,11.83-23.97,23.73-48.1,28.76-73.11,4.15-20.65,3.38-42.13-5.72-61.95Z"/><circle class="cls-1" cx="382" cy="259.62" r="201.56"/><path class="cls-8" d="M358.29,261.72c-1.9-20.56-9.29-40.14-22.9-51.16,27.19-10.86,24.85-46.1,18.33-69.87-.6-2.71-1.78-5.97-4.54-6.32-29.29,12.18-38.57,44.4-20.32,71.84-9.62-5.42-24.46-6.69-38.16-1.72-10.95-21.31-36.94-44.52-61.95-37.41-2.05.54-3.25,2.27-3,4.38,1.47,23.57,30.3,41.74,53.23,38.93-12.63,8.28-21.4,20.86-29.72,34-16.77-11.82-37.88-17.35-58.28-15.22-21.76,2.01,16.5,52.46,50.07,28.28-8.8,12.83-17.74,27.54-32.1,33.49-5.51,1.55-9.97,3.7-13.58,6.33-8.7,2.25-17.71,2.53-26.63,2.99,4.5-29.75-16.28-63.98-48.81-61.38-8.08,20.83,20.75,50.95,42.82,61.74-16.83.35-34.98,7.81-45.48,23.14.24-17.99-10-34.65-28.68-38.13-8.3-1.2-26.45-5.1-32.96.13-1.82,29.61,31.37,49.18,58.43,43.14-15.86,28.11-19.4,75.13-52.29,72.18-1.09-21.74-13.65-44.65-30.61-58.17-13.12,23.73,3.02,53.28,26.68,61.56l-1.21.4c-21.74-7.79-47.64,3.57-56.63,24.84,19.92,12.04,51.43-5.91,62.43-24.57,5.33.37,10.87-.61,15.33-2.55-12.16,13.89-13.65,37.6-4.24,52.9,28.36-17,23.09-35.78,17.59-63.4l-.42,1.45c-.53.2-1.04.43-1.55.65,15.6-16.18,17.94-41.93,28.24-61.59-5.66,17.93-.38,41.16,9.61,56.32,23.01-15.2,23.75-54.22,7.08-75.45,15.83-10.82,36.49-7.76,54.68-9.74-9.69,12.9-8.16,32.02-6.56,50.43,25.26-6.2,30.57-35.15,29.27-58.22,9.68-5.43,17.22-13.23,23.88-22.04-3.92,19.71,10.47,48.38,24.16,57.62,18.69-19.48,16.54-65.83-12.78-74.35,15.38-30.83,56.08-69.48,85.53-43.97-38.23-14.21-63.36,34.04-36.95,60.69,20.84-5.47,46.58-35.78,39.36-58.35,12.65,13.39,18.68,37.94,21.43,62.54h4.09c-.41-8.13-1.89-14-1.89-16.38Z"/><path class="cls-8" d="M441.08,229.52c-12.84-11.29-20.05-28.85-18.5-45.91.11-5.26,3.97-10.34,9.15-7.25,16.1,8.74,23.93,35.88,14.16,51.71,11.32-2.63,26.81,2.36,39.39,11.45-4.24-26.35,10.79-57.72,40.49-37.78,2.45,1.35,3.38,3.92,2,6.4-5.13,17.78-21.87,26.88-37.3,35.11,12.31,9.45,22.42,21.35,32.17,33.5,11.83-14.2,39.27-20.52,54.48-9.59-5.69,19.45-32.65,26.29-49.35,16.02,10.91,14.12,22.6,29.39,33.1,39.72.16-.09.32-.17.48-.26,2.28,4.07,6.64,6.86,9.68,10l-.22-.51c12.76-14.55,35.44-26.27,53.4-14.3-10.05,15.24-31.91,24.29-49.07,18.39,23.66,20.04,45.43,28.41,66.76,32.21,2.52-15.82,13.36-31.4,28.54-36.94,2.21.06,3.25,2.76,3.49,4.96,1.91,14.79-8.13,29.02-21.82,33.49,21.9,2.6,43.58,1.54,66.62,4.64,2.11-15.2,12.99-40.91,29.53-39.94,5.34,15.84-5.98,34.29-21.03,41.27,18.27,3.18,37.17,10.1,54,20.22l.07-.38c12.9-14.75,41.21-1.01,35.25,18.11-11.43,5.09-32.13-.49-35.12-14.08-4.36-3.17-9.05-5.88-13.97-8.19,5.71,7.84,6.37,19.94,1.03,28.12-1.53,1.09-3.56-.27-4.92-1.56-9.03-7.23-19.12-21.97-10.7-32.17-16.87-5.16-34.36-7.22-51.56-6.29,10.4,8.91,16.71,28.61,11.01,37.71-12.76-2.17-35.03-24.14-28.92-38.07-19.02-.9-35.14-3.42-49.18-7.35,7.65,10.28,7.3,28.23,2.36,39.64-5.88.07-15.04-16.48-19.39-21.26-5.42-6.98-10.35-18.42-3.41-25.65-19.75-8.68-35.16-20.77-49.85-35.24,3.45,12.82,9.68,44.94,1.17,47.58-22.72-6.98-25.47-40.36-6.41-52.87-12.42-12.81-24.64-27.27-38.92-42.77,2.68,14.79-6.41,33.45-21.63,35.61-13.71-13.05-6.81-43.86,12.85-44.97-14.46-13.96-37.9-43.54-60.92-40.92,13.91,4.9,22.57,22.86,21.21,36.97-17.94,5.09-31.8-15.82-32.82-32.55-7.33,5.72-10.89,16.31-10.43,28.4l-4.24-5.62c.85-15.47,7.58-24.89,17.24-28.81Z"/><path class="cls-4" d="M382.02,366.52l-.75-.65c-1.07-23.58-6.33-41.1-14.14-61.85,8.98,11.97,26.1,18.98,39.45,12.17-1.59-19.63-26.94-31.05-44.03-22.44-7.75-16.63-16.77-33.82-18.44-49.04,9.1,11.76,37.36,12.66,47.64,5.44,1.83-22.89-29.88-30.19-46.26-20.17,14.1-37.63,34.3-27.68,49.34-6.38.29-.5.65-.96,1.1-1.36.15-.23.32-.44.49-.66-14.24-32.57-49.63-22.82-56.38,14.53-19.84.89-40.49,21.76-30.89,41.48,14.9,2.39,28.12-10.18,32.23-24.6,5.34,20.47,17.93,38.76,24.66,58.84-19.76,4.65-37.42,27.47-18.39,43.85,10.83-8.24,17.54-22,21.26-35.47,5.96,18.81,9.17,38.98,8.7,58.73-46.38,10.17-35.13,63.39-2.12,21.88-3.43,19.69-11.11,38.23-24.01,53.73l-.02-.05c-.33.29-.67.58-1.01.86.08.04.17.08.25.12-5.18,6.07-11.16,11.66-18.04,16.65.04-.02.08-.03.13-.05-7.59,6.36-11.39,20.1-4.38,27.09,8.72-6.34,12.28-18.97,9.87-29.32h-.28c9.32-4.56,17.05-11.81,23.27-20.85-.77,13.08,3.47,28.79,13.46,32.31,10.41-12.44,5.54-34.08-6.36-44.65,8.58-17.94,12.99-40.81,13.04-61.67,3.24,16.39,15.03,33.12,32.76,29.83,2.5-18.6-13.68-36.78-32.15-38.31Z"/><path class="cls-4" d="M304.42,461.54c8.11-16.01,31.66-13.05,46.03-6.17-11.44,9.49-27.44,13.26-41.91,9.79-1.94-.47-4.28-1.63-4.12-3.62Z"/><path class="cls-7" d="M637.95,481.6c-16.92-3.41-31.54-9.92-44.26-18.75,20.57,1.14,46.19-6.63,55.5-24.8-20.1-18.78-50.11-1.15-62.54,19.52-15.79-12.73-28.43-29.23-38.79-47.73,23.02,9.77,55.21,6.17,70.96-13.54-17.64-24.66-59.87-20.16-75.56,4.93-11.93-23.47-20.63-49.56-27.77-75.02,21.83,19.52,59.82,5.84,78.65-12.26-10.32-37.5-68.78-29.03-81.23,2.87-7.7-26.84-12.65-52.9-19.15-79.81,17.49,10.97,58.31-8.99,66.57-26.21,1.92-2.87-.32-5.48-3.29-6.4-18.36-7.77-41.93-11.46-58.46,2.02-8.39,6.61-11.33,8.55-11.87,13.47-7.16-13.44-21.4-21.77-36.07-24.96,26.14-10.14,38.25-24.38,42.03-52.89-18.82-.54-37.73,2.8-55.23,9.75-18.38,4.6-17.42,30.55-6.34,42.14-39.33,4.61-49.83,45.92-49.1,84.27l4.6-.02c1.01-35.12,8.99-75.61,41.42-80.28-31.92,16.24-4.7,51.8,13.02,68.49,15.08-13,26.81-48.93,13.72-65.6,20.75,6.9,31.05,28.44,39.9,56.73-34.33-3.52-58.92,22.07-43.06,55.57,24.33-.6,44-24.5,45.16-48.38,6.65,23.64,12.09,51.3,19.64,79.01-37.9-5.43-50.31,62.5-30.22,55.78,15.65-6.16,32.16-22.02,34.99-39.33,6.84,22.16,15.47,43.85,27.62,63-19.82,16.19-24.55,46.98-10.3,68.32,1.43,2.22,3.51,4.56,6.14,4.33,16.93-12.56,20.16-38.78,13.63-59.2,13.4,17.37,32.33,32.73,53.98,41.6-1.3,17.56,5.74,48.42,27.89,43.72.27-13.48-5.68-30.39-16.88-39.56,6.07,1.89,11.56,2.79,17.11,2.7,14.64,14.71,38.64,6.18,53.57-4.57,5.9-16.34-47.98-22.48-55.97,1.11Z"/><path class="cls-7" d="M135,469.96c15.08-3.04,28.11-8.84,39.44-16.71-18.33,1.02-41.17-5.91-49.46-22.1,17.91-16.74,44.66-1.03,55.74,17.4,14.08-11.35,25.33-26.05,34.57-42.54-20.52,8.71-49.2,5.5-63.24-12.07,15.72-21.98,53.36-17.97,67.34,4.39,10.63-20.91,18.38-44.17,24.75-66.86-19.45,17.4-53.31,5.2-70.09-10.93,9.2-33.42,61.29-25.87,72.39,2.56,6.86-23.92,11.27-47.14,17.07-71.13-15.59,9.78-51.97-8.01-59.33-23.36-1.71-2.56.28-4.89,2.93-5.7,16.36-6.92,37.37-10.21,52.1,1.8,7.48,5.89,10.1,7.62,10.58,12,6.38-11.97,19.07-19.4,32.14-22.24-23.06-8.82-34.26-22.01-37.46-47.14,16.77-.48,33.63,2.5,49.22,8.69,16.38,4.1,15.52,27.23,5.65,37.55,31.58,3.7,41.97,33.66,43.23,64.52h-4.62c-2.04-28.44-10-57.25-35.85-60.98,28.45,14.47,4.19,54.9-11.6,69.78-13.44-11.59-23.89-52.35-12.23-67.2-18.49,6.15-27.67,25.34-35.56,50.55,30.59-3.13,52.5,19.67,38.37,49.52-21.68-.53-39.21-21.83-40.25-43.12-5.93,21.07-10.78,45.72-17.5,70.41,33.6-4.92,44.94,55.59,26.93,49.71-13.95-5.49-28.66-19.63-31.18-35.05-6.1,19.75-13.79,39.08-24.61,56.15,17.96,12.58,24.29,53.25,3.71,64.74-15.09-11.19-17.97-34.56-12.15-52.76-11.94,15.48-28.81,29.17-48.1,37.08,1.16,15.65-5.12,43.15-24.86,38.96-.24-12.01,5.06-27.08,15.04-35.25-5.41,1.69-10.3,2.49-15.25,2.41-13.05,13.11-34.44,5.5-47.74-4.07-5.26-14.56,42.76-20.04,49.88.99Z"/><path class="cls-9" d="M579.74,498.87c-15.66-16.05-42.64-3.71-57.19,9.87,17.19,7.03,37.68,5.54,53.63-4.02,2.14-1.28,4.5-3.54,3.56-5.86Z"/><path class="cls-9" d="M521.01,508.16c-21.18-13.65-37.27-32.89-48.74-55.07,54.9,37.14,48.38-30.54-10.72-25.29-7.95-23.37-11.68-48.61-11.61-73.28,9.48,14.67,22.63,28.57,38.63,34.33,16.56-26.66-13.04-47.25-38.34-45.4.5-26.45,8.66-52.98,7.37-79.38,10.29,15.65,30.77,25.69,47.63,17.26,4.07-27.1-28.37-44.26-52.35-37.89-37.62-58.19-74.54-28.02-79.26,30.29-4.22-21.25-27.78-46.22-45.97-39.2,3.62-17.54-1.44-36.78-13.5-50.07-3.41-4.33-9.84-6.14-12.23-.29-7.95,17.47,2.63,45.12,20.79,52.18-11.13,4.95-20.94,18.9-25.72,34.44-13.08-24.71-45.46-41.47-57.71-6.04-1.2,2.67-.36,5.41,2.36,6.62,15.51,11.64,35.26,8.68,53.36,5.83-4.34,15.67-5.28,32.01-5.77,48.32-18.85-4.41-45.79,7.62-51.62,26.36,17.03,12.67,43.9,1.38,51.38-17.74-.21,18.69-.35,38.84-2.62,54.11-.19.03-.38.06-.57.09.66,4.84-1.22,9.93-1.79,14.48l-.14-.56c-19.86-4.12-46.22.4-53.68,21.74,18.02,6.4,42.02.18,52.64-15.59-7.14,31.69-20.07,52.43-35.51,69.07-12.09-11.64-30.99-17.83-47.18-12.89-1.81,1.45-.98,4.36.21,6.35,7.73,13.58,25.11,19.14,39.38,14.24-16.68,15.99-35.47,28.79-52.79,45.92-11.35-11.38-36.68-26.02-49.9-14.77,5.53,16.62,26.64,24.9,43.63,21.25-13.28,14.19-24.71,31.91-32.41,50.99l-.3-.28c-20.1-4.2-35.11,25.16-18.05,37.39,12.77-2.96,26.56-20.69,20.49-33.94,1.65-5.4,3.86-10.63,6.51-15.67.17,10.16,7.25,20.7,16.89,24.17,1.96-.06,2.81-2.47,3.13-4.41,2.98-11.75,2.12-30.44-11.35-33.66,10.85-14.97,24.19-27.72,39.15-37.8-3.07,14.01,4.08,34.47,14.58,38.49,9.3-9.87,14.07-42.3.16-50.09,15.34-12.76,27.23-25.04,36.49-37.18.09,13.43,11.71,28.22,23.04,34.64,4.96-3.65,2.18-23.28,2.8-30.02.13-9.26-2.97-21.94-13.34-23.6,11.04-19.73,16.3-39.56,19.45-60.94,5.21,12.9,20.26,43.69,29.05,40.53,14.59-20.17-4.16-49.83-28-48.27,2.3-18.55,3.4-38.36,5.56-60.33,7.09,14.06,26.47,23.93,40.57,16.14,3.23-19.56-21.98-40.99-39.13-29.5,3.28-20.79,4.22-60.33,25.12-72.67-8.54,12.88-4.45,33.37,5.59,44.31,18.21-7.06,16.61-33.31,6.9-47.94,15.75.26,31.29,17.35,36.74,40.14,2.14,0,4.29-.03,6.43.05,5.03-43.66,27.35-91.19,67.32-39.98-23.29-5.82-58.36,14.76-47.61,41.37,14.96,4.76,48.31-6.89,54.76-24.32,3.71,18.76-.62,42.63-3.63,65.37-23.6-3.88-49.55,19.24-44.1,43.24,18.47,3.12,36.25-11.65,42.48-29.29-1.54,27.67-1.25,50.53,6.3,79.04l-.65,1.05c-21.45,8.74-33.93,36.48-23.99,57.72,22.37-2.72,30.16-27.08,27.89-47.84,7.87,24.85,21.69,50.46,38.64,68.65-10.22,17.07-7.93,44.68,9.13,55.62,10.59-7.93,9.76-28.25,3.95-43.56,10.81,8.45,22.74,14.2,35.55,16.15l-.34.09c1.01,13.24,9.98,26.96,22.75,31.26,5.74-10.96-3.93-25.92-15.37-30.66.06,0,.11,0,.17.01-10.06-3.37-19.3-7.8-27.74-13.1.08-.08.17-.16.25-.24-.51-.21-1.02-.42-1.52-.65v.07Z"/><path class="cls-8" d="M368.17,454.19c.61,4.24,2.53,8.41,3.13,12.61.2,1.36,1.14,8.63,2.12,9.99,4.14,2.73-.48-10.33-.13-12.21-1.92-5.38-3.75-18.77-7.85-21.79-.64,3.61,2.16,7.75,2.73,11.41Z"/><path class="cls-8" d="M332.09,454.7c-4.69-.08-20.4,3.04-22.05,7.28-.5,2.93,9.29-3.6,11.59-3.07,7.07-2.65,14.46-1.72,21.8-2.35.43-2.71-9.24-1.74-11.34-1.86Z"/><path class="cls-8" d="M330.92,482.94c-1.12,2.21-.82,4.91-1.57,7.18-.15.67-2.47,6.54.67,6.31,1.33-2.56,1.44-5.82,2.16-8.65.48-3.41,1.83-6.53,1.75-10.03-1.14-3.88-2.79,4.22-3.01,5.19Z"/><path class="cls-8" d="M365.02,391.15c-3.06,2.92-14.9,16.92-13.87,20.67,1.23,2.9,6.2-9.06,8.16-10.04,4.21-6.87,10.65-11.69,15.54-17.97-1.59-2.13-8.12,6.01-9.83,7.33Z"/><path class="cls-8" d="M393.4,380c2.8,3.67,6.6,6.87,9.04,10.77,1.16,1.27,4.63,9.07,6.79,9.32,2.36.25-.54-3.53-.91-4.55-4.26-6.62-8.76-13.24-14.79-18.38-2.52-2-5.66-6.47-9.04-6.24,1.67,3.58,6.44,5.87,8.91,9.08Z"/><path class="cls-8" d="M353.88,322.38c-4.02,2.13-12.93,23.29-6.41,23.96.26-6.28,1.2-12.69,4.75-18.09,3.02-5.25,7.98-8.46,12.66-11.98-1.32-2.76-9.52,4.43-10.99,6.12Z"/><path class="cls-8" d="M378.5,298.96c4.63,2.06,9.44,3.37,13.27,6.91,2.33,1.52,5.13,5.74,7.35,5.73,3.75-1.06-10.19-11.11-12.12-11.6-4.89-2.32-15.69-6.75-20.3-3.74,3.27,1.82,8.22,1.08,11.79,2.7Z"/><path class="cls-8" d="M222.73,317c-9.75-3.6-30.61-6.34-38.67,2.06-.05.35-.29,1.06.28.97,6.23-2.34,12.81-4.7,19.6-3.95,7.17-.22,14.09,1.91,20.93,3.84,4.93,1.22,10.89,5.45,15.82,5.08-4.57-4.04-12.2-5.72-17.96-8Z"/><path class="cls-8" d="M259.15,372.22c1.59,3.96,4.46,7.52,6.05,11.44.79,1.33,3,8.98,5.13,9.25,3.23.35-3.57-9.96-3.73-11.88-3.12-4.66-8.18-17.35-12.77-19.2.21,3.65,3.9,7,5.33,10.4Z"/><path class="cls-8" d="M281.25,289.43c.91,2.96,3.21,5.42,4.4,8.21.44.52,2.75,8.08,5.3,5.87-3.05-7.38-7.15-14.66-11.62-21.35-3.85-2.88,1.44,6.33,1.92,7.27Z"/><path class="cls-8" d="M228.73,228.71c6.58,1.8,13.66,2.87,19.91,5.51,4.19,1.3,11.98,6.46,15.67,6.27,3.82-1.67-18.08-9.67-20.16-10.33-9.43-2.38-24.94-7.11-33.87-4.24,5.39,1.98,12.69,1.21,18.45,2.79Z"/><path class="cls-8" d="M176.85,392.7c7.02.71,14.45.96,21.16,3.12,5.14,1.14,11.33,5.31,16.57,5.64,4.44-2.55-26.05-11.07-28.79-10.37-7.41-.76-22.44-1.61-28.25,2.54,5.92.63,13.13-1.59,19.31-.93Z"/><path class="cls-8" d="M216.24,437.1c1.1,4.21,2.67,8.55,2.31,13,.15,1.63-1.44,9.83.38,11.11,2.67,1.92,1.4-11.22,2.02-12.99-.17-5.75-4.25-19.77-8.84-22.68-.25,3.83,3.18,7.81,4.14,11.56Z"/><path class="cls-8" d="M147.27,435.59c5.77,1.92,12.01,3.41,17.19,6.6,3.71,1.73,9.44,7.62,12.77,8.09,4.08-1.66-17.5-13.84-20.14-13.98-6.2-2.41-20.64-6.39-26.29-3.27,4.84,1.71,11.38.85,16.47,2.57Z"/><path class="cls-8" d="M144.92,495.55c2.52-2.98,3.72-7.01,5.6-10.32.54-1.38,5.53-8.88,2.04-9.55-4.32,9.06-8.9,17.93-14.18,26.55-1.63,5.77,6.16-5.69,6.53-6.68Z"/><path class="cls-8" d="M102.75,464.5c7.8-.57,13.2-1.75,21.13,1.34,2.3.51,4.9,2.73,6.95,2.25,1.97-.63-.79-1.96-1.6-2.56-5.57-2.96-12.14-4.42-18.44-4.02-6.31.41-17.32,1.23-22.11,5.31-.05.72.73.31,1.16.36,4.24-.66,8.61-2.12,12.9-2.68Z"/><path class="cls-8" d="M278.92,176.68c2.89,2.48,6.66,4.15,9.37,6.8,1.19.78,5.57,6.48,7.47,5.9,3.1-.97-6.22-7.24-7.14-8.77-5.68-3.8-11.27-8.79-18.17-9.99-1.17,2.03,7.08,4.46,8.48,6.06Z"/><path class="cls-8" d="M358.34,236.81c3.4,1.07,7.25.94,10.6,2.05,1.51.14,8.75,4.02,9.16.74-8.59-3.83-18.66-5.63-28.11-5.35-5.12,1.64,7.28,2.24,8.34,2.56Z"/><path class="cls-8" d="M386.2,247.24v.02c.2.91,1.42.73,1.87,1.33.07.12.96,1.21,1.75.56.27-.45,1.17-1.29.71-1.77-.38-.39-1.06-.24-1.27-.89-.76-.1-1.1-.85-1.82-.95-.44-.19-.33-.87-1.26-.67-1.62.16-1.17,1.81,0,2.26l.03.11Z"/><path class="cls-8" d="M452.7,173.65c5.21-4.74,10.24-10.43,16.24-14.11,4.25-3.2,11.41-4.99,15.34-8.46.82-4.39-19.81,8.09-21.44,9.98-4.84,4.15-9.76,8.3-13.69,13.36-3.09,4.04-8.78,8.77-9.57,13.72,4.92-3.48,8.51-10.29,13.11-14.48Z"/><path class="cls-8" d="M435.95,205.18c-.45,2.24-1.36,15.64,1.09,16.03,2.43.71.6-4.42.8-5.72.1-1.9.18-3.74,0-5.64.19-3.49.57-6.91.96-10.36-.04-.32.2-.83.6-.85.05-.13.02-.76-.17-.9-3.29-.8-2.68,5.44-3.28,7.44Z"/><path class="cls-8" d="M435.14,233.74v.02c-.52.66.46,1.25.37,1.87-.04.1-.15,1.32.86,1.27.52-.2,1.93-.29,1.68-1.05-.27-.27-.42-.53-.24-.9-.08-.16-.22-.33-.32-.48-.02-.21-.01-.43,0-.64-.68-.49.25-.83-.66-1.41-1.08-.86-2.15.09-1.62,1.24l-.06.08Z"/><path class="cls-8" d="M512.24,220.13c7.58-2.5,15.35-6.07,23.18-7.46,5.79-1.55,13.98-.79,19.6-2.78,2.5-3.84-24.11.96-26.53,2.07-6.82,2.2-13.72,4.29-20.13,7.53-5.12,2.67-12.96,4.68-16.52,9.03,6.7-1.2,13.75-6.18,20.41-8.39Z"/><path class="cls-8" d="M466.68,289.76c-1.42,1.7-12.95,19.66-8.34,19.6,3.61-6.51,6.77-13.44,10.96-19.69,9.14-11.68,2.61-8.61-2.62.09Z"/><path class="cls-8" d="M540.66,315.31c8.43-1.48,17.27-3.74,25.79-4.05,5.68-.69,16.9.81,21.26-.86.27-.27,1.01-.74.35-.97-9.32-1.59-19.43-.65-28.84.13-7.58,1.18-15.25,2.16-22.55,4.61-5.84,1.99-14.41,3.33-18.65,7.65,7.19-.97,15.22-5.23,22.63-6.51Z"/><path class="cls-8" d="M567.21,400.02c7.5-1.3,15.33-3.65,22.92-3.74,5.71-.58,13.26,1.58,18.86.7,3-3.44-22.75-3.33-25.3-2.51-6.76,1.09-13.59,2.11-20.09,4.33-5.19,1.84-12.94,2.63-16.85,6.31,6.51-.1,13.87-3.92,20.46-5.08Z"/><path class="cls-8" d="M544.85,451.15c-1.69,10.74-3.85,22.89-3.72,33.91,2.91,4.51,2.39-10.09,2.96-11.62,1.68-12.91,3.36-25.78,5.81-38.56-3.09-.75-4.25,13.37-5.05,16.26Z"/><path class="cls-8" d="M608.23,451.35c5.4-2.34,10.7-5.58,16.38-7.04,1.98-.93,12.51-2,14.05-3.98,1.88-4.73-28.13,6.24-30.13,8.22-3.09,2.5-13.8,7.08-13.5,11.12.61.32.61-.38,1.13-.48,4-2.57,7.82-5.62,12.07-7.83Z"/><path class="cls-8" d="M659.63,478.88c6.15-.75,11.84-2.55,18.12-2.33,3.11-.33,9.33.81,11.21-.85,2.07-2.96-13.71-1.03-15.66-1.37-7.7,1.3-22.71,2.63-27.96,7.91,4.53.25,9.64-2.81,14.29-3.36Z"/><path class="cls-8" d="M622.71,496.57c1.3,3.85,3.82,7.42,4.99,11.28.81,1.34,2.03,10.7,4.99,9.16-2.08-10.55-6.89-21.09-13.28-29.8-4.6-3.75,2.93,8.19,3.3,9.36Z"/><path class="cls-7" d="M137.54,600.19c-2.65,3.03-10.19,16.13-8.1,19.45,1.91,2.2,3.26-8.35,5.04-9.65,2.33-6.42,7.4-10.96,10.99-16.58-1.82-1.98-6.51,5.35-7.92,6.78Z"/><path class="cls-7" d="M169.51,527.95c-7.59-3.63-17.26-10.22-25.78-9.21-.34.31-1.04,1.13-.61,1.51,4.52,1.06,9.44,1.48,13.51,4.04,8.23,3.02,16.09,9.72,25.2,9.02,1.51-1.42-10.88-3.74-12.32-5.35Z"/><path class="cls-7" d="M167.46,578.17c1.04,3.65,3.33,7.05,4.27,10.71.76,1.38,1.41,10.08,4.46,8.7-1.5-9.93-5.67-20-11.39-28.31-4.31-3.65,2.35,7.78,2.66,8.9Z"/><path class="cls-7" d="M214.64,530.93c.57,5.82,2.17,11.16,1.71,17.07.2,2.94-1.18,8.76.38,10.57,2.85,2.36,1.84-14.86,1.83-16.73-1.02-6.47-2.13-20.29-6.91-24.38-.35,4.25,2.58,9.08,2.99,13.47Z"/><path class="cls-7" d="M269.79,477.9c1.82,6.14,4.5,11.6,5.22,18.05.8,3.12.52,9.59,2.41,11.31,3.26,1.64-.89-14.14-.89-16.16-2.44-7.66-6.37-22.64-12.7-27.08.63,4.62,4.6,9.25,5.94,13.88Z"/><path class="cls-7" d="M214.23,475.31c5.38,3.13,21.13,7.44,25.97,2.64,1.2-2.41-7.71.37-9.26-.33-10.09-.5-18.29-6-27.17-10.07-1.51,2.24,8.51,6.47,10.46,7.75Z"/><path class="cls-7" d="M249.75,416.15c5.14-1.16,10.21-3.61,15.33-4.68,1.79-.66,11.4-1.65,12.51-3.79,1.3-3.23-13.19,2.17-15.25,2.03-8.87,3.11-18.46,5.03-26.38,10.29.5,2.37,11.39-3.65,13.79-3.85Z"/><path class="cls-7" d="M299.76,403.58c2.95,4.78,6.98,9.21,9.56,14.17,1.23,1.64,4.84,11.2,7.2,11.96,3.88.98-7.78-17.38-8.88-18.99-3.46-4.29-12.47-20.27-18.44-17.23,4.11,2.28,7.82,6.12,10.57,10.1Z"/><path class="cls-7" d="M258.6,348.25c7.34-1.51,23.83-9.53,26.04-16.5-.28-2.44-3.71,2.05-4.71,2.57-3.07,3.05-6.81,5.17-10.57,7.19-7.9,4.82-17.17,5.73-26.04,7.29.05,2.97,12.79.02,15.28-.55Z"/><path class="cls-7" d="M311.22,325.87c3.71,2.32,7.94,4.3,11,7.5,1.33.97,6.21,7.71,8.37,7.31,3.56-.38-9.69-11.65-11.12-12.56-4.52-3.12-14.56-8.83-19.61-6.33,3.05,2.14,8.02,2.01,11.35,4.07Z"/><path class="cls-7" d="M278.2,263.05c-7.16-3.47-27.58-8.68-32.52,0-.05,2.06,2.11-.22,3.13-.42,2.56-1.1,5.27-1.89,8.11-1.95,12.52.26,24.42,4.93,33.96,12.97,2.28-2.51-10.03-9.64-12.69-10.6Z"/><path class="cls-7" d="M311.72,199.12c1.27,5.51,3.76,11.01,4.79,16.53.69,1.94,1.47,12.21,3.6,13.57,3.26,1.59-1.94-14.38-1.82-16.43-1.73-5.53-3.03-11.26-5.36-16.57-1.68-3.61-2.58-9.76-5.99-11.88.08,4.81,3.65,9.98,4.77,14.78Z"/><path class="cls-7" d="M328.96,256.54c-.44,5.43.08,10.64-1.65,15.92-.44,2.74-3.14,7.67-2.1,9.69,2.26,2.92,5.3-13.05,5.55-14.84.38-6.31,1.61-19.08-2.69-23.64-.91,3.89,1.25,8.74.89,12.87Z"/><path class="cls-7" d="M413.08,262.03c5.59-3.53,11.22-7.67,17.47-9.83,4.49-2.07,11.55-2.31,15.64-5.05,1.94-4.68-25.86,6.15-27.51,8.39-5.88,3.64-17.67,12.02-19.17,18.51,4.72-2.99,8.62-8.94,13.57-12.03Z"/><path class="cls-7" d="M469.72,256.16c5.06,2.5,10.8,4.63,14.88,8.64,1.8,1.16,7.94,9.61,10.48,9.71,3.63-.42-9.51-11.65-10.79-13.1-6.99-5.03-21.26-11.68-29.47-10.61,3.93,2.93,10.38,3.15,14.9,5.37Z"/><path class="cls-7" d="M429.34,331.58c-8.82,6.04-18.53,15.83-22.59,25.47.59,3.14,2.01.01,2.93-1.24,2.7-4.04,5.32-8.3,8.95-11.59,7.08-8.69,16.84-13.85,26.22-19.66-1.28-2.67-13.11,5.53-15.5,7.02Z"/><path class="cls-7" d="M468.51,357.86c4.24,3.9,8.7,7.26,11.33,12.55,1.95,2.71,2.5,7.25,5.11,9.2,4.65.64-7.8-18.51-10.2-19.38-3.73-3.61-13-10.8-17.98-9.38,3.08,2.88,8.49,3.97,11.73,7Z"/><path class="cls-7" d="M440.13,434.13c-3.62,6.32-10.94,25.88-8.48,32.57,1.89,2.25,2.06-7.35,2.55-8.53,2.42-12.91,8.16-24.52,15.13-35.58.28-.52.64-.92,1.14-1.17.26-.1.4-.17.26-.38-3.59-1.75-8.74,10.47-10.61,13.1Z"/><path class="cls-7" d="M478.9,441.22c7.72,3.45,13.33,5.41,19.13,12.55,1.77,1.36,4.07,7.23,6.27,5.6-4.36-10.87-16.05-17.89-26.98-20.89-1.35-.47-14.55-4.33-12.44-.89,4.57.97,9.53,2.02,14.03,3.63Z"/><path class="cls-7" d="M497.29,511.98c-.14,4.83.2,26.66,3.24,29.24,2.88,1.76-1.14-13.23-.32-15.34-.74-5.32-.48-10.72-.8-16.06-.36-3.72,1.41-9.24-.54-12.4-2.24,4-1.13,10-1.58,14.57Z"/><path class="cls-7" d="M552.73,532.98c1.66,2.39,4.36,4.08,5.94,6.51.96,1.01,3.6,7.21,5.78,4.99-2.48-6.02-10.15-14.23-15.94-17.35-4.43-.88,3.57,4.94,4.21,5.85Z"/><path class="cls-7" d="M545.43,503.12c5.71-1.02,11.54-2.87,17.32-2.94,3.72-.47,11.63,1.15,14.38-.46,2.52-3.22-19.6-1.73-21.69-1.08-6.9,1.36-21.03,4.01-25.11,9.43,4.88-.41,10.08-4.05,15.1-4.94Z"/><path class="cls-8" d="M501.2,362.7c-8.88,10.66-8.48,22.91-19.4,33.56-.03.35-.33,1.1.27.99,6.94-2.54,9.68-10.79,12.58-16.9,3.52-12.28,12.09-21.71,21.76-29.63-1.32-3.01-13.85,9.7-15.2,11.98Z"/><path class="cls-3" d="M247.91,181.52c4.99,4.5,11,8.39,15.73,13.09,1.95,1.46,9.61,10.8,12.47,11.07,3.47-.21-7.52-9.14-8.52-10.39-6.35-6.31-13.27-12.06-20.65-17.12-4.07-2.5-8.94-7.64-13.66-7.9,3.54,4.46,10.27,7.33,14.63,11.25Z"/><path class="cls-3" d="M204.55,242.95c5.16,3.14,23.81,12.08,28.85,10.43,2.96-1.75-13.08-4.51-14.65-6.32-9.44-3.07-17.27-9.05-26.07-13.44-1.69,2.16,9.84,7.82,11.87,9.33Z"/><path class="cls-3" d="M249.98,283.25c0,1.81,1.42,3.29,1.71,5,.1.86.9,5.07,3.22,3.54.46-1.71-1.19-3.2-1.14-4.94-1.43-2.64-1.61-5.66-3.48-8.05-2.73-1.65-.61,3.42-.31,4.45Z"/><path class="cls-3" d="M257.29,307.98c-.21,3.31,1.05,6.67,1.16,9.92.2.58-.21,7.3,1.84,7.95,2.84.91-.2-7.78.41-9.55-1.33-5.7-.7-11.86-3.05-17.26-2.46.21-.09,7.03-.35,8.94Z"/><path class="cls-3" d="M188.27,340.46c-1.46,2.08-1.88,4.84-3.41,6.85-.66,1.17-4.88,5.17-2.17,6.38,4.15-3.37,8.84-13.1,9.11-18.5-1-3.97-2.95,4.37-3.53,5.26Z"/><path class="cls-3" d="M138.67,259.03c4.59,6.49,10.14,12.69,14.16,19.47,2.94,4.14,7,14.1,10.5,16.55,4.06.96-9.4-18.41-10.28-20.64-4.73-6.57-9.3-13.35-14.87-19.26-3.96-4.05-8.24-10.88-13.47-12.75,3.26,5.84,9.98,10.96,13.97,16.62Z"/><path class="cls-3" d="M125.96,339.87c-1.02,13.19-1.25,29.41,1.47,42.05,2.56,2.83,1.52-1.75,1.51-3.38-.49-6.06-1.36-12.23-1.07-18.31-.51-7.8.16-15.59.45-23.38.01-5.55,2.61-12.81,1.17-17.95-2.97,5.9-2.6,14.33-3.53,20.96Z"/><path class="cls-3" d="M79.86,416.33c-2.4,7.39-7.39,29.63-4.62,35.98,2.28,3.09,1.66-16.56,3.16-18.62.72-6.59,2.65-12.93,4.26-19.34.97-4.59,4.79-10.15,4.32-14.66-3.91,4.07-5.12,11.32-7.13,16.64Z"/><path class="cls-3" d="M74.85,301.84c7.26,5.66,28.67,19.8,36.85,20.13,4.26-.71-17.41-8.91-18.85-11.12-6.8-3.57-12.93-8.21-19.22-12.59-4.59-2.96-9.15-9.03-14.15-10.63,3.18,5.67,10.36,9.93,15.37,14.21Z"/><path class="cls-3" d="M39.17,366.46c1.91,6.28,5.49,12.28,8.01,18.24,1.07,2.05,5.24,13.15,8.03,14.02,3.6,1.23-6.95-15.17-6.98-17.49-3.07-5.84-5.3-12.09-8.1-18.05-2.11-4.12-2.96-10.85-6.4-13.8-.07,5.57,3.75,11.69,5.44,17.08Z"/><path class="cls-3" d="M23.07,421.72c5.81-2.27,11.82-4.63,17.97-5.83,1.17-.53,12.9-1.92,14.89-4.58,1.54-2.98-10.85,1.65-12.37,1.71-12.94,2.23-25.97,8.21-36.84,14.48,5.73.77,11.18-3.77,16.36-5.78Z"/><path class="cls-3" d="M339.14,182.01c2.55-14.17,8.02-29.03,11.55-43.1-1.52-7.36-7.63,19.88-8.85,21.46-1.98,8.14-4.42,16.28-5.35,24.63-.57,5.83-2.87,13.89-.63,19.21,2.01-6.61,1.47-15.27,3.29-22.21Z"/><path class="cls-3" d="M511.47,280.25c-1.53,1.41-1.74,3.73-2.75,5.42-.71,1.09-2.77,5.16.1,5.27,1.07-.8,1.04-2.35,1.54-3.49,1.15-2.23,2.24-4.49,3.3-6.76,4.31-5.89.31-5.71-2.19-.44Z"/><path class="cls-3" d="M499.76,303.5c-1.03,1.74-.56,3.95-1.11,5.79-.12.33-1.03,3.6-.16,4.62.89.44,1.86.73,1.96-.57.26-4.72,1.82-9.09,2.17-13.77-1.11-3.31-2.68,2.95-2.87,3.93Z"/><path class="cls-3" d="M542.9,273.77c5.04-1.31,10.08-3.83,15.23-4.47,1.9-.73,11.17,0,12.83-1.49,1.42-1.45-1.56-1.35-2.55-1.54-13.42-.33-26.49,4.65-38.18,10.95l.21.68c1.72-.39,1.63-1.47-.27-1.37l.61,1.96c4.12-1.24,8.05-3.32,12.12-4.73Z"/><path class="cls-3" d="M556.04,348.52c.2,3.53,2.85,20.94,5.92,21.92,2.94.75-2.28-9.62-1.75-11.68-1.91-6.96-2.51-14.14-2.48-21.32-3.12-.61-1.8,8.95-1.69,11.08Z"/><path class="cls-3" d="M590.61,328.99c5.6-1.66,10.63-4.1,16.57-4.42,2.91-.61,8.82.16,10.49-1.55,1.85-3.22-15-.2-16.92.23-6.29,1.89-19.78,5.79-22.66,11.55,4.21-.68,8.27-4.58,12.53-5.81Z"/><path class="cls-3" d="M625.61,380.63c4.57,8.4,4.51,17.01,8.29,26.44,3.11,1.93,1-3.29.86-4.75-2.14-7.19-2.97-14.78-6.43-21.55-2.6-3.78-4.48-7.89-6.49-12.01-.89-3.16-2-.69-1.27,1.3.9,3.86,3.26,7.11,5.05,10.57Z"/><path class="cls-3" d="M658.04,359.67c4.45-4.98,16.28-17.16,12.6-24.34-2.85-1.59-1.04,2.68-1.79,4.19-3.57,11.69-14.42,19.4-21.7,28.75,1.71,2.1,9.03-7.09,10.89-8.6Z"/><path class="cls-3" d="M697.31,389.57c2.51,4.44,6.47,8.38,8.41,13.06,1.3,1.61,2.52,10.4,4,11.85,3.92,1.41-1.85-13.28-2.83-14.86-4.96-7.82-10.41-15.21-15.97-22.61-2.51,1.51,5.17,10.26,6.39,12.55Z"/><path class="cls-3" d="M738.71,350.31c-3.31,4.24-5.95,9.25-9.68,13.09-2.11,2.72-8.33,7.05-8.79,10.01.4,3.77,12.13-10.47,13.41-11.86,3.96-5.86,13.02-17.12,12.65-23.83-3.34,3.08-4.72,8.89-7.6,12.6Z"/><path class="cls-3" d="M762.09,399.33c1.67,5.04,4.1,8.18,3.48,13.98.09,2.07-1,3.89,0,4.99,3.02,2.43,2.49-9.1,2.08-10.65-2.04-6.16-4.23-13.21-9.46-17.38-1.99,1.1,3.62,7.01,3.91,9.06Z"/><path class="cls-3" d="M795.78,399.39c12.44,3.15,10.32,3.92,18.89,10.97,4.18-1.17-8.5-11.01-10.89-11.01-4.2-1.52-15.63-4.63-19.14-2.2,2.89,2.07,7.72,1.12,11.14,2.25Z"/><path class="cls-9" d="M389.77,174.57c-2.14-7.89-5.55-15.76-11.72-21.14-.51-.45-1.12-.9-1.79-.83-.64.06-1.13.57-1.56,1.05-8.52,9.61-13.5,22.31-13.77,35.15-.12,5.82.7,11.69,2.83,17.11,3.98,10.12,12.66,18.27,23.01,21.61l.45,2.81c6.61-17.72,7.52-37.51,2.56-55.76Z"/><path class="cls-7" d="M372.64,179.09c-.04,12.26,4.88,35.4,13.8,43.83,2.47.79-.59-3.2-.89-4.24-4.98-9.16-8.22-19.21-9.8-29.5-1.83-10.87-.48-21.58.58-32.53-.07-.42-.2-.57-.36-.42-3.51,6.33-3.14,15.6-3.32,22.85Z"/><path class="cls-6" d="M243.62,125.61c.27.36.6.7.98,1.02l.42.34c.64.53,1.13.86,1.48,1,1.82,1.5,3.22,2.66,4.2,3.49.25.33-4.49,6.41-14.23,18.25-.45.54-1.2,1.43-2.25,2.67-.52-.1-1.2-.5-2.03-1.18l-1.15-1-4.11-3.38-3.42-2.85-3.4-2.8-5.47-4.53c-1.01-.83-1.98-1.61-2.89-2.32l-.2-.16-2.65-2.09c-1.53-1.26-2.42-2.21-2.67-2.84.21-.23.49-.56.84-.98l.71-.87,2.47-3.07c2.85-3.46,4.63-5.19,5.36-5.18l6.2,5.34,5.26,4.42.2.2,7.47,6.27,1.01-.38c1.66-2.29,3.34-4.46,5.02-6.51,1.68-2.04,2.64-3,2.86-2.85Z"/><path class="cls-6" d="M240.39,101.99c.4-.61.9-1.18,1.5-1.71.6-.52,1.19-1,1.78-1.42l.8-.58c1.26-.91,2.27-1.55,3.04-1.93l-.02-.02.51-.16c3.14-1.39,6.09-1.89,8.83-1.53l-.02-.02c.65.1,1.53.33,2.66.68,1.13.36,1.82.68,2.08.98l.56.35.53.44c.91.6,1.6,1.16,2.06,1.69.46.53.82.93,1.08,1.21l-14.58,12.67.51.58c.31.21.59.46.84.76s.46.53.62.69c.15.17.31.32.47.46s.29.26.38.35c.09.1.22.19.39.29.17.09.27.16.32.2.05.04.16.11.35.19s.36.17.51.26c.15.09.33.14.55.15l-.02-.02.52.2c.44.05.9-.04,1.38-.27.53-.71.67-1.42.44-2.15s-.61-1.56-1.15-2.48c.32-.49.87-1.07,1.65-1.75l2.31-1.92,6.53-5.67c1.11,1.56,1.83,3.25,2.17,5.07l.02-.02c.23,1.5,0,3.16-.7,4.99-2.55,4.47-4.34,7.16-5.38,8.06-.19.16-.35.29-.49.36l-.41.35-.14.16-.16.14c-.09.08-.22.17-.38.27-.06.17-.17.33-.33.48l-1.69,1.16c-.05.11-.2.27-.46.49-.25.22-1.06.64-2.41,1.25l.02.02-.53.25-.55.23c-2.22,1.02-4.53,1.42-6.92,1.22s-4.52-1.02-6.38-2.45c-.22-.18-.56-.45-1.03-.79-.47-.35-.77-.6-.9-.75l-.74-.85c-.17-.2-.3-.36-.38-.48l-.23-.26c-2.17-2.5-3.31-5.31-3.41-8.42-.1-3.11.78-6.13,2.63-9.04l.32-.49c.53-.65.88-1.15,1.05-1.5v.03ZM253.59,106.49l.17-.55c-1.31-1.1-2.21-1.75-2.7-1.96s-.93-.37-1.32-.48c-.74-.23-1.36-.12-1.86.31-.5.44-.71,1.05-.64,1.86.13,1.42.8,2.99,2.01,4.71.71-.7,1.39-1.33,2.03-1.89l2.3-2Z"/><path class="cls-6" d="M278.89,76.57l-.22-.41-.62-1.31c-.86-1.82-1.82-3.93-2.86-6.32l-.06-.02,1.11-.61c3.59-1.94,5.94-3.18,7.04-3.7l9.87-4.67c3.37-1.6,6.51-2.23,9.4-1.89,1.11.3,2.19.91,3.22,1.82,1.04.91,1.89,2.08,2.58,3.52,1.32,2.78.57,6.03-2.23,9.75,2.38-.42,4.43-.25,6.16.49,1.73.75,3.03,2.04,3.91,3.89,1.55,3.28,1.26,6.46-.87,9.54-1.56,2.29-3.99,4.22-7.29,5.79l-6.35,2.91c-2.73,1.29-6.31,3.07-10.75,5.33-.79-.65-2.55-3.85-5.28-9.61-2.73-5.76-4.98-10.59-6.74-14.5ZM298.3,71.73c.03-.67-.14-1.39-.5-2.15-.7-1.48-1.7-2.23-3-2.23s-2.53.26-3.69.81c-1.16.55-1.54,1.25-1.13,2.09.72,1.51,1.48,3.04,2.3,4.59l.57,1.1c.28.52.74.69,1.38.51l.98-.62c2.03-1.27,3.05-2.64,3.09-4.11ZM300.46,88.06c3.66-1.73,4.88-3.88,3.67-6.43-.77-1.62-1.78-2.48-3.03-2.56-1.12-.06-2.61.32-4.47,1.13l-.61.29.18,1.37c.59,1.5,1.22,2.96,1.88,4.36.67,1.41,1.2,2.14,1.59,2.21l.78-.37Z"/><path class="cls-6" d="M350.53,63.53c0,.16.02.25.02.28l.05.18c.59,2.51.59,4.91,0,7.19h.02c-.94,2.75-2.63,5.12-5.07,7.09-2.44,1.97-5,3.3-7.68,3.99-2.68.68-4.97.99-6.87.91-1.9-.07-3.72-.42-5.48-1.04-1.75-.62-3.11-1.3-4.07-2.04-2.28-1.74-3.93-4.6-4.94-8.58-.04-.14-.04-.25-.02-.36l-.09-.36c-.06-.05-.1-.1-.11-.17l-.02-.26h-.02c-.39-2.72-.27-4.6.35-5.65-.04-.17.02-.38.17-.65v.02s.21-.63.21-.63c1.21-2.74,2.85-4.83,4.94-6.26l.72-.5c.88-.74,2.18-1.46,3.92-2.16l.71-.25c.1-.04.31-.11.64-.21.32-.1.54-.19.67-.27l.98-.23s.09-.05.15-.06.13-.02.21-.03l-.03-.02c.1.02.25,0,.43-.04.04-.08.14-.13.29-.17,3.29-.84,6.25-.87,8.9-.11l.51.09c5.56,1.12,9.07,4.54,10.53,10.28ZM336.44,67.26c-.83-3-1.78-4.92-2.85-5.78-.45-.35-.91-.47-1.38-.35-.48.12-.83.5-1.05,1.15s-.29,1.59-.21,2.82c.08,1.24.24,2.31.47,3.23.23.92.48,1.69.73,2.33s.55,1.3.91,1.99c.35.69.77,1.24,1.24,1.64s.93.55,1.37.44c1.68-.43,1.94-2.92.78-7.48Z"/><path class="cls-6" d="M371.49,64.35v.35c.06.54.11.94.17,1.2.06.25.25.54.56.87.31.33,1.24.42,2.78.28l.63-.03c.23-.02.44-.06.62-.13l.81,8.71-12.77,1.15-.79.12-.26.02c-.58.05-1.22-.08-1.94-.39-.72-.31-1.26-.6-1.62-.85s-.68-.6-.95-1.03c-.51-.8-.85-1.61-1.01-2.42-.16-.81-.29-1.82-.4-3.04l-1.17-12.93-2.75.25-.32-3.27-.3-3.34,2.68-.24-.7-7.73,7.21-.65,7.21-.67.72,7.7,3.9-.35.33,3.34.3,3.31-3.8.34.85,9.43Z"/><path class="cls-6" d="M391.54,60.31l.23.04.56.04c.53.04.95.03,1.25-.03l1.27-.07c2.16,0,3.5-.49,4-1.45.25-.48.41-1.11.46-1.87-.08-.16-.11-.46-.08-.9.03-.44-.16-.91-.57-1.43-.41-.51-.92-.79-1.53-.84h-.12c-1.5-.12-2.33,1.1-2.52,3.64-.09.12-.22.16-.4.11s-.61-.09-1.29-.14l-12.06-.86c.15-1.07.52-2.21,1.09-3.42,1.09-2.33,2.99-3.93,5.71-4.8,2.72-.86,5.38-1.25,7.99-1.16l1.41.03.75-.02c.09,0,.18.04.28.09l.3.02,1.06.03c.22.02.71.11,1.46.27l.67.14c.11.02.28.04.51.06.23.02.72.1,1.46.26.74.16,1.66.49,2.75,1.01,3.7,1.77,5.8,4.8,6.31,9.1.21,1.82.25,3.82.09,6,.08.37.12.7.09.99l-.23,1.6-.19,2.71s.01.17,0,.4l-.16,1.59-.02.21c.04.08.06.19.05.33l-.04.21-.04.49c-.11,1.48.02,2.9.38,4.26l.2.53-10.57-.75-.84-.08c-.62-.04-1.1-.07-1.43-.08-.43-.97-.82-2.28-1.15-3.94-.23.41-.61.86-1.14,1.36-.53.5-.91.75-1.14.73-2.39.96-4.19,1.47-5.4,1.54-1.8.17-2.83.24-3.09.23-3.73-.27-6.45-1.76-8.16-4.48-.86-1.39-1.22-2.96-1.1-4.71.27-3.79,2.2-5.98,5.78-6.59.92-.15,2.68-.26,5.29-.3l.78-.02,1.09-.09ZM398.82,66.28l.08-.75c.06-.78.05-1.53-.03-2.26-.36.16-.87.34-1.54.52s-1.21.35-1.61.48c-.4.14-.78.4-1.13.79-.35.39-.55.94-.6,1.66-.05.72.13,1.39.55,2.01.42.62.9.96,1.45,1,1.17.08,2.03-.28,2.59-1.08l.06-.23.13-1.45.05-.7Z"/><path class="cls-6" d="M426.9,52.06l6.08,1.56c0,.34,0,.87.02,1.6s.03,1.46.04,2.19v1.81c.99-1.37,1.58-2.12,1.76-2.25l.48-.36c2.08-1.75,4.71-2.22,7.87-1.39,1.5.39,2.81,1.21,3.93,2.46,1.12,1.25,1.87,2.7,2.25,4.34.38,1.64.36,3.26-.05,4.87-.05.18-.11.32-.18.41l-3.62,13.95-1.1,4.34-13.27-3.45,2.9-11.35.69-2.29c.6-2.31.29-3.63-.94-3.95-1.32-.34-2.26.58-2.83,2.78-.13.48-.21.82-.24,1l-.09.34-.08.39-3.14,12.09-6.77-1.73-6.78-1.76,3.51-13.62,3.52-13.57,6.03,1.59Z"/><path class="cls-6" d="M462.27,85.32l-.06.2-1.31,3.26c-.24.59-.56,1.29-.96,2.09-.4.8-.62,1.21-.68,1.22l-.41-.12-7.89-3.24-.95-.29c-2.25-.93-3.62-1.52-4.08-1.78l.06-.15.15-.42.4-.98c1.17-2.85,2.18-5.19,3.04-7.04l7.09-16.6.27-.65,1.7.67.36.17.63.26.53.24.29.09,1.56.64.33.11,7.36,3.12c.06,0,.11.02.14.03.03.01.03.06,0,.15l-.82,2.07c-.55,1.38-1.28,3.23-2.18,5.55s-1.55,3.96-1.94,4.92l-1.13,2.7-.47,1.15-.41,1.18-.28.67s-.03.04-.06.08l-.28.67ZM473.41,57.95l-2.42,5.95-13.36-5.48c.57-1.39.96-2.38,1.18-2.99l1.18-2.94,13.42,5.46ZM459.78,52.4l.31-.13-.09.22-.22-.09Z"/><path class="cls-6" d="M497.37,88.11l-1.82-1.11c-1.09-.65-2.78-1.64-5.08-2.97.1-.54,0-1.11-.31-1.71-.31-.6-.76-1.08-1.35-1.43s-1.15-.51-1.68-.47c-.53.04-.94.29-1.22.76-.28.47-.35,1-.22,1.59.13.59.47,1.15,1.03,1.69.55.54,1.13,1.02,1.74,1.46.61.43,1.32.93,2.14,1.49.82.56,1.43,1.01,1.82,1.34.39.33.9.74,1.52,1.22,1.1.87,2.03,1.72,2.78,2.54s1.38,1.97,1.87,3.44c.15.21.27.62.36,1.22.05,1.29-.36,2.86-1.25,4.71-1.22,1.89-2.94,3.19-5.18,3.89-2.23.7-4.58.77-7.03.22-.21-.02-.44-.08-.7-.2l-.78-.25c-1.53-.4-2.77-.88-3.72-1.45-.69-.16-1.67-.61-2.95-1.37l-.49-.32-1.47-.87-.23-.11c-2.08-1.24-4.11-2.9-6.09-4.98v.02c-4.33-4.26-5.58-7.95-3.74-11.06.68.48,1.65,1.09,2.91,1.84,1.26.75,2.98,1.76,5.14,3.02,2.17,1.26,3.81,2.22,4.92,2.89-.06.07-.15.2-.26.39-.35.59-.34,1.25.04,1.99s.97,1.34,1.76,1.81c.79.47,1.51.69,2.15.65.64-.04,1.11-.3,1.4-.79.29-.49.41-.98.35-1.46-.06-.48-.29-.95-.69-1.41-.4-.46-.79-.85-1.17-1.17-.38-.33-.89-.71-1.53-1.17-.64-.45-1.1-.8-1.39-1.05-.29-.25-.73-.6-1.3-1.06s-1.09-.87-1.53-1.21-.94-.77-1.51-1.27c-.57-.5-1.06-.96-1.47-1.38-.42-.42-.84-.9-1.28-1.45-.44-.55-.79-1.08-1.05-1.58-1.28-2.47-1.2-4.91.24-7.33,1.29-2.16,2.89-3.47,4.82-3.93,2.4-.55,5.45-.03,9.15,1.57.38.15.94.35,1.66.59s1.21.44,1.46.58c.24.14.39.25.46.33l2.64,1.38,3.45,2.27c.13.09.5.35,1.12.78,1.53,1.07,2.8,2.13,3.82,3.18,1.02,1.05,1.8,2.38,2.34,4,.54,1.61.56,3.02.06,4.23l-.12-.12-4.55-2.43Z"/><path class="cls-6" d="M513.79,114.08l-.24.25c-.35.42-.6.74-.73.96-.14.22-.21.56-.22,1.01s.57,1.17,1.76,2.17l.47.43c.18.15.36.27.53.35l-5.61,6.7-9.81-8.26-.64-.48-.2-.17c-.44-.37-.81-.92-1.09-1.65-.29-.73-.46-1.31-.53-1.75-.07-.44-.05-.9.06-1.4.21-.93.54-1.73,1.01-2.42s1.09-1.49,1.87-2.42l8.36-9.93-2.12-1.78,2.1-2.53,2.16-2.56,2.06,1.74,5-5.93,5.54,4.67,5.55,4.65-4.96,5.93,2.99,2.52-2.14,2.58-2.14,2.55-2.92-2.46-6.1,7.24Z"/><path class="cls-6" d="M540.4,116.58c.62.4,1.19.89,1.71,1.49.52.6,1,1.19,1.42,1.77l.58.8c.91,1.26,1.56,2.27,1.94,3.04l.02-.02.17.51c1.39,3.14,1.91,6.08,1.54,8.83l.02-.02c-.1.65-.33,1.53-.68,2.66s-.68,1.82-.97,2.08l-.35.56-.44.54c-.59.91-1.15,1.6-1.68,2.06-.53.46-.93.82-1.2,1.08l-12.7-14.55-.58.51c-.21.31-.46.59-.75.85s-.52.46-.69.62c-.17.15-.32.31-.46.48-.14.16-.25.29-.35.38-.09.09-.19.22-.28.39-.09.17-.16.27-.21.32s-.11.17-.19.35c-.08.19-.17.36-.26.51s-.14.33-.15.55l.02-.02-.2.52c-.05.44.04.9.27,1.38.71.52,1.42.67,2.16.44.73-.23,1.56-.62,2.48-1.15.49.32,1.07.87,1.75,1.65l1.92,2.31,5.69,6.51c-1.56,1.11-3.25,1.84-5.06,2.18l.02.02c-1.5.23-3.16,0-4.99-.69-4.48-2.54-7.17-4.33-8.08-5.36-.17-.19-.29-.35-.37-.49l-.35-.41-.16-.14-.14-.16c-.08-.09-.17-.22-.27-.38-.17-.06-.33-.17-.48-.33l-1.17-1.69c-.11-.05-.27-.2-.49-.46-.22-.25-.64-1.05-1.26-2.4l-.02.02-.25-.53-.23-.55c-1.02-2.22-1.44-4.52-1.23-6.92.2-2.39,1.01-4.52,2.43-6.39.18-.22.44-.57.79-1.03.35-.47.6-.77.75-.9l.85-.74c.2-.17.36-.3.47-.38l.27-.23c2.5-2.18,5.3-3.32,8.41-3.43,3.11-.1,6.13.77,9.05,2.62l.49.32c.65.53,1.15.88,1.51,1.05h-.03ZM535.93,129.78l.55.17c1.1-1.31,1.75-2.21,1.95-2.7.21-.49.36-.93.48-1.32.23-.74.12-1.36-.31-1.86-.44-.5-1.06-.71-1.86-.63-1.42.14-2.98.81-4.71,2.02.7.71,1.33,1.39,1.89,2.02l2,2.29Z"/></svg>