<?xml version="1.0" encoding="UTF-8"?><svg id="Calque_1" xmlns="http://www.w3.org/2000/svg" viewBox="0 0 483.71 140.67"><defs><style>.cls-1{fill:#efecec;stroke:#008c5b;stroke-width:1.16px;}.cls-1,.cls-2{stroke-miterlimit:10;}.cls-2{fill:none;stroke:#163132;stroke-width:17.76px;}.cls-3{fill:#334020;}.cls-4{fill:#728758;}.cls-5{fill:#163132;}.cls-6{fill:#ff8b5a;}.cls-7{fill:#718856;}.cls-8{fill:#51603c;}.cls-9{fill:#98b778;}</style></defs><circle class="cls-1" cx="85.47" cy="58.77" r="57.51"/><path class="cls-6" d="M107.53,65.8c-.75-1.63-3-2.75-5.55-2.76h-17.26s-17.26,0-17.26,0c-2.56,0-4.8,1.12-5.55,2.76-2.04,4.43-2.21,9.24-1.28,13.86,1.13,5.6,3.79,11,6.43,16.36.72,1.46,1.5,2.98,3.19,4.02,1.3.8,7.84,1.24,14.46,1.45,6.62-.2,13.16-.64,14.46-1.45,1.69-1.04,2.47-2.57,3.19-4.02,2.65-5.36,5.31-10.76,6.43-16.36.93-4.62.76-9.43-1.28-13.86Z"/><circle class="cls-2" cx="85.47" cy="58.77" r="45.1"/><path class="cls-5" d="M181.02,59.29c-.1.4-.15.84-.15,1.3v.5c0,.77.05,1.31.15,1.65,0,2.18-.01,3.87-.03,5.05-.09.38-7.22.56-21.39.54-.65,0-1.73-.02-3.23-.05-.23-.43-.35-1.15-.34-2.15l.04-1.41v-4.92s.03-4.12.03-4.12v-4.07s.03-6.57.03-6.57c0-1.21-.01-2.35-.04-3.42v-.24l-.06-3.12c0-1.83.15-3.03.46-3.58.29.01.69.02,1.19.02h1.04s3.64-.04,3.64-.04c4.15,0,6.43.27,6.85.79l-.18,7.56-.07,6.35-.02.26-.09,9.02.87.5c2.61-.16,5.15-.23,7.6-.23,2.45,0,3.69.13,3.72.37Z"/><path class="cls-5" d="M192.91,41.05c.65-.19,1.34-.28,2.08-.28.74,0,1.44.03,2.1.09l.91.09c1.43.13,2.53.3,3.29.5v-.02l.46.2c3.03.94,5.39,2.37,7.08,4.3v-.02c.39.46.87,1.16,1.44,2.09.57.93.85,1.58.85,1.94l.17.58.11.63c.27.97.41,1.78.41,2.43,0,.65,0,1.15.02,1.5l-17.86-.02v.71c.09.33.13.68.13,1.04s0,.65,0,.86c0,.21.03.41.05.61.03.2.05.35.05.48,0,.12.04.27.1.43.06.17.09.28.1.34,0,.06.05.17.13.35.08.17.14.34.2.49.05.15.15.3.29.44v-.02l.24.46c.27.3.65.52,1.13.65.79-.17,1.33-.58,1.62-1.23s.52-1.46.71-2.43c.52-.14,1.26-.22,2.21-.21l2.77.07h8c-.17,1.77-.7,3.39-1.56,4.86h.02c-.75,1.18-1.92,2.2-3.51,3.05-4.5,1.57-7.38,2.36-8.65,2.35-.23,0-.42-.02-.56-.04h-.5s-.19.02-.19.02h-.2c-.12,0-.26-.01-.43-.04-.14.09-.32.13-.52.13l-1.88-.22c-.1.04-.31.06-.62.06-.31,0-1.12-.2-2.44-.59v.02l-.52-.15-.52-.17c-2.17-.64-4.02-1.75-5.57-3.35-1.54-1.6-2.53-3.46-2.96-5.58-.04-.26-.12-.65-.24-1.18-.11-.53-.17-.89-.17-1.07v-1.04c0-.25,0-.43.02-.56v-.33c0-3.06.92-5.71,2.74-7.94,1.82-2.23,4.26-3.8,7.33-4.71l.52-.15c.77-.13,1.32-.27,1.65-.41l-.02.02ZM199.38,52.2l.46-.28c-.24-1.56-.47-2.56-.69-3-.22-.44-.43-.82-.63-1.14-.38-.61-.87-.91-1.48-.91s-1.14.3-1.57.91c-.77,1.07-1.25,2.57-1.46,4.51.92-.06,1.78-.08,2.56-.08h2.82Z"/><path class="cls-5" d="M224.13,43.46l-.02-.43v-1.34c0-1.86.04-4,.12-6.42l-.04-.04,1.17-.06c3.77-.2,6.22-.3,7.35-.3h10.1c3.45.01,6.32.73,8.6,2.16.81.69,1.46,1.63,1.97,2.8s.76,2.49.75,3.97c0,2.85-1.91,5.26-5.73,7.26,2.15.59,3.8,1.55,4.95,2.85,1.15,1.31,1.72,2.91,1.72,4.8,0,3.35-1.51,5.89-4.51,7.62-2.21,1.3-5.01,1.95-8.39,1.94l-6.46-.09c-2.79,0-6.49.06-11.1.19-.4-.85-.6-4.23-.6-10.12,0-5.9.04-10.82.12-14.78ZM242.26,47.12c.29-.55.43-1.21.43-1.99,0-1.52-.54-2.54-1.62-3.06s-2.22-.78-3.4-.78-1.78.43-1.78,1.3c0,1.55.03,3.13.1,4.75l.04,1.15c.03.55.35.87.95.98l1.06-.13c2.2-.26,3.6-.99,4.21-2.21ZM237.59,61.61c3.74,0,5.61-1.3,5.62-3.92,0-1.66-.5-2.77-1.51-3.34-.91-.49-2.3-.77-4.18-.83h-.63s-.39,1.21-.39,1.21c-.1,1.49-.15,2.95-.16,4.39,0,1.44.15,2.27.45,2.48h.8Z"/><path class="cls-5" d="M288.59,54.59c-.03.14-.04.23-.04.26v.17c-.05,2.38-.6,4.53-1.65,6.44h.02c-1.48,2.25-3.53,3.98-6.17,5.2s-5.23,1.82-7.79,1.81c-2.56,0-4.68-.25-6.36-.75-1.68-.5-3.24-1.23-4.67-2.18-1.43-.95-2.49-1.87-3.18-2.75-1.65-2.08-2.47-5.02-2.46-8.82,0-.13.02-.24.07-.33v-.35c-.04-.06-.07-.12-.07-.17l.04-.24h-.02c.28-2.53.81-4.19,1.61-4.98,0-.16.1-.34.3-.54v.02l.33-.52c1.71-2.18,3.66-3.67,5.86-4.48l.76-.28c.95-.46,2.29-.81,4.01-1.04l.69-.06c.1-.01.31-.03.62-.04.31-.01.53-.04.66-.09l.93.02s.09-.02.15-.02c.06,0,.12,0,.19.02l-.02-.02c.09.04.22.06.39.07.06-.06.16-.09.3-.09,3.13,0,5.8.65,8,1.94l.43.2c4.72,2.27,7.08,6.15,7.08,11.62ZM275.11,54.71c-.06-2.88-.47-4.82-1.23-5.83-.32-.42-.7-.63-1.16-.63-.46,0-.86.26-1.2.79-.35.53-.63,1.35-.84,2.48-.21,1.13-.32,2.13-.32,3,0,.87.04,1.63.12,2.25.08.63.2,1.29.36,1.99s.4,1.29.74,1.76c.33.47.71.71,1.13.71,1.6,0,2.41-2.17,2.41-6.52Z"/><path class="cls-5" d="M306.9,56.93l-.02.33c0,.51.02.88.05,1.12.04.24.18.52.44.85.26.33,1.1.49,2.53.49l.58.02c.22,0,.41-.02.59-.06v8.08s-11.84-.01-11.84-.01l-.74.04h-.24c-.54,0-1.12-.17-1.75-.52-.64-.35-1.11-.65-1.42-.92-.31-.27-.57-.61-.79-1.03-.4-.78-.65-1.55-.72-2.31-.08-.76-.12-1.7-.12-2.83v-12.01s-2.55,0-2.55,0l-.02-3.03v-3.1s2.5,0,2.5,0v-7.17s6.7,0,6.7,0l6.7-.02.02,7.15h3.62s.02,3.1.02,3.1v3.08s-3.53,0-3.53,0v8.76Z"/><path class="cls-5" d="M324.61,53.35l.22.02h.52c.49,0,.87-.03,1.15-.11l1.17-.15c1.99-.14,3.19-.68,3.6-1.6.2-.46.3-1.05.3-1.76-.09-.14-.13-.42-.13-.82s-.21-.83-.62-1.28c-.41-.45-.9-.67-1.46-.67h-.11c-1.39,0-2.08,1.18-2.08,3.53-.07.12-.19.16-.36.13-.17-.03-.57-.04-1.2-.04h-11.18c.07-1.01.33-2.08.78-3.24.85-2.22,2.51-3.82,4.96-4.8,2.45-.97,4.88-1.5,7.29-1.59l1.3-.06.69-.06c.09,0,.17.02.26.07h.28l.98-.04c.2,0,.66.05,1.37.15l.63.09c.1.01.26.02.48.02.22,0,.67.05,1.37.14.69.09,1.56.35,2.6.75,3.52,1.39,5.66,4.05,6.41,7.98.32,1.66.47,3.5.47,5.53.1.33.15.64.15.91l-.11,1.5v2.51s.02.15.02.37l-.04,1.47v.19c.04.07.07.17.07.3l-.02.2v.46c0,1.37.21,2.67.62,3.9l.22.48h-9.79s-.78-.03-.78-.03c-.58,0-1.02,0-1.32.02-.46-.87-.9-2.05-1.32-3.56-.19.39-.51.83-.97,1.33-.46.5-.79.75-1.01.75-2.14,1.04-3.77,1.63-4.88,1.77-1.65.27-2.59.41-2.84.41-3.45,0-6.06-1.2-7.82-3.6-.88-1.23-1.32-2.65-1.32-4.27,0-3.51,1.64-5.66,4.9-6.46.84-.2,2.46-.41,4.86-.62l.71-.06,1-.15ZM331.71,58.38l.02-.69c0-.72-.06-1.42-.17-2.08-.32.17-.78.37-1.39.58s-1.09.4-1.45.55c-.36.15-.69.42-.99.8-.3.38-.45.91-.45,1.57,0,.66.21,1.27.64,1.82.43.55.89.82,1.4.82,1.08,0,1.86-.39,2.32-1.17l.04-.22.02-1.34v-.65Z"/><path class="cls-5" d="M353.37,41.84l5.81-.02c.07.3.2.78.39,1.43.19.65.37,1.3.54,1.95l.41,1.63c.58-1.46.93-2.27,1.06-2.43l.35-.43c1.46-2.05,3.7-3.07,6.72-3.07,1.43,0,2.79.43,4.08,1.29s2.3,1.98,3.02,3.36c.72,1.38,1.08,2.84,1.08,4.37,0,.17-.02.31-.06.41v13.33s0,4.14,0,4.14h-12.68s-.03-10.85-.03-10.85l.09-2.21c0-2.21-.58-3.32-1.75-3.32-1.26,0-1.89,1.05-1.89,3.14,0,.46,0,.78.02.95v.33l.02.37v11.55s-6.47.02-6.47.02h-6.48s0-13.01,0-13.01v-12.96s5.77.03,5.77.03Z"/><path class="cls-5" d="M379.3,33.63l.22-.22v.22s-.22,0-.22,0ZM392.97,60.92l.02.2.02,3.25c0,.59-.03,1.3-.09,2.12-.06.82-.11,1.25-.15,1.28l-.39.04h-7.89s-.91.08-.91.08c-2.25,0-3.63-.03-4.12-.09v-.15l-.02-.41v-.98c0-2.85.05-5.21.14-7.09l.25-16.69v-.65l1.69-.02.37.02h.63s.54.02.54.02l.28-.02h1.56s.33-.02.33-.02l7.39.09c.06-.01.1-.02.13-.02s.04.04.04.13l.02,2.06c.01,1.37.04,3.21.08,5.52.04,2.31.06,3.93.06,4.89l-.02,2.71v1.15s.06,1.15.06,1.15v.67s0,.04-.02.09v.67ZM392.91,33.59l.02,5.94h-13.35c0-1.4-.01-2.39-.04-2.98l-.02-2.93,13.39-.03Z"/><path class="cls-5" d="M422.3,47.51l-1.97-.02c-1.17,0-2.98.01-5.44.04-.17-.48-.52-.88-1.05-1.21-.53-.33-1.11-.5-1.74-.5s-1.16.14-1.56.42c-.4.28-.61.68-.61,1.18,0,.51.19.96.57,1.37.38.41.92.69,1.61.86s1.38.28,2.07.34c.69.06,1.49.12,2.41.18.92.06,1.61.13,2.08.21s1.07.16,1.79.25c1.29.17,2.42.41,3.41.71.99.3,2.03.92,3.11,1.86.22.1.51.37.87.8.65,1,1.06,2.44,1.23,4.34-.07,2.08-.83,3.93-2.28,5.54-1.45,1.61-3.28,2.77-5.49,3.5-.17.09-.39.15-.65.17l-.74.17c-1.4.4-2.62.6-3.64.6-.62.2-1.62.3-2.99.3l-.54-.02h-1.58s-.24.02-.24.02c-2.24,0-4.64-.37-7.19-1.09v.02c-5.45-1.35-8.17-3.69-8.19-7.03.77.06,1.83.09,3.19.09,1.36,0,3.2,0,5.51-.03,2.32-.02,4.08-.03,5.28-.03-.01.09-.02.23-.02.43,0,.64.32,1.16.97,1.56s1.4.61,2.25.61c.85,0,1.53-.16,2.02-.5.49-.33.74-.76.74-1.29s-.14-.97-.41-1.32c-.28-.35-.68-.62-1.21-.79-.54-.17-1.03-.3-1.48-.38-.46-.08-1.04-.15-1.77-.21-.72-.06-1.26-.12-1.6-.17-.35-.06-.86-.13-1.54-.23-.68-.09-1.27-.17-1.79-.24-.51-.07-1.11-.16-1.8-.29-.69-.13-1.29-.27-1.82-.4-.53-.14-1.09-.32-1.7-.55-.61-.23-1.13-.48-1.58-.76-2.18-1.36-3.27-3.34-3.27-5.94,0-2.33.66-4.12,1.98-5.4,1.65-1.57,4.32-2.6,8.02-3.07.38-.06.91-.16,1.6-.31.69-.15,1.17-.23,1.43-.23.26,0,.43.01.52.04l2.75-.15,3.81.18c.14.01.56.04,1.26.09,1.72.13,3.23.38,4.54.73,1.31.36,2.56,1.05,3.75,2.07,1.19,1.03,1.87,2.14,2.04,3.34l-.15-.04-4.77.21Z"/><path class="cls-5" d="M447.31,57.05l-.02.33c0,.51.02.88.05,1.12.04.24.18.52.44.85.26.33,1.1.49,2.53.49l.58.02c.22,0,.41-.02.59-.06v8.08s-11.84,0-11.84,0l-.74.04h-.24c-.54,0-1.12-.17-1.75-.52-.64-.35-1.11-.65-1.42-.92-.31-.27-.57-.61-.79-1.03-.4-.78-.65-1.55-.72-2.31-.08-.76-.12-1.7-.12-2.83v-12.01s-2.55,0-2.55,0l-.02-3.03v-3.1s2.5,0,2.5,0v-7.17s6.7,0,6.7,0l6.7-.02.02,7.15h3.62s.02,3.1.02,3.1v3.08s-3.53,0-3.53,0v8.76Z"/><path class="cls-5" d="M464.79,41.29c.65-.19,1.34-.28,2.08-.28.74,0,1.44.03,2.1.09l.91.09c1.43.13,2.53.3,3.29.5v-.02l.46.2c3.03.94,5.39,2.37,7.08,4.3v-.02c.39.46.87,1.16,1.44,2.09.57.93.85,1.58.85,1.94l.17.58.11.63c.27.97.41,1.78.41,2.43,0,.65,0,1.15.02,1.5l-17.86-.02v.71c.09.33.13.68.13,1.04s0,.65,0,.86c0,.21.03.41.05.61.03.2.05.35.05.48,0,.12.04.27.1.43.06.17.09.28.1.34,0,.06.05.17.13.35.08.17.14.34.2.49.05.15.15.3.29.44v-.02l.24.46c.27.3.65.52,1.13.65.79-.17,1.33-.58,1.62-1.23s.52-1.46.71-2.43c.52-.14,1.26-.22,2.21-.21l2.77.07h8c-.17,1.77-.7,3.39-1.56,4.86h.02c-.75,1.18-1.92,2.2-3.51,3.05-4.5,1.57-7.38,2.36-8.65,2.35-.23,0-.42-.02-.56-.04h-.5s-.19.02-.19.02h-.2c-.12,0-.26-.01-.43-.04-.14.09-.32.13-.52.13l-1.88-.22c-.1.04-.31.06-.62.06-.31,0-1.12-.2-2.44-.59v.02l-.52-.15-.52-.17c-2.17-.64-4.02-1.75-5.57-3.35-1.54-1.6-2.53-3.46-2.96-5.58-.04-.26-.12-.65-.24-1.18-.11-.53-.17-.89-.17-1.07v-1.04c0-.25,0-.43.02-.56v-.33c0-3.06.92-5.71,2.74-7.94,1.82-2.23,4.26-3.8,7.33-4.71l.52-.15c.77-.13,1.32-.27,1.65-.41l-.02.02ZM471.26,52.43l.46-.28c-.24-1.56-.47-2.56-.69-3-.22-.44-.43-.82-.63-1.14-.38-.61-.87-.91-1.48-.91s-1.14.3-1.57.91c-.77,1.07-1.25,2.57-1.46,4.51.92-.06,1.78-.08,2.56-.08h2.82Z"/><path class="cls-8" d="M80.16,59.24c-.42-4.6-2.08-8.98-5.12-11.45,6.08-2.43,5.56-10.31,4.1-15.63-.13-.61-.4-1.34-1.01-1.41-6.55,2.72-8.63,9.93-4.55,16.07-2.15-1.21-5.47-1.5-8.54-.38-2.45-4.77-8.27-9.96-13.86-8.37-.46.12-.73.51-.67.98.33,5.27,6.78,9.34,11.91,8.71-2.83,1.85-4.79,4.67-6.65,7.61-3.75-2.64-8.47-3.88-13.04-3.41-4.87.45,3.69,11.74,11.2,6.33-1.97,2.87-3.97,6.16-7.18,7.49-1.23.35-2.23.83-3.04,1.42-1.95.5-3.96.57-5.96.67,1.01-6.66-3.64-14.31-10.92-13.73-1.81,4.66,4.64,11.4,9.58,13.81-3.77.08-7.83,1.75-10.18,5.18.05-4.02-2.24-7.75-6.42-8.53-1.86-.27-5.92-1.14-7.37.03-.41,6.63,7.02,11,13.07,9.65-3.55,6.29-4.34,16.81-11.7,16.15-.24-4.86-3.05-9.99-6.85-13.02-2.94,5.31.68,11.92,5.97,13.77l-.27.09c-4.86-1.74-10.66.8-12.67,5.56,4.46,2.69,11.51-1.32,13.97-5.5,1.19.08,2.43-.14,3.43-.57-2.72,3.11-3.05,8.41-.95,11.84,6.35-3.8,5.17-8.01,3.94-14.18l-.09.33c-.12.04-.23.1-.35.15,3.49-3.62,4.01-9.38,6.32-13.78-1.27,4.01-.08,9.21,2.15,12.6,5.15-3.4,5.31-12.13,1.58-16.88,3.54-2.42,8.16-1.74,12.23-2.18-2.17,2.89-1.83,7.16-1.47,11.28,5.65-1.39,6.84-7.86,6.55-13.03,2.17-1.21,3.85-2.96,5.34-4.93-.88,4.41,2.34,10.82,5.41,12.89,4.18-4.36,3.7-14.73-2.86-16.63,3.44-6.9,12.55-15.55,19.14-9.84-8.55-3.18-14.18,7.62-8.27,13.58,4.66-1.22,10.42-8,8.81-13.06,2.83,3,4.18,8.49,4.79,13.99h.91c-.09-1.82-.42-3.13-.42-3.66Z"/><path class="cls-8" d="M98.69,52.03c-2.87-2.52-4.48-6.45-4.14-10.27.03-1.18.89-2.31,2.05-1.62,3.6,1.96,5.36,8.03,3.17,11.57,2.53-.59,6,.53,8.81,2.56-.95-5.89,2.41-12.92,9.06-8.45.55.3.76.88.45,1.43-1.15,3.98-4.89,6.01-8.35,7.86,2.75,2.11,5.02,4.78,7.2,7.49,2.65-3.18,8.79-4.59,12.19-2.15-1.27,4.35-7.31,5.88-11.04,3.59,2.44,3.16,5.06,6.58,7.41,8.89.04-.02.07-.04.11-.06.51.91,1.49,1.54,2.17,2.24l-.05-.11c2.86-3.26,7.93-5.88,11.95-3.2-2.25,3.41-7.14,5.44-10.98,4.11,5.29,4.48,10.16,6.36,14.94,7.21.56-3.54,2.99-7.03,6.39-8.27.5.01.73.62.78,1.11.43,3.31-1.82,6.49-4.88,7.49,4.9.58,9.75.35,14.91,1.04.47-3.4,2.91-9.15,6.61-8.93,1.2,3.54-1.34,7.67-4.7,9.23,4.09.71,8.32,2.26,12.08,4.52l.02-.09c2.89-3.3,9.22-.23,7.89,4.05-2.56,1.14-7.19-.11-7.86-3.15-.98-.71-2.02-1.31-3.12-1.83,1.28,1.75,1.43,4.46.23,6.29-.34.24-.8-.06-1.1-.35-2.02-1.62-4.28-4.92-2.39-7.2-3.77-1.16-7.69-1.61-11.53-1.41,2.33,1.99,3.74,6.4,2.46,8.44-2.85-.49-7.84-5.4-6.47-8.52-4.26-.2-7.86-.77-11-1.64,1.71,2.3,1.63,6.32.53,8.87-1.31.02-3.37-3.69-4.34-4.76-1.21-1.56-2.32-4.12-.76-5.74-4.42-1.94-7.87-4.65-11.15-7.89.77,2.87,2.17,10.05.26,10.65-5.08-1.56-5.7-9.03-1.43-11.83-2.78-2.87-5.51-6.1-8.71-9.57.6,3.31-1.43,7.48-4.84,7.97-3.07-2.92-1.52-9.81,2.88-10.06-3.23-3.12-8.48-9.74-13.63-9.16,3.11,1.1,5.05,5.12,4.75,8.27-4.01,1.14-7.12-3.54-7.34-7.28-1.64,1.28-2.44,3.65-2.33,6.35l-.95-1.26c.19-3.46,1.7-5.57,3.86-6.45Z"/><path class="cls-4" d="M85.47,82.69l-.17-.15c-.24-5.28-1.42-9.2-3.16-13.84,2.01,2.68,5.84,4.25,8.83,2.72-.36-4.39-6.03-6.95-9.85-5.02-1.73-3.72-3.75-7.57-4.13-10.97,2.04,2.63,8.36,2.83,10.66,1.22.41-5.12-6.68-6.76-10.35-4.51,3.16-8.42,7.67-6.19,11.04-1.43.06-.11.15-.21.25-.3.03-.05.07-.1.11-.15-3.19-7.29-11.1-5.11-12.61,3.25-4.44.2-9.06,4.87-6.91,9.28,3.33.54,6.29-2.28,7.21-5.5,1.2,4.58,4.01,8.67,5.52,13.16-4.42,1.04-8.37,6.15-4.11,9.81,2.42-1.84,3.92-4.92,4.76-7.94,1.33,4.21,2.05,8.72,1.95,13.14-10.38,2.27-7.86,14.18-.47,4.9-.77,4.4-2.48,8.55-5.37,12.02h0c-.07.05-.15.12-.23.18.02,0,.04.02.06.03-1.16,1.36-2.5,2.61-4.04,3.72,0,0,.02,0,.03-.01-1.7,1.42-2.55,4.5-.98,6.06,1.95-1.42,2.75-4.24,2.21-6.56h-.06c2.08-1.02,3.81-2.64,5.21-4.66-.17,2.93.78,6.44,3.01,7.23,2.33-2.78,1.24-7.62-1.42-9.99,1.92-4.01,2.91-9.13,2.92-13.8.73,3.67,3.36,7.41,7.33,6.67.56-4.16-3.06-8.23-7.19-8.57Z"/><path class="cls-4" d="M68.11,103.95c1.81-3.58,7.08-2.92,10.3-1.38-2.56,2.12-6.14,2.97-9.38,2.19-.43-.1-.96-.36-.92-.81Z"/><path class="cls-7" d="M142.73,108.43c-3.79-.76-7.06-2.22-9.9-4.19,4.6.26,10.34-1.48,12.42-5.55-4.5-4.2-11.21-.26-13.99,4.37-3.53-2.85-6.36-6.54-8.68-10.68,5.15,2.19,12.35,1.38,15.88-3.03-3.95-5.52-13.4-4.51-16.91,1.1-2.67-5.25-4.62-11.09-6.21-16.79,4.88,4.37,13.38,1.31,17.6-2.74-2.31-8.39-15.39-6.49-18.17.64-1.72-6.01-2.83-11.84-4.29-17.86,3.91,2.46,13.05-2.01,14.89-5.86.43-.64-.07-1.23-.74-1.43-4.11-1.74-9.38-2.56-13.08.45-1.88,1.48-2.53,1.91-2.66,3.01-1.6-3.01-4.79-4.87-8.07-5.58,5.85-2.27,8.56-5.45,9.4-11.83-4.21-.12-8.44.63-12.36,2.18-4.11,1.03-3.9,6.84-1.42,9.43-8.8,1.03-11.15,10.27-10.99,18.85h1.03c.23-7.86,2.01-16.92,9.27-17.97-7.14,3.63-1.05,11.59,2.91,15.32,3.37-2.91,6-10.95,3.07-14.68,4.64,1.54,6.95,6.36,8.93,12.69-7.68-.79-13.18,4.94-9.63,12.43,5.44-.13,9.84-5.48,10.1-10.82,1.49,5.29,2.71,11.48,4.39,17.68-8.48-1.22-11.26,13.98-6.76,12.48,3.5-1.38,7.19-4.93,7.83-8.8,1.53,4.96,3.46,9.81,6.18,14.1-4.44,3.62-5.49,10.51-2.3,15.29.32.5.79,1.02,1.37.97,3.79-2.81,4.51-8.68,3.05-13.25,3,3.89,7.23,7.32,12.08,9.31-.29,3.93,1.29,10.83,6.24,9.78.06-3.02-1.27-6.8-3.78-8.85,1.36.42,2.59.63,3.83.6,3.28,3.29,8.65,1.38,11.99-1.02,1.32-3.65-10.74-5.03-12.52.25Z"/><path class="cls-7" d="M30.2,105.83c3.37-.68,6.29-1.98,8.83-3.74-4.1.23-9.21-1.32-11.07-4.94,4.01-3.74,9.99-.23,12.47,3.89,3.15-2.54,5.67-5.83,7.73-9.52-4.59,1.95-11.01,1.23-14.15-2.7,3.52-4.92,11.94-4.02,15.07.98,2.38-4.68,4.11-9.88,5.54-14.96-4.35,3.89-11.93,1.16-15.68-2.44,2.06-7.48,13.71-5.79,16.2.57,1.53-5.35,2.52-10.55,3.82-15.91-3.49,2.19-11.63-1.79-13.27-5.23-.38-.57.06-1.09.66-1.28,3.66-1.55,8.36-2.29,11.66.4,1.67,1.32,2.26,1.7,2.37,2.69,1.43-2.68,4.27-4.34,7.19-4.98-5.16-1.97-7.67-4.92-8.38-10.55,3.75-.11,7.52.56,11.01,1.94,3.67.92,3.47,6.09,1.26,8.4,7.06.83,9.39,7.53,9.67,14.44h-1.03c-.46-6.36-2.24-12.81-8.02-13.64,6.36,3.24.94,12.28-2.6,15.61-3.01-2.59-5.35-11.71-2.74-15.04-4.14,1.38-6.19,5.67-7.96,11.31,6.85-.7,11.75,4.4,8.59,11.08-4.85-.12-8.77-4.88-9-9.65-1.33,4.71-2.41,10.23-3.92,15.75,7.52-1.1,10.06,12.44,6.03,11.12-3.12-1.23-6.41-4.39-6.98-7.84-1.36,4.42-3.08,8.74-5.51,12.56,4.02,2.81,5.43,11.91.83,14.49-3.38-2.5-4.02-7.73-2.72-11.8-2.67,3.46-6.45,6.53-10.76,8.3.26,3.5-1.15,9.65-5.56,8.72-.05-2.69,1.13-6.06,3.37-7.89-1.21.38-2.31.56-3.41.54-2.92,2.93-7.7,1.23-10.68-.91-1.18-3.26,9.57-4.48,11.16.22Z"/><path class="cls-9" d="M129.71,112.3c-3.5-3.59-9.54-.83-12.8,2.21,3.85,1.57,8.43,1.24,12-.9.48-.29,1.01-.79.8-1.31Z"/><path class="cls-9" d="M116.57,114.38c-4.74-3.05-8.34-7.36-10.9-12.32,12.28,8.31,10.82-6.83-2.4-5.66-1.78-5.23-2.61-10.88-2.6-16.39,2.12,3.28,5.06,6.39,8.64,7.68,3.71-5.96-2.92-10.57-8.58-10.16.11-5.92,1.94-11.85,1.65-17.76,2.3,3.5,6.88,5.75,10.66,3.86.91-6.06-6.35-9.9-11.71-8.48-8.42-13.02-16.68-6.27-17.73,6.78-.94-4.76-6.22-10.34-10.29-8.77.81-3.93-.32-8.23-3.02-11.2-.76-.97-2.2-1.37-2.74-.06-1.78,3.91.59,10.09,4.65,11.68-2.49,1.11-4.68,4.23-5.75,7.7-2.93-5.53-10.17-9.28-12.91-1.35-.27.6-.08,1.21.53,1.48,3.47,2.6,7.89,1.94,11.94,1.3-.97,3.51-1.18,7.16-1.29,10.81-4.22-.99-10.25,1.7-11.55,5.9,3.81,2.84,9.82.31,11.5-3.97-.05,4.18-.08,8.69-.59,12.11-.04,0-.08.01-.13.02.15,1.08-.27,2.22-.4,3.24l-.03-.13c-4.44-.92-10.34.09-12.01,4.86,4.03,1.43,9.4.04,11.78-3.49-1.6,7.09-4.49,11.73-7.95,15.45-2.7-2.6-6.93-3.99-10.56-2.88-.41.32-.22.98.05,1.42,1.73,3.04,5.62,4.28,8.81,3.19-3.73,3.58-7.94,6.44-11.81,10.27-2.54-2.55-8.21-5.82-11.16-3.3,1.24,3.72,5.96,5.57,9.76,4.75-2.97,3.18-5.53,7.14-7.25,11.41l-.07-.06c-4.5-.94-7.85,5.63-4.04,8.37,2.86-.66,5.94-4.63,4.58-7.59.37-1.21.86-2.38,1.46-3.51.04,2.27,1.62,4.63,3.78,5.41.44-.01.63-.55.7-.99.67-2.63.48-6.81-2.54-7.53,2.43-3.35,5.41-6.2,8.76-8.46-.69,3.13.91,7.71,3.26,8.61,2.08-2.21,3.15-9.46.04-11.21,3.43-2.85,6.09-5.6,8.16-8.32.02,3,2.62,6.31,5.16,7.75,1.11-.82.49-5.21.63-6.72.03-2.07-.66-4.91-2.98-5.28,2.47-4.41,3.65-8.85,4.35-13.63,1.16,2.89,4.53,9.78,6.5,9.07,3.27-4.51-.93-11.15-6.27-10.8.52-4.15.76-8.58,1.24-13.5,1.59,3.15,5.92,5.35,9.08,3.61.72-4.38-4.92-9.17-8.76-6.6.73-4.65.94-13.5,5.62-16.26-1.91,2.88-1,7.47,1.25,9.91,4.08-1.58,3.72-7.45,1.54-10.73,3.52.06,7,3.88,8.22,8.98.48,0,.96,0,1.44.01,1.13-9.77,6.12-20.4,15.06-8.94-5.21-1.3-13.06,3.3-10.65,9.26,3.35,1.07,10.81-1.54,12.25-5.44.83,4.2-.14,9.54-.81,14.63-5.28-.87-11.09,4.3-9.87,9.67,4.13.7,8.11-2.61,9.5-6.55-.34,6.19-.28,11.3,1.41,17.68l-.15.24c-4.8,1.95-7.59,8.16-5.37,12.91,5.01-.61,6.75-6.06,6.24-10.7,1.76,5.56,4.85,11.29,8.65,15.36-2.29,3.82-1.77,10,2.04,12.44,2.37-1.77,2.18-6.32.88-9.75,2.42,1.89,5.09,3.18,7.95,3.61l-.08.02c.23,2.96,2.23,6.03,5.09,6.99,1.29-2.45-.88-5.8-3.44-6.86.01,0,.03,0,.04,0-2.25-.75-4.32-1.74-6.21-2.93.02-.02.04-.04.06-.05-.11-.05-.23-.09-.34-.14v.02Z"/><path class="cls-8" d="M82.37,102.3c.14.95.57,1.88.7,2.82.04.3.26,1.93.47,2.23.93.61-.11-2.31-.03-2.73-.43-1.2-.84-4.2-1.76-4.88-.14.81.48,1.73.61,2.55Z"/><path class="cls-8" d="M74.3,102.42c-1.05-.02-4.56.68-4.93,1.63-.11.65,2.08-.8,2.59-.69,1.58-.59,3.24-.38,4.88-.53.1-.61-2.07-.39-2.54-.42Z"/><path class="cls-8" d="M74.04,108.73c-.25.49-.18,1.1-.35,1.61-.03.15-.55,1.46.15,1.41.3-.57.32-1.3.48-1.94.11-.76.41-1.46.39-2.24-.25-.87-.62.94-.67,1.16Z"/><path class="cls-8" d="M81.67,88.2c-.69.65-3.33,3.78-3.1,4.62.27.65,1.39-2.03,1.83-2.25.94-1.54,2.38-2.61,3.48-4.02-.36-.48-1.82,1.34-2.2,1.64Z"/><path class="cls-8" d="M88.02,85.7c.63.82,1.48,1.54,2.02,2.41.26.28,1.04,2.03,1.52,2.08.53.06-.12-.79-.2-1.02-.95-1.48-1.96-2.96-3.31-4.11-.56-.45-1.27-1.45-2.02-1.4.37.8,1.44,1.31,1.99,2.03Z"/><path class="cls-8" d="M79.18,72.81c-.9.48-2.89,5.21-1.43,5.36.06-1.4.27-2.84,1.06-4.05.67-1.17,1.79-1.89,2.83-2.68-.29-.62-2.13.99-2.46,1.37Z"/><path class="cls-8" d="M84.69,67.57c1.04.46,2.11.75,2.97,1.55.52.34,1.15,1.28,1.64,1.28.84-.24-2.28-2.49-2.71-2.6-1.09-.52-3.51-1.51-4.54-.84.73.41,1.84.24,2.64.6Z"/><path class="cls-8" d="M49.83,71.61c-2.18-.81-6.85-1.42-8.65.46-.01.08-.07.24.06.22,1.39-.52,2.87-1.05,4.38-.88,1.6-.05,3.15.43,4.68.86,1.1.27,2.44,1.22,3.54,1.14-1.02-.9-2.73-1.28-4.02-1.79Z"/><path class="cls-8" d="M57.98,83.96c.36.88,1,1.68,1.35,2.56.18.3.67,2.01,1.15,2.07.72.08-.8-2.23-.83-2.66-.7-1.04-1.83-3.88-2.86-4.3.05.82.87,1.57,1.19,2.33Z"/><path class="cls-8" d="M62.93,65.44c.2.66.72,1.21.98,1.84.1.12.62,1.81,1.19,1.31-.68-1.65-1.6-3.28-2.6-4.78-.86-.65.32,1.42.43,1.63Z"/><path class="cls-8" d="M51.18,51.85c1.47.4,3.06.64,4.46,1.23.94.29,2.68,1.44,3.51,1.4.86-.37-4.05-2.16-4.51-2.31-2.11-.53-5.58-1.59-7.58-.95,1.21.44,2.84.27,4.13.62Z"/><path class="cls-8" d="M39.57,88.54c1.57.16,3.23.21,4.73.7,1.15.25,2.54,1.19,3.71,1.26.99-.57-5.83-2.48-6.44-2.32-1.66-.17-5.02-.36-6.32.57,1.32.14,2.94-.35,4.32-.21Z"/><path class="cls-8" d="M48.38,98.48c.25.94.6,1.91.52,2.91.03.37-.32,2.2.09,2.49.6.43.31-2.51.45-2.91-.04-1.29-.95-4.42-1.98-5.07-.06.86.71,1.75.93,2.59Z"/><path class="cls-8" d="M32.95,98.14c1.29.43,2.69.76,3.85,1.48.83.39,2.11,1.71,2.86,1.81.91-.37-3.92-3.1-4.51-3.13-1.39-.54-4.62-1.43-5.88-.73,1.08.38,2.55.19,3.68.57Z"/><path class="cls-8" d="M32.42,111.55c.56-.67.83-1.57,1.25-2.31.12-.31,1.24-1.99.46-2.14-.97,2.03-1.99,4.01-3.17,5.94-.36,1.29,1.38-1.27,1.46-1.49Z"/><path class="cls-8" d="M22.99,104.61c1.74-.13,2.95-.39,4.73.3.51.11,1.1.61,1.56.5.44-.14-.18-.44-.36-.57-1.25-.66-2.72-.99-4.12-.9-1.41.09-3.87.28-4.95,1.19-.01.16.16.07.26.08.95-.15,1.93-.47,2.89-.6Z"/><path class="cls-8" d="M62.4,40.21c.65.55,1.49.93,2.1,1.52.27.18,1.25,1.45,1.67,1.32.69-.22-1.39-1.62-1.6-1.96-1.27-.85-2.52-1.97-4.07-2.24-.26.45,1.58,1,1.9,1.36Z"/><path class="cls-8" d="M80.17,53.66c.76.24,1.62.21,2.37.46.34.03,1.96.9,2.05.16-1.92-.86-4.18-1.26-6.29-1.2-1.15.37,1.63.5,1.87.57Z"/><path class="cls-8" d="M86.41,56h0c.04.21.32.17.42.3.02.03.22.27.39.12.06-.1.26-.29.16-.4-.09-.09-.24-.05-.28-.2-.17-.02-.25-.19-.41-.21-.1-.04-.07-.2-.28-.15-.36.04-.26.4,0,.5v.02Z"/><path class="cls-8" d="M101.29,39.53c1.17-1.06,2.29-2.33,3.63-3.16.95-.72,2.55-1.12,3.43-1.89.18-.98-4.43,1.81-4.8,2.23-1.08.93-2.18,1.86-3.06,2.99-.69.9-1.97,1.96-2.14,3.07,1.1-.78,1.9-2.3,2.93-3.24Z"/><path class="cls-8" d="M97.54,46.59c-.1.5-.3,3.5.24,3.59.54.16.13-.99.18-1.28.02-.42.04-.84,0-1.26.04-.78.13-1.55.21-2.32,0-.07.05-.19.13-.19.01-.03,0-.17-.04-.2-.74-.18-.6,1.22-.73,1.66Z"/><path class="cls-8" d="M97.36,52.98h0c-.11.15.11.28.09.42,0,.02-.03.3.19.28.12-.04.43-.07.38-.23-.06-.06-.09-.12-.05-.2-.02-.04-.05-.07-.07-.11,0-.05,0-.1,0-.14-.15-.11.06-.19-.15-.32-.24-.19-.48.02-.36.28v.02Z"/><path class="cls-8" d="M114.61,49.93c1.7-.56,3.43-1.36,5.19-1.67,1.3-.35,3.13-.18,4.38-.62.56-.86-5.39.22-5.94.46-1.53.49-3.07.96-4.5,1.69-1.15.6-2.9,1.05-3.7,2.02,1.5-.27,3.08-1.38,4.57-1.88Z"/><path class="cls-8" d="M104.41,65.51c-.32.38-2.9,4.4-1.87,4.39.81-1.46,1.51-3.01,2.45-4.41,2.04-2.61.58-1.93-.59.02Z"/><path class="cls-8" d="M120.97,71.23c1.89-.33,3.86-.84,5.77-.91,1.27-.15,3.78.18,4.76-.19.06-.06.23-.17.08-.22-2.09-.35-4.35-.15-6.45.03-1.7.26-3.41.48-5.04,1.03-1.31.44-3.22.74-4.17,1.71,1.61-.22,3.41-1.17,5.06-1.46Z"/><path class="cls-8" d="M126.91,90.18c1.68-.29,3.43-.82,5.13-.84,1.28-.13,2.97.35,4.22.16.67-.77-5.09-.75-5.66-.56-1.51.24-3.04.47-4.49.97-1.16.41-2.9.59-3.77,1.41,1.46-.02,3.1-.88,4.58-1.14Z"/><path class="cls-8" d="M121.9,101.62c-.38,2.4-.86,5.12-.83,7.59.65,1.01.53-2.26.66-2.6.38-2.89.75-5.77,1.3-8.63-.69-.17-.95,2.99-1.13,3.64Z"/><path class="cls-8" d="M136.08,101.67c1.21-.52,2.39-1.25,3.67-1.58.44-.21,2.8-.45,3.14-.89.42-1.06-6.29,1.4-6.74,1.84-.69.56-3.09,1.58-3.02,2.49.14.07.14-.08.25-.11.89-.57,1.75-1.26,2.7-1.75Z"/><path class="cls-8" d="M147.58,107.82c1.38-.17,2.65-.57,4.05-.52.7-.07,2.09.18,2.51-.19.46-.66-3.07-.23-3.5-.31-1.72.29-5.08.59-6.26,1.77,1.01.06,2.16-.63,3.2-.75Z"/><path class="cls-8" d="M139.32,111.78c.29.86.86,1.66,1.12,2.52.18.3.45,2.4,1.12,2.05-.46-2.36-1.54-4.72-2.97-6.67-1.03-.84.66,1.83.74,2.09Z"/><path class="cls-7" d="M30.77,134.97c-.59.68-2.28,3.61-1.81,4.35.43.49.73-1.87,1.13-2.16.52-1.44,1.66-2.45,2.46-3.71-.41-.44-1.46,1.2-1.77,1.52Z"/><path class="cls-7" d="M37.93,118.8c-1.7-.81-3.86-2.29-5.77-2.06-.08.07-.23.25-.14.34,1.01.24,2.11.33,3.02.9,1.84.68,3.6,2.17,5.64,2.02.34-.32-2.43-.84-2.76-1.2Z"/><path class="cls-7" d="M37.47,130.04c.23.82.74,1.58.96,2.4.17.31.31,2.26,1,1.95-.34-2.22-1.27-4.47-2.55-6.33-.96-.82.53,1.74.59,1.99Z"/><path class="cls-7" d="M48.02,119.47c.13,1.3.49,2.5.38,3.82.05.66-.26,1.96.09,2.36.64.53.41-3.33.41-3.74-.23-1.45-.48-4.54-1.55-5.45-.08.95.58,2.03.67,3.01Z"/><path class="cls-7" d="M60.36,107.61c.41,1.37,1.01,2.6,1.17,4.04.18.7.12,2.15.54,2.53.73.37-.2-3.16-.2-3.62-.55-1.71-1.43-5.06-2.84-6.06.14,1.03,1.03,2.07,1.33,3.11Z"/><path class="cls-7" d="M47.93,107.03c1.2.7,4.73,1.67,5.81.59.27-.54-1.73.08-2.07-.07-2.26-.11-4.09-1.34-6.08-2.25-.34.5,1.9,1.45,2.34,1.73Z"/><path class="cls-7" d="M55.88,93.79c1.15-.26,2.28-.81,3.43-1.05.4-.15,2.55-.37,2.8-.85.29-.72-2.95.49-3.41.45-1.99.7-4.13,1.13-5.9,2.3.11.53,2.55-.82,3.08-.86Z"/><path class="cls-7" d="M67.07,90.98c.66,1.07,1.56,2.06,2.14,3.17.27.37,1.08,2.51,1.61,2.67.87.22-1.74-3.89-1.99-4.25-.77-.96-2.79-4.54-4.13-3.86.92.51,1.75,1.37,2.36,2.26Z"/><path class="cls-7" d="M57.86,78.6c1.64-.34,5.33-2.13,5.83-3.69-.06-.55-.83.46-1.05.58-.69.68-1.52,1.16-2.37,1.61-1.77,1.08-3.84,1.28-5.83,1.63.01.66,2.86,0,3.42-.12Z"/><path class="cls-7" d="M69.63,73.59c.83.52,1.78.96,2.46,1.68.3.22,1.39,1.72,1.87,1.63.8-.08-2.17-2.61-2.49-2.81-1.01-.7-3.26-1.98-4.39-1.42.68.48,1.79.45,2.54.91Z"/><path class="cls-7" d="M62.24,59.54c-1.6-.78-6.17-1.94-7.28,0-.01.46.47-.05.7-.09.57-.25,1.18-.42,1.82-.44,2.8.06,5.46,1.1,7.6,2.9.51-.56-2.24-2.16-2.84-2.37Z"/><path class="cls-7" d="M69.74,45.23c.28,1.23.84,2.46,1.07,3.7.15.43.33,2.73.81,3.04.73.36-.43-3.22-.41-3.68-.39-1.24-.68-2.52-1.2-3.71-.38-.81-.58-2.18-1.34-2.66.02,1.08.82,2.23,1.07,3.31Z"/><path class="cls-7" d="M73.6,58.08c-.1,1.22.02,2.38-.37,3.56-.1.61-.7,1.72-.47,2.17.51.65,1.19-2.92,1.24-3.32.09-1.41.36-4.27-.6-5.29-.2.87.28,1.96.2,2.88Z"/><path class="cls-7" d="M92.42,59.31c1.25-.79,2.51-1.72,3.91-2.2,1-.46,2.59-.52,3.5-1.13.43-1.05-5.79,1.38-6.15,1.88-1.32.81-3.95,2.69-4.29,4.14,1.06-.67,1.93-2,3.04-2.69Z"/><path class="cls-7" d="M105.09,57.99c1.13.56,2.42,1.04,3.33,1.93.4.26,1.78,2.15,2.35,2.17.81-.09-2.13-2.61-2.41-2.93-1.56-1.12-4.76-2.61-6.59-2.37.88.66,2.32.71,3.33,1.2Z"/><path class="cls-7" d="M96.06,74.87c-1.97,1.35-4.15,3.54-5.05,5.7.13.7.45,0,.66-.28.6-.9,1.19-1.86,2-2.59,1.58-1.94,3.77-3.1,5.87-4.4-.29-.6-2.93,1.24-3.47,1.57Z"/><path class="cls-7" d="M104.82,80.75c.95.87,1.95,1.63,2.54,2.81.44.61.56,1.62,1.14,2.06,1.04.14-1.75-4.14-2.28-4.34-.83-.81-2.91-2.42-4.02-2.1.69.64,1.9.89,2.63,1.57Z"/><path class="cls-7" d="M98.47,97.81c-.81,1.41-2.45,5.79-1.9,7.29.42.5.46-1.64.57-1.91.54-2.89,1.83-5.49,3.39-7.96.06-.12.14-.2.25-.26.06-.02.09-.04.06-.08-.8-.39-1.95,2.34-2.37,2.93Z"/><path class="cls-7" d="M107.15,99.4c1.73.77,2.98,1.21,4.28,2.81.4.3.91,1.62,1.4,1.25-.98-2.43-3.59-4-6.04-4.67-.3-.1-3.26-.97-2.78-.2,1.02.22,2.13.45,3.14.81Z"/><path class="cls-7" d="M111.26,115.23c-.03,1.08.04,5.97.73,6.54.64.39-.26-2.96-.07-3.43-.16-1.19-.11-2.4-.18-3.59-.08-.83.32-2.07-.12-2.77-.5.89-.25,2.24-.35,3.26Z"/><path class="cls-7" d="M123.67,119.93c.37.54.98.91,1.33,1.46.22.23.8,1.61,1.29,1.12-.55-1.35-2.27-3.18-3.57-3.88-.99-.2.8,1.11.94,1.31Z"/><path class="cls-7" d="M122.03,113.25c1.28-.23,2.58-.64,3.87-.66.83-.11,2.6.26,3.22-.1.56-.72-4.38-.39-4.85-.24-1.54.3-4.7.9-5.62,2.11,1.09-.09,2.26-.91,3.38-1.11Z"/><path class="cls-8" d="M112.14,81.83c-1.99,2.39-1.9,5.13-4.34,7.51,0,.08-.07.25.06.22,1.55-.57,2.17-2.41,2.81-3.78.79-2.75,2.7-4.86,4.87-6.63-.3-.67-3.1,2.17-3.4,2.68Z"/><path class="cls-3" d="M55.47,41.29c1.12,1.01,2.46,1.88,3.52,2.93.44.33,2.15,2.42,2.79,2.48.78-.05-1.68-2.05-1.91-2.32-1.42-1.41-2.97-2.7-4.62-3.83-.91-.56-2-1.71-3.06-1.77.79,1,2.3,1.64,3.27,2.52Z"/><path class="cls-3" d="M45.77,55.04c1.16.7,5.33,2.7,6.46,2.33.66-.39-2.93-1.01-3.28-1.41-2.11-.69-3.86-2.02-5.83-3.01-.38.48,2.2,1.75,2.66,2.09Z"/><path class="cls-3" d="M55.93,64.06c0,.4.32.74.38,1.12.02.19.2,1.14.72.79.1-.38-.27-.72-.26-1.11-.32-.59-.36-1.27-.78-1.8-.61-.37-.14.77-.07,1Z"/><path class="cls-3" d="M57.57,69.59c-.05.74.24,1.49.26,2.22.05.13-.05,1.63.41,1.78.63.2-.04-1.74.09-2.14-.3-1.27-.16-2.65-.68-3.86-.55.05-.02,1.57-.08,2Z"/><path class="cls-3" d="M42.12,76.86c-.33.46-.42,1.08-.76,1.53-.15.26-1.09,1.16-.49,1.43.93-.75,1.98-2.93,2.04-4.14-.22-.89-.66.98-.79,1.18Z"/><path class="cls-3" d="M31.02,58.64c1.03,1.45,2.27,2.84,3.17,4.36.66.93,1.57,3.15,2.35,3.7.91.21-2.1-4.12-2.3-4.62-1.06-1.47-2.08-2.99-3.33-4.31-.89-.91-1.84-2.43-3.01-2.85.73,1.31,2.23,2.45,3.12,3.72Z"/><path class="cls-3" d="M28.18,76.72c-.23,2.95-.28,6.58.33,9.41.57.63.34-.39.34-.76-.11-1.36-.3-2.74-.24-4.1-.11-1.74.04-3.49.1-5.23,0-1.24.58-2.87.26-4.02-.66,1.32-.58,3.21-.79,4.69Z"/><path class="cls-3" d="M17.87,93.83c-.54,1.65-1.65,6.63-1.03,8.05.51.69.37-3.71.71-4.17.16-1.47.59-2.89.95-4.33.22-1.03,1.07-2.27.97-3.28-.87.91-1.15,2.53-1.6,3.72Z"/><path class="cls-3" d="M16.75,68.22c1.62,1.27,6.41,4.43,8.25,4.5.95-.16-3.9-1.99-4.22-2.49-1.52-.8-2.89-1.84-4.3-2.82-1.03-.66-2.05-2.02-3.16-2.38.71,1.27,2.32,2.22,3.44,3.18Z"/><path class="cls-3" d="M8.76,82.67c.43,1.4,1.23,2.75,1.79,4.08.24.46,1.17,2.94,1.8,3.14.81.27-1.55-3.39-1.56-3.91-.69-1.31-1.19-2.71-1.81-4.04-.47-.92-.66-2.43-1.43-3.09-.02,1.25.84,2.62,1.22,3.82Z"/><path class="cls-3" d="M5.16,95.04c1.3-.51,2.64-1.04,4.02-1.3.26-.12,2.89-.43,3.33-1.03.34-.67-2.43.37-2.77.38-2.89.5-5.81,1.84-8.24,3.24,1.28.17,2.5-.84,3.66-1.29Z"/><path class="cls-3" d="M75.88,41.4c.57-3.17,1.79-6.49,2.59-9.64-.34-1.65-1.71,4.45-1.98,4.8-.44,1.82-.99,3.64-1.2,5.51-.13,1.3-.64,3.11-.14,4.3.45-1.48.33-3.42.74-4.97Z"/><path class="cls-3" d="M114.44,63.39c-.34.32-.39.84-.61,1.21-.16.24-.62,1.16.02,1.18.24-.18.23-.53.34-.78.26-.5.5-1,.74-1.51.97-1.32.07-1.28-.49-.1Z"/><path class="cls-3" d="M111.81,68.59c-.23.39-.13.88-.25,1.3-.03.07-.23.8-.03,1.03.2.1.42.16.44-.13.06-1.06.41-2.03.49-3.08-.25-.74-.6.66-.64.88Z"/><path class="cls-3" d="M121.47,61.93c1.13-.29,2.25-.86,3.41-1,.43-.16,2.5,0,2.87-.33.32-.32-.35-.3-.57-.34-3-.07-5.93,1.04-8.54,2.45l.05.15c.38-.09.36-.33-.06-.31l.14.44c.92-.28,1.8-.74,2.71-1.06Z"/><path class="cls-3" d="M124.41,78.66c.05.79.64,4.68,1.32,4.9.66.17-.51-2.15-.39-2.61-.43-1.56-.56-3.16-.55-4.77-.7-.14-.4,2-.38,2.48Z"/><path class="cls-3" d="M132.14,74.29c1.25-.37,2.38-.92,3.71-.99.65-.14,1.97.04,2.35-.35.41-.72-3.36-.04-3.79.05-1.41.42-4.42,1.29-5.07,2.58.94-.15,1.85-1.02,2.8-1.3Z"/><path class="cls-3" d="M139.97,85.84c1.02,1.88,1.01,3.81,1.85,5.92.7.43.22-.74.19-1.06-.48-1.61-.67-3.31-1.44-4.82-.58-.85-1-1.76-1.45-2.69-.2-.71-.45-.15-.29.29.2.86.73,1.59,1.13,2.36Z"/><path class="cls-3" d="M147.23,81.15c.99-1.11,3.64-3.84,2.82-5.45-.64-.36-.23.6-.4.94-.8,2.62-3.23,4.34-4.86,6.43.38.47,2.02-1.59,2.44-1.92Z"/><path class="cls-3" d="M156.01,87.84c.56.99,1.45,1.87,1.88,2.92.29.36.56,2.33.9,2.65.88.32-.41-2.97-.63-3.32-1.11-1.75-2.33-3.4-3.57-5.06-.56.34,1.16,2.3,1.43,2.81Z"/><path class="cls-3" d="M165.28,79.06c-.74.95-1.33,2.07-2.16,2.93-.47.61-1.86,1.58-1.97,2.24.09.84,2.71-2.34,3-2.65.89-1.31,2.91-3.83,2.83-5.33-.75.69-1.06,1.99-1.7,2.82Z"/><path class="cls-3" d="M170.51,90.03c.37,1.13.92,1.83.78,3.13.02.46-.22.87,0,1.12.68.54.56-2.04.47-2.38-.46-1.38-.95-2.96-2.12-3.89-.44.25.81,1.57.87,2.03Z"/><path class="cls-3" d="M178.04,90.04c2.78.7,2.31.88,4.23,2.45.93-.26-1.9-2.46-2.44-2.46-.94-.34-3.5-1.04-4.28-.49.65.46,1.73.25,2.49.5Z"/><path class="cls-9" d="M87.21,39.74c-.48-1.77-1.24-3.53-2.62-4.73-.11-.1-.25-.2-.4-.19-.14.01-.25.13-.35.23-1.91,2.15-3.02,4.99-3.08,7.87-.03,1.3.16,2.62.63,3.83.89,2.26,2.83,4.09,5.15,4.83l.1.63c1.48-3.96,1.68-8.39.57-12.48Z"/><path class="cls-7" d="M83.37,40.75c0,2.74,1.09,7.92,3.09,9.81.55.18-.13-.72-.2-.95-1.11-2.05-1.84-4.3-2.19-6.6-.41-2.43-.11-4.83.13-7.28-.02-.09-.04-.13-.08-.09-.79,1.42-.7,3.49-.74,5.11Z"/></svg>