<svg width="600" height="120" viewBox="0 0 600 120" fill="none" xmlns="http://www.w3.org/2000/svg">
<path d="M360 60C360 93.1371 386.863 120 420 120V120L420 60L360 60V60Z" fill="#FFB9B1"/>
<path d="M300 60C333.137 60 360 33.1371 360 7.62939e-06V7.62939e-06L300 1.02521e-05L300 60V60Z" fill="#FFB9B1"/>
<path d="M540 120C540 86.8629 513.137 60 480 60V60L480 120L540 120V120Z" fill="#FFB9B1"/>
<path d="M480 60C446.863 60 420 86.8629 420 120V120L480 120L480 60V60Z" fill="#008C5B"/>
<path d="M420 60C420 26.8629 393.137 2.34843e-06 360 5.24537e-06V5.24537e-06L360 60L420 60V60Z" fill="#008C5B"/>
<rect width="60" height="60" rx="30" transform="matrix(1 0 0 -1 420 60)" fill="#FF8B5A"/>
<path d="M300 120L330 120C346.569 120 360 106.568 360 89.9999V89.9999C360 73.4314 346.569 59.9999 330 59.9999V59.9999C313.432 59.9999 300 73.4314 300 89.9999V120Z" fill="#0F3132"/>
<path d="M600 60L570 60C553.431 60 540 73.4314 540 90V90C540 106.569 553.431 120 570 120V120C586.569 120 600 106.569 600 90L600 60Z" fill="#FF8B5A"/>
<path d="M540 60H570C586.569 60 600 46.5685 600 30V30C600 13.4315 586.569 7.62939e-06 570 7.62939e-06H540L540 60Z" fill="#008C5B"/>
<path d="M540 0L510 2.62268e-06C493.431 4.07115e-06 480 13.4315 480 30V30C480 46.5685 493.431 60 510 60L540 60L540 0Z" fill="#0F3132"/>
<path d="M240 60C240 26.8629 213.137 2.34843e-06 180 5.24537e-06V5.24537e-06L180 60L240 60V60Z" fill="#FFB9B1"/>
<path d="M300 60C266.863 60 240 86.8629 240 120V120L300 120L300 60V60Z" fill="#FFB9B1"/>
<path d="M60 7.62939e-06C60 33.1371 86.8629 60 120 60V60L120 -2.86134e-06L60 7.62939e-06V7.62939e-06Z" fill="#FFB9B1"/>
<path d="M120 60C153.137 60 180 33.1371 180 1.14441e-05V1.14441e-05L120 1.40668e-05L120 60V60Z" fill="#008C5B"/>
<path d="M180 60C180 93.1371 206.863 120 240 120V120L240 60L180 60V60Z" fill="#008C5B"/>
<rect width="60" height="60" rx="30" transform="matrix(-1 8.74228e-08 8.74228e-08 1 180 60)" fill="#FF8B5A"/>
<path d="M300 0L270 2.62268e-06C253.431 4.07115e-06 240 13.4315 240 30V30C240 46.5685 253.431 60 270 60V60C286.568 60 300 46.5685 300 30L300 0Z" fill="#0F3132"/>
<path d="M3.05176e-05 60L30 60C46.5686 60 60 46.5685 60 30V30C60 13.4315 46.5686 1.14441e-05 30 1.14441e-05V1.14441e-05C13.4315 1.14441e-05 3.05176e-05 13.4315 3.05176e-05 30L3.05176e-05 60Z" fill="#FF8B5A"/>
<path d="M60 60L30 60C13.4315 60 1.26183e-05 73.4315 1.40668e-05 90V90C1.55152e-05 106.569 13.4315 120 30 120L60 120L60 60Z" fill="#008C5B"/>
<path d="M60 120L90 120C106.569 120 120 106.569 120 90V90C120 73.4315 106.569 60 90 60L60 60L60 120Z" fill="#0F3132"/>
</svg>
