<svg width="500" height="200" viewBox="0 0 500 200" fill="none" xmlns="http://www.w3.org/2000/svg">
<path d="M100 100C100 155.228 144.772 200 200 200V200L200 100L100 100V100Z" fill="#FFB9B1"/>
<path d="M0 100C55.2285 100 100 55.2285 100 0V0L-4.37114e-06 4.37114e-06L0 100V100Z" fill="#FFB9B1"/>
<path d="M400 200C400 144.772 355.228 100 300 100V100L300 200L400 200V200Z" fill="#FFB9B1"/>
<path d="M300 100C244.772 100 200 144.772 200 200V200L300 200L300 100V100Z" fill="#008C5B"/>
<path d="M200 100C200 44.7715 155.228 3.91405e-06 100 8.74228e-06V8.74228e-06L100 100L200 100V100Z" fill="#008C5B"/>
<rect width="100" height="100" rx="50" transform="matrix(1 0 0 -1 200 100)" fill="#FF8B5A"/>
<path d="M0 200L50 200C77.6142 200 100 177.614 100 150V150C100 122.386 77.6142 100 50 100V100C22.3858 100 0 122.386 0 150L0 200Z" fill="#0F3132"/>
<path d="M500 100L450 100C422.386 100 400 122.386 400 150V150C400 177.614 422.386 200 450 200V200C477.614 200 500 177.614 500 150L500 100Z" fill="#FF8B5A"/>
<path d="M400 100L450 100C477.614 100 500 77.6142 500 50V50C500 22.3858 477.614 0 450 0L400 0L400 100Z" fill="#008C5B"/>
<path d="M400 0L350 4.37114e-06C322.386 6.78525e-06 300 22.3858 300 50V50C300 77.6142 322.386 100 350 100L400 100L400 0Z" fill="#0F3132"/>
</svg>
