<svg width="128" height="128" viewBox="0 0 128 128" fill="none" xmlns="http://www.w3.org/2000/svg">
<circle cx="64" cy="64" r="64" fill="white" fill-opacity="0.3"/>
<path d="M100.141 97.3031C99.9596 93.4144 99.7778 89.5453 99.798 85.6371C99.8384 75.7884 99.6971 65.881 99.9192 56.0323C100.262 46.0663 99.9798 36.0222 99.8385 26.0562C99.7577 20.487 101.938 10.0716 95.0326 7.94166C90.5095 6.55424 84.068 7.31631 79.343 7.17953C74.6381 7.04274 69.9131 6.98412 65.2082 7.00366C59.5341 7.00366 53.8803 7.14044 48.2062 7.35539C43.4407 7.53126 37.8474 7.06227 33.2435 8.39107C25.6107 10.5992 27.7107 22.1285 27.5896 28.0299C27.0242 55.6415 26.4588 83.722 27.9732 111.275C28.478 120.577 36.03 120.772 43.683 120.889C55.2533 121.085 66.8236 121.006 78.3939 120.772C85.4008 120.635 97.9605 122.843 100.384 114.48C101.777 109.673 100.404 102.286 100.182 97.3031H100.141ZM92.0441 117.47C89.0556 118.017 85.3604 117.645 82.2709 117.743C73.043 118.036 63.7948 118.036 54.5668 118.036C46.9946 118.036 32.7993 120.85 30.9617 111.275C29.8714 105.628 30.8002 98.9055 30.7598 93.219C30.6992 84.2497 30.6387 75.2998 30.5781 66.3304C30.5175 57.6542 30.3156 48.978 30.3964 40.3017C30.4367 35.7291 30.4973 31.137 30.5983 26.5643C30.6791 23.3596 29.8713 18.318 31.0021 15.25C33.3041 9.0164 45.0965 10.3647 50.9928 10.1889C60.4227 9.89576 69.8525 9.85668 79.2824 10.1303C83.2402 10.2475 89.9239 9.27042 93.6191 10.7751C97.274 12.2602 96.2441 13.2568 96.5672 15.7972C97.1326 20.1157 96.7692 24.747 96.8096 29.0851C96.9105 38.0545 97.1528 47.0825 96.8499 56.0519C96.5672 68.9099 96.325 82.022 96.9307 94.88C97.1327 99.0423 97.274 103.185 97.2942 107.367C97.2942 111.998 98.0009 116.395 92.0037 117.489L92.0441 117.47Z" fill="#111515"/>
<path d="M54.5061 16.872C60.8668 16.4812 67.2476 16.3639 73.6285 16.5594C75.5871 16.618 75.5669 13.6868 73.6285 13.6282C67.2476 13.4328 60.887 13.5305 54.5061 13.9409C52.5677 14.0581 52.5475 16.9893 54.5061 16.872Z" fill="#111515"/>
<path d="M67.5503 107.172C63.9359 107.25 55.9396 105.921 54.9502 110.767C53.9406 115.633 59.3522 116.16 62.9868 116.278C66.3388 116.395 73.4061 116.649 74.4763 112.506C75.5869 108.227 70.7609 107.289 67.5503 107.191V107.172ZM70.0744 112.741C67.9542 113.503 65.208 113.405 62.9868 113.327C61.8157 113.288 59.756 113.444 58.7464 112.878C57.5954 112.233 57.5348 111.041 58.9079 110.454C60.0387 109.946 61.9974 110.22 63.1887 110.2C64.6426 110.161 66.0965 110.142 67.5503 110.103C68.459 110.122 70.4783 109.966 71.185 110.669C72.2148 111.705 70.983 112.409 70.0744 112.741Z" fill="#111515"/>
<path d="M81.7051 90.6787C81.7253 92.1834 81.8868 93.7857 81.7051 95.2904C81.7455 95.8376 81.6243 96.3457 81.3618 96.8537C81.0589 96.8537 80.7561 96.8537 80.4532 96.8537C79.7868 97.0491 78.7771 96.8537 78.0704 96.8537C75.1223 96.9124 72.1944 97.0687 69.2463 97.0882C67.3078 97.0882 67.2876 100.039 69.2463 100.019C71.3867 100.019 73.5069 99.9217 75.6473 99.8435C77.7474 99.7849 80.1705 100.098 82.2301 99.7653C86.0061 99.14 84.7945 93.2191 84.734 90.6787C84.6936 88.8028 81.6647 88.7833 81.7051 90.6787Z" fill="#111515"/>
<path d="M83.2397 86.8485C85.1984 86.8485 85.1984 83.9174 83.2397 83.9174C81.2811 83.9174 81.2811 86.8485 83.2397 86.8485Z" fill="#111515"/>
<path d="M91.398 71.6653C90.9537 55.7197 90.7115 39.8133 90.9942 23.8482C90.9942 23.3792 90.7115 22.7734 90.247 22.578C88.1672 21.7182 85.1585 22.1286 82.9575 22.109C76.8392 22.0309 70.7006 22.0504 64.5823 22.0699C56.0005 22.109 46.4091 21.0733 37.9282 22.4608C37.2619 22.578 36.8378 23.2815 36.8176 23.8677C36.5753 35.1429 36.232 46.4182 36.1916 57.6934C36.232 71.1181 36.5349 84.582 37.0397 98.0067C37.1407 100.43 36.434 103.83 38.7359 105.256C41.8254 107.171 49.8418 105.979 53.2543 106.019C61.1698 106.116 69.1054 106.038 77.0209 105.784C80.2113 105.686 87.8441 106.624 90.6912 104.69C93.0335 103.107 92.0643 99.1791 92.0239 96.6974C91.923 88.3534 91.6807 80.0093 91.4384 71.6653H91.398ZM87.9249 24.8057C87.8643 24.6103 87.8037 24.6689 87.9249 24.8057ZM75.5873 102.911C65.6323 103.205 55.637 103.322 45.7023 102.931C44.0667 102.872 42.1686 103.009 40.5734 102.618C40.4321 102.579 40.3311 102.579 40.2301 102.579C40.2301 102.423 40.2301 102.208 40.2099 101.915C39.6042 97.4791 39.8667 92.7696 39.7455 88.3143C39.483 78.1138 39.2205 67.9133 39.1802 57.7129C39.2205 48.1768 39.5032 38.6212 39.7051 29.0852C39.7253 27.9518 39.9272 26.5644 39.8465 25.3528C42.8552 25.7241 46.4293 25.177 49.3976 25.1379C59.8371 25.0206 70.2766 24.9425 80.7162 25.0206C83.0383 25.0402 85.6431 24.8252 88.0056 25.1183C88.046 25.4114 88.046 25.8414 87.9249 26.5253C87.5008 29.1829 87.8441 32.1531 87.8239 34.8303C87.622 55.837 88.7932 76.8241 88.9749 97.8308C88.9749 99.0815 89.3788 101.036 88.9749 102.228C88.9749 102.247 88.9749 102.267 88.9951 102.286C88.7931 102.286 88.4499 102.267 87.8441 102.267C83.7854 102.267 79.6661 102.794 75.5873 102.911Z" fill="#111515"/>
<path d="M77.2024 77.4105C79.0803 72.7597 75.688 67.2882 72.0331 64.4352C70.1552 62.9696 68.0754 62.2271 65.8946 61.6408C65.8946 55.9348 65.935 50.2093 66.0562 44.5033C70.0341 43.663 73.8101 44.8355 74.7793 49.7403C75.1428 51.5967 78.0707 50.8151 77.7072 48.9587C76.4957 42.8814 71.4072 41.1422 66.0965 41.9434C66.1167 40.6146 66.1369 39.3054 66.1773 37.9766C66.2177 36.0811 63.1888 36.0811 63.1484 37.9766C63.108 39.5399 63.0878 41.1032 63.0676 42.6664C58.5243 44.1516 54.3041 47.2977 52.7493 51.0105C50.6897 55.9544 52.8503 60.0385 57.6763 62.2662C59.3523 63.0478 61.109 63.4777 62.8657 63.8881C62.8859 69.6918 62.9869 75.4955 63.1282 81.2992C58.0801 81.3383 53.3348 79.1302 53.5974 73.815C53.6983 71.9195 50.6694 71.939 50.5685 73.815C50.2252 80.7325 56.5657 84.3281 63.209 84.5821C63.2494 86.4385 63.2898 88.2949 63.3504 90.1513C63.4109 92.0273 66.4398 92.0468 66.3792 90.1513C66.3187 88.2558 66.2783 86.3604 66.2379 84.4453C71.0437 83.8787 75.5264 81.5532 77.2024 77.4105ZM61.8359 60.5465C50.2656 57.1464 55.8791 48.6851 63.0071 45.4804C62.9263 50.6001 62.8657 55.7199 62.8859 60.8202C62.5426 60.7224 62.1994 60.6247 61.8359 60.527V60.5465ZM65.8946 64.7088C67.4292 65.1973 68.9033 65.8617 70.2562 66.956C79.2418 74.2058 73.3053 79.7359 66.1369 81.0061C66.0158 75.5737 65.9148 70.1412 65.8946 64.7088Z" fill="#111515"/>
</svg>
