<svg width="128" height="128" viewBox="0 0 128 128" fill="none" xmlns="http://www.w3.org/2000/svg">
<circle cx="64" cy="64" r="64" fill="white" fill-opacity="0.3"/>
<path d="M113.673 54.155C113.027 48.1947 104.073 43.0774 98.3134 44.7439C97.373 36.4308 94.6693 29.6666 87.5967 24.2553C80.191 18.589 72.6873 15.7265 63.3812 16.0206C46.3364 16.5696 32.5633 28.1177 29.8205 44.7635C24.0997 42.8029 14.9699 48.3319 14.343 54.1354C14.2842 63.5661 11.6197 73.1928 22.1405 77.7219C30.5062 81.3295 32.1911 75.7613 32.5437 69.546C33.7976 76.3298 36.5405 82.8196 40.8703 88.2309C49.7845 99.3674 65.4972 103.622 78.0751 95.9167C87.7534 89.9955 93.4742 80.957 95.551 70.8597C95.7469 73.3105 96.2367 75.4868 97.373 76.9377C95.3942 85.4272 91.2996 92.8973 85.2065 99.1321C85.1281 99.0733 85.0498 98.9948 84.9518 98.9556C81.68 97.3087 77.1543 98.4655 75.3714 101.759C73.7453 104.779 75.058 109.818 78.369 111.17C81.6996 112.543 86.7542 112.504 88.5175 108.798C89.7518 106.23 89.0269 103.308 87.3616 101.152C93.5526 94.7991 97.8432 87.1526 99.9983 78.565C101.331 78.8591 103.015 78.7022 105.21 77.9572C116.436 74.0947 113.732 63.6641 113.673 54.1746V54.155ZM29.5266 71.4675C28.1552 77.2318 23.5315 75.8789 19.9854 72.5262C15.303 68.1148 17.2426 60.2134 17.2621 54.155C17.654 50.5867 22.3168 48.6456 25.334 47.9398C28.214 47.2732 28.8605 47.1555 29.4482 49.6063C30.5846 54.5275 29.6833 60.9585 29.6638 66.0169C29.6638 67.7423 29.9185 69.7813 29.5266 71.4479V71.4675ZM83.5216 87.231C76.8016 94.6226 67.6522 98.9556 57.5625 96.1323C42.3396 91.8973 34.4246 75.3496 34.6597 60.4095C48.9029 60.037 67.2996 55.7235 73.0792 41.5481C74.0979 45.2929 75.5673 48.9593 78.1339 51.7238C81.8955 55.7823 87.6163 57.9391 92.9844 58.4684C93.1608 58.4684 93.2783 58.4684 93.4155 58.4292C93.435 58.7429 93.4742 59.0762 93.4938 59.3899C94.2187 70.644 91.0449 78.9375 83.5216 87.231ZM34.8164 57.4685C36.227 40.7639 46.2972 30.294 63.1461 28.5687C69.9837 28.1373 77.213 28.8431 82.7575 33.333C89.0857 38.4503 92.0636 47.4104 93.1412 55.5667C93.0824 55.5667 93.0628 55.5275 93.004 55.5275C87.9494 55.0373 82.0914 52.5865 79.1526 48.2339C76.5469 44.391 75.5086 39.5287 74.6465 35.0388C74.4898 34.2153 73.8433 33.9408 73.2163 34.0192C72.5698 33.9212 71.9233 34.1957 71.8057 35.0388C69.3371 52.4297 49.6278 57.0372 34.836 57.4489L34.8164 57.4685ZM95.6098 49.626C95.5902 50.6455 95.5705 51.665 95.551 52.6845C95.4726 52.2728 95.4138 51.8611 95.3159 51.4297C93.6897 43.8813 90.653 35.7838 84.4424 30.8234C78.4473 26.0394 70.4931 25.1572 63.1461 25.6277C50.4311 26.9217 38.2058 32.8429 34.0327 45.8223C33.347 47.9398 32.8376 50.0965 32.4458 52.2924C32.4458 51.567 32.4262 50.8219 32.4066 50.0965C32.4066 49.2142 32.4066 48.3908 32.3282 47.6653C32.3282 47.6065 32.3674 47.5673 32.3674 47.5085C33.8368 30.9411 47.1592 19.5497 63.3616 18.9615C70.4931 18.7067 76.5665 20.5105 82.5616 24.3533C91.4759 30.0588 94.9044 37.1367 95.6293 47.5085C95.6293 47.6065 95.6685 47.6653 95.6881 47.7633C95.6293 48.3123 95.6097 48.9397 95.5901 49.6063L95.6098 49.626ZM86.0098 107.073C85.2261 109.327 82.4441 109.288 80.5045 108.72C79.1135 108.328 78.4277 107.837 77.9575 106.445C77.6832 105.622 77.4873 104.681 77.6832 103.818C78.2318 101.544 81.4449 100.485 83.4628 101.485C85.2457 102.544 86.7738 104.916 86.0098 107.053V107.073ZM108.011 72.5262C104.955 75.3495 100.018 77.5651 98.5485 72.0165C98.0587 70.2127 98.333 67.8795 98.333 66.0169C98.333 61.1741 97.1967 54.253 98.5485 49.6063C99.2538 47.2143 99.8808 47.2732 102.663 47.9398C105.739 48.6652 110.362 50.5475 110.735 54.155C110.774 60.2134 112.753 68.154 108.011 72.5262Z" fill="#111515"/>
<path d="M74.4898 77.8195C69.5135 86.2503 58.4637 86.0542 52.5274 78.8587C51.3127 77.4078 49.2556 79.4861 50.4507 80.9369C57.6409 89.6422 71.1592 89.2501 77.0368 79.3096C77.9968 77.6823 75.4694 76.1922 74.4898 77.8195Z" fill="#111515"/>
<path d="M52.3315 66.9966C52.6058 68.8592 55.427 68.0749 55.1723 66.2123C54.2319 59.5657 43.7307 60.0363 43.045 66.5652C42.8491 68.4474 45.7879 68.4278 45.9838 66.5652C46.1405 64.9771 48.0017 64.232 49.4124 64.3105C51.0189 64.4085 52.0964 65.428 52.3119 66.9966H52.3315Z" fill="#111515"/>
<path d="M73.1772 66.5652C72.9813 68.4474 75.92 68.4278 76.116 66.5652C76.2727 64.9771 78.1339 64.232 79.5445 64.3105C81.1511 64.4085 82.2286 65.428 82.4441 66.9966C82.7184 68.8592 85.5396 68.0749 85.2849 66.2123C84.3445 59.5657 73.8433 60.0363 73.1576 66.5652H73.1772Z" fill="#111515"/>
<path d="M19.8482 53.8809C18.8294 55.3513 18.7902 57.0179 18.751 58.7628C18.7119 60.7039 18.6923 62.6449 18.6923 64.6056C18.6923 66.5074 21.631 66.5074 21.631 64.6056C21.631 63.0763 21.6506 61.5469 21.6702 60.0176C21.6898 58.4687 21.4547 56.7042 22.3755 55.3905C23.4727 53.8416 20.9257 52.3712 19.8286 53.9005L19.8482 53.8809Z" fill="#111515"/>
<path d="M23.8843 49.979C21.9839 49.979 21.9839 52.92 23.8843 52.92C25.7847 52.92 25.7847 49.979 23.8843 49.979Z" fill="#111515"/>
</svg>
